<?xml version="1.0" encoding="utf-8"?>
<!-- Generator: Adobe Illustrator 18.1.1, SVG Export Plug-In . SVG Version: 6.00 Build 0)  -->
<svg version="1.1" id="Layer_1" xmlns="http://www.w3.org/2000/svg" xmlns:xlink="http://www.w3.org/1999/xlink" x="0px" y="0px"
	 viewBox="0 0 2060 460" enable-background="new 0 0 2060 460" xml:space="preserve">
<linearGradient id="SVGID_1_" gradientUnits="userSpaceOnUse" x1="887.5" y1="430" x2="887.5" y2="-2.844208e-07">
	<stop  offset="0" style="stop-color:#007CAC"/>
	<stop  offset="0.1357" style="stop-color:#88CDDF"/>
	<stop  offset="0.1855" style="stop-color:#00A0C3"/>
	<stop  offset="0.3578" style="stop-color:#009FC2"/>
	<stop  offset="0.5532" style="stop-color:#007CAC"/>
	<stop  offset="0.7786" style="stop-color:#007CAC"/>
	<stop  offset="1" style="stop-color:#008FB8"/>
</linearGradient>
<path fill="url(#SVGID_1_)" d="M885,0l0.1,250c0,5.5-2.9,13.4-6.5,17.6l-72.1,84.8c-3.6,4.2-6.5,12.1-6.5,17.6v50
	c0,5.5,4.5,10,10,10h120c5.5,0,10-4.5,10-10v-50c0-5.5,1.5-14.2,3.3-19.4l28.4-81.1c1.8-5.2,3.3-13.9,3.3-19.4V0L885,0z"/>
<linearGradient id="SVGID_2_" gradientUnits="userSpaceOnUse" x1="757.5" y1="450" x2="757.5" y2="7.632480e-09">
	<stop  offset="0" style="stop-color:#007CAC"/>
	<stop  offset="0.1624" style="stop-color:#88CDDF"/>
	<stop  offset="0.2262" style="stop-color:#00A0C3"/>
	<stop  offset="0.3578" style="stop-color:#009FC2"/>
	<stop  offset="0.5532" style="stop-color:#007CAC"/>
	<stop  offset="0.7786" style="stop-color:#007CAC"/>
	<stop  offset="1" style="stop-color:#008FB8"/>
</linearGradient>
<path fill="url(#SVGID_2_)" d="M785,0v250c0,5.5-3.7,12.6-8.2,15.7l-128.5,88.6c-4.5,3.1-8.2,10.2-8.2,15.7v70c0,5.5,4.5,10,10,10
	h120c5.5,0,10-4.5,10-10v-70c0-5.5,3.1-13.3,6.9-17.2l81.2-85.5c3.8-4,6.9-11.8,6.9-17.2V0H785z"/>
<linearGradient id="SVGID_3_" gradientUnits="userSpaceOnUse" x1="627.5" y1="430" x2="627.5" y2="6.284608e-09">
	<stop  offset="0" style="stop-color:#007CAC"/>
	<stop  offset="0.1357" style="stop-color:#88CDDF"/>
	<stop  offset="0.1855" style="stop-color:#00A0C3"/>
	<stop  offset="0.3578" style="stop-color:#009FC2"/>
	<stop  offset="0.5532" style="stop-color:#007CAC"/>
	<stop  offset="0.7786" style="stop-color:#007CAC"/>
	<stop  offset="1" style="stop-color:#008FB8"/>
</linearGradient>
<path fill="url(#SVGID_3_)" d="M685,0v250c0,5.5-4,12-9,14.4l-187,91.2c-4.9,2.4-9,8.9-9,14.4v50c0,5.5,4.5,10,10,10h120
	c5.5,0,10-4.5,10-10v-50c0-5.5,3.8-12.4,8.4-15.4l138.2-89.2c4.6-3,8.4-9.9,8.4-15.4V0H685z"/>
<linearGradient id="SVGID_4_" gradientUnits="userSpaceOnUse" x1="497.5" y1="410" x2="497.5" y2="4.938556e-09">
	<stop  offset="0" style="stop-color:#007CAC"/>
	<stop  offset="0.1" style="stop-color:#88CDDF"/>
	<stop  offset="0.16" style="stop-color:#00A0C3"/>
	<stop  offset="0.3578" style="stop-color:#009FC2"/>
	<stop  offset="0.5532" style="stop-color:#007CAC"/>
	<stop  offset="0.7786" style="stop-color:#007CAC"/>
	<stop  offset="1" style="stop-color:#008FB8"/>
</linearGradient>
<path fill="url(#SVGID_4_)" d="M585,0v250c0,5.5-4.2,11.6-9.4,13.5l-246.3,92.9c-5.1,1.9-9.4,8-9.4,13.5v30c0,5.5,4.5,10,10,10h120
	c5.5,0,10-4.5,10-10v-30c0-5.5,4.1-11.9,9.1-14.2l196.9-91.6c5-2.3,9.1-8.7,9.1-14.2V0H585z"/>
<linearGradient id="SVGID_5_" gradientUnits="userSpaceOnUse" x1="367.5" y1="430" x2="367.5" y2="3.591595e-09">
	<stop  offset="0" style="stop-color:#007CAC"/>
	<stop  offset="0.1357" style="stop-color:#88CDDF"/>
	<stop  offset="0.1855" style="stop-color:#00A0C3"/>
	<stop  offset="0.3578" style="stop-color:#009FC2"/>
	<stop  offset="0.5532" style="stop-color:#007CAC"/>
	<stop  offset="0.7786" style="stop-color:#007CAC"/>
	<stop  offset="1" style="stop-color:#008FB8"/>
</linearGradient>
<path fill="url(#SVGID_5_)" d="M485,0v250c0,5.5-4.3,11.3-9.6,12.9l-305.9,94.1c-5.3,1.6-9.6,7.4-9.6,12.9v50c0,5.5,4.5,10,10,10
	h120c5.5,0,10-4.5,10-10v-50c0-5.5,4.2-11.5,9.4-13.4l256.2-93.2c5.2-1.9,9.4-7.9,9.4-13.4V0H485z"/>
<linearGradient id="SVGID_6_" gradientUnits="userSpaceOnUse" x1="237.5" y1="430" x2="237.5" y2="2.243723e-09">
	<stop  offset="0" style="stop-color:#007CAC"/>
	<stop  offset="0.1357" style="stop-color:#88CDDF"/>
	<stop  offset="0.1855" style="stop-color:#00A0C3"/>
	<stop  offset="0.3578" style="stop-color:#009FC2"/>
	<stop  offset="0.5532" style="stop-color:#007CAC"/>
	<stop  offset="0.7786" style="stop-color:#007CAC"/>
	<stop  offset="1" style="stop-color:#008FB8"/>
</linearGradient>
<path fill="url(#SVGID_6_)" d="M385,0v250c0,5.5-4.4,11.1-9.7,12.5l-365.6,95c-5.3,1.4-9.7,7-9.7,12.5v50c0,5.5,4.5,10,10,10h120
	c5.5,0,10-4.5,10-10v-50c0-5.5,4.3-11.3,9.6-12.9l315.8-94.3c5.3-1.6,9.6-7.4,9.6-12.9V0H385z"/>
<linearGradient id="SVGID_7_" gradientUnits="userSpaceOnUse" x1="1692.5" y1="430" x2="1692.5" y2="9.315954e-09">
	<stop  offset="0" style="stop-color:#007CAC"/>
	<stop  offset="0.1357" style="stop-color:#88CDDF"/>
	<stop  offset="0.1855" style="stop-color:#00A0C3"/>
	<stop  offset="0.3578" style="stop-color:#009FC2"/>
	<stop  offset="0.5532" style="stop-color:#007CAC"/>
	<stop  offset="0.7786" style="stop-color:#007CAC"/>
	<stop  offset="1" style="stop-color:#008FB8"/>
</linearGradient>
<path fill="url(#SVGID_7_)" d="M1575,0v250c0,5.5,4.3,11.3,9.6,12.9l305.9,94.1c5.3,1.6,9.6,7.4,9.6,12.9v50c0,5.5-4.5,10-10,10
	h-120c-5.5,0-10-4.5-10-10v-50c0-5.5-4.2-11.5-9.4-13.4l-256.2-93.2c-5.2-1.9-9.4-7.9-9.4-13.4V0L1575,0z"/>
<linearGradient id="SVGID_8_" gradientUnits="userSpaceOnUse" x1="1822.5" y1="430" x2="1822.5" y2="1.515309e-08">
	<stop  offset="0" style="stop-color:#007CAC"/>
	<stop  offset="0.1357" style="stop-color:#88CDDF"/>
	<stop  offset="0.1855" style="stop-color:#00A0C3"/>
	<stop  offset="0.3578" style="stop-color:#009FC2"/>
	<stop  offset="0.5532" style="stop-color:#007CAC"/>
	<stop  offset="0.7786" style="stop-color:#007CAC"/>
	<stop  offset="1" style="stop-color:#008FB8"/>
</linearGradient>
<path fill="url(#SVGID_8_)" d="M1675,0v250c0,5.5,4.4,11.1,9.7,12.5l365.6,95c5.3,1.4,9.7,7,9.7,12.5v50c0,5.5-4.5,10-10,10h-120
	c-5.5,0-10-4.5-10-10v-50c0-5.5-4.3-11.3-9.6-12.9l-315.8-94.3c-5.3-1.6-9.6-7.4-9.6-12.9V0L1675,0z"/>
<linearGradient id="SVGID_9_" gradientUnits="userSpaceOnUse" x1="1432.5" y1="430" x2="1432.5" y2="1.155968e-08">
	<stop  offset="0" style="stop-color:#007CAC"/>
	<stop  offset="0.1357" style="stop-color:#88CDDF"/>
	<stop  offset="0.1855" style="stop-color:#00A0C3"/>
	<stop  offset="0.3578" style="stop-color:#009FC2"/>
	<stop  offset="0.5532" style="stop-color:#007CAC"/>
	<stop  offset="0.7786" style="stop-color:#007CAC"/>
	<stop  offset="1" style="stop-color:#008FB8"/>
</linearGradient>
<path fill="url(#SVGID_9_)" d="M1375,0v250c0,5.5,4,12,9,14.4l187,91.2c4.9,2.4,9,8.9,9,14.4v50c0,5.5-4.5,10-10,10h-120
	c-5.5,0-10-4.5-10-10v-50c0-5.5-3.8-12.4-8.4-15.4l-138.2-89.2c-4.6-3-8.4-9.9-8.4-15.4V0L1375,0z"/>
<linearGradient id="SVGID_10_" gradientUnits="userSpaceOnUse" x1="1562.5" y1="445" x2="1562.5" y2="1.290755e-08">
	<stop  offset="0" style="stop-color:#007CAC"/>
	<stop  offset="0.1633" style="stop-color:#88CDDF"/>
	<stop  offset="0.2184" style="stop-color:#00A0C3"/>
	<stop  offset="0.3578" style="stop-color:#009FC2"/>
	<stop  offset="0.5532" style="stop-color:#007CAC"/>
	<stop  offset="0.7786" style="stop-color:#007CAC"/>
	<stop  offset="1" style="stop-color:#008FB8"/>
</linearGradient>
<path fill="url(#SVGID_10_)" d="M1475,0v250c0,5.5,4.2,11.6,9.4,13.5l246.3,92.9c5.1,1.9,9.4,8,9.4,13.5v65c0,5.5-4.5,10-10,10h-120
	c-5.5,0-10-4.5-10-10v-65c0-5.5-4.1-11.9-9.1-14.2l-196.9-91.6c-5-2.3-9.1-8.7-9.1-14.2V0L1475,0z"/>
<linearGradient id="SVGID_11_" gradientUnits="userSpaceOnUse" x1="1302.5" y1="460" x2="1302.5" y2="1.111221e-08">
	<stop  offset="3.290418e-02" style="stop-color:#FF9B00"/>
	<stop  offset="0.1919" style="stop-color:#FFD783"/>
	<stop  offset="0.2603" style="stop-color:#FF9B00"/>
	<stop  offset="0.3438" style="stop-color:#FFAF00"/>
	<stop  offset="0.5532" style="stop-color:#FF9B00"/>
	<stop  offset="0.7786" style="stop-color:#FF9B00"/>
	<stop  offset="1" style="stop-color:#FFAA00"/>
</linearGradient>
<path fill="url(#SVGID_11_)" d="M1275,0v250c0,5.5,3.7,12.6,8.2,15.7l128.5,88.6c4.5,3.1,8.2,10.2,8.2,15.7v80c0,5.5-4.5,10-10,10
	h-120c-5.5,0-10-4.5-10-10v-80c0-5.5-3.1-13.3-6.9-17.2l-81.2-85.5c-3.8-4-6.9-11.8-6.9-17.2V0L1275,0z"/>
<linearGradient id="SVGID_12_" gradientUnits="userSpaceOnUse" x1="1172.5" y1="430" x2="1172.5" y2="1.155968e-08">
	<stop  offset="0" style="stop-color:#007CAC"/>
	<stop  offset="0.1357" style="stop-color:#88CDDF"/>
	<stop  offset="0.1855" style="stop-color:#00A0C3"/>
	<stop  offset="0.3578" style="stop-color:#009FC2"/>
	<stop  offset="0.5532" style="stop-color:#007CAC"/>
	<stop  offset="0.7786" style="stop-color:#007CAC"/>
	<stop  offset="1" style="stop-color:#008FB8"/>
</linearGradient>
<path fill="url(#SVGID_12_)" d="M1175,0v250c0,5.5,2.9,13.4,6.5,17.6l72,84.8c3.6,4.2,6.5,12.1,6.5,17.6v50c0,5.5-4.5,10-10,10h-120
	c-5.5,0-10-4.5-10-10v-50c0-5.5-1.5-14.2-3.3-19.4l-28.4-81.1c-1.8-5.2-3.3-13.9-3.3-19.4V0L1175,0z"/>
<linearGradient id="SVGID_13_" gradientUnits="userSpaceOnUse" x1="1030" y1="400" x2="1030" y2="-2.825136e-07">
	<stop  offset="0" style="stop-color:#007CAC"/>
	<stop  offset="0.1" style="stop-color:#88CDDF"/>
	<stop  offset="0.16" style="stop-color:#00A0C3"/>
	<stop  offset="0.3578" style="stop-color:#009FC2"/>
	<stop  offset="0.5532" style="stop-color:#007CAC"/>
	<stop  offset="0.7786" style="stop-color:#007CAC"/>
	<stop  offset="1" style="stop-color:#008FB8"/>
</linearGradient>
<path fill="url(#SVGID_13_)" d="M985,0l0.1,250c0,5.5-1.1,14.4-2.4,19.7l-20.2,80.6c-1.3,5.3-2.4,14.2-2.4,19.7v20
	c0,5.5,4.5,10,10,10h120c5.5,0,10-4.5,10-10v-20c0-5.5-1.1-14.4-2.4-19.7l-20.1-80.6c-1.3-5.3-2.4-14.2-2.4-19.7V0L985,0z"/>
</svg>
