<?xml version="1.0" encoding="utf-8"?>
<!-- Generator: Adobe Illustrator 18.1.1, SVG Export Plug-In . SVG Version: 6.00 Build 0)  -->
<svg version="1.1" id="Layer_1" xmlns="http://www.w3.org/2000/svg" xmlns:xlink="http://www.w3.org/1999/xlink" x="0px" y="0px"
	 viewBox="-83 85 32 32" enable-background="new -83 85 32 32" xml:space="preserve">
<g>
	<path fill="#FFAA00" d="M-67,89c6.6,0,12,5.4,12,12s-5.4,12-12,12c-6.6,0-12-5.4-12-12S-73.6,89-67,89 M-67,85c-8.8,0-16,7.2-16,16
		s7.2,16,16,16c8.8,0,16-7.2,16-16S-58.2,85-67,85L-67,85z"/>
	<g>
		<path fill="#FFAA00" d="M-64.9,98.9c0.8,0.8,1,1.9,0.7,2.9L-59,93l-8.7,5.1C-66.7,97.9-65.6,98.1-64.9,98.9z"/>
		<path fill="#FFAA00" d="M-69.1,103.1c-0.8-0.8-1-1.9-0.7-2.8L-75,109l8.8-5.2C-67.2,104.1-68.3,103.9-69.1,103.1z"/>
	</g>
</g>
</svg>
