<?xml version="1.0" encoding="utf-8"?>
<!-- Generator: Adobe Illustrator 18.1.1, SVG Export Plug-In . SVG Version: 6.00 Build 0)  -->
<svg version="1.1" id="Layer_1" xmlns="http://www.w3.org/2000/svg" xmlns:xlink="http://www.w3.org/1999/xlink" x="0px" y="0px"
	 viewBox="-273 365 64 64" enable-background="new -273 365 64 64" xml:space="preserve">
<g id="MAGNIFYING_GLASS_1_" enable-background="new    ">
	<g id="MAGNIFYING_GLASS">
		<g>
			<path fill="#FFFFFF" d="M-210.8,418.8l-17.6-17.6c2.1-3.6,3.3-7.7,3.3-12.2c0-13.3-10.7-24-24-24s-24,10.7-24,24s10.7,24,24,24
				c4.4,0,8.6-1.2,12.2-3.3l17.6,17.6c1.1,1.1,2.6,1.8,4.2,1.8c3.3,0,6-2.7,6-6C-209,421.3-209.7,419.8-210.8,418.8z M-249,407
				c-9.9,0-18-8.1-18-18s8.1-18,18-18s18,8.1,18,18S-239.1,407-249,407z"/>
		</g>
	</g>
</g>
</svg>
