<?xml version="1.0" encoding="utf-8"?>
<!-- Generator: Adobe Illustrator 18.1.1, SVG Export Plug-In . SVG Version: 6.00 Build 0)  -->
<svg version="1.1" id="Layer_1" xmlns="http://www.w3.org/2000/svg" xmlns:xlink="http://www.w3.org/1999/xlink" x="0px" y="0px"
	 viewBox="0 0 80 80" enable-background="new 0 0 80 80" xml:space="preserve">
<g>
	<path fill="#004375" d="M40,1c21.5,0,39,17.5,39,39S61.5,79,40,79S1,61.5,1,40S18.5,1,40,1 M40,0C17.9,0,0,17.9,0,40s17.9,40,40,40
		s40-17.9,40-40S62.1,0,40,0L40,0z"/>
</g>
<g>
	<g>
		<path fill="#FFAA00" d="M60,20H20c0,0-5,0.1-5,5c0,4.9,0,25.1,0,30c0,4.9,5,5,5,5h40c0,0,5-0.1,5-5c0-4.9,0-25.1,0-30
			C65,20.1,60,20,60,20z M30.8,55.8H20V34.2h10.8V55.8z M60,55.8H35V34.2h25V55.8z M60,30H20v-5h40V30z"/>
	</g>
</g>
</svg>
