<?xml version="1.0" encoding="utf-8"?>
<!-- Generator: Adobe Illustrator 18.1.1, SVG Export Plug-In . SVG Version: 6.00 Build 0)  -->
<svg version="1.1" id="Layer_1" xmlns="http://www.w3.org/2000/svg" xmlns:xlink="http://www.w3.org/1999/xlink" x="0px" y="0px"
	 viewBox="0 0 200 200" enable-background="new 0 0 200 200" xml:space="preserve">
<path fill="#008FB8" d="M62.8,181.4c-23.1,0-44.7-6.8-62.8-18.4c3.2,0.4,6.5,0.6,9.8,0.6c19.2,0,36.9-6.6,50.9-17.5
	c-17.9-0.4-33.1-12.2-38.2-28.5c2.5,0.5,5,0.7,7.7,0.7c3.7,0,7.4-0.5,10.8-1.5C22.2,113.1,8.1,96.6,8.1,76.7c0-0.1,0-0.4,0-0.5
	c5.5,3.1,11.8,4.9,18.5,5.1C15.7,73.9,8.4,61.5,8.4,47.2c0-7.5,2-14.5,5.5-20.6c20.1,24.8,50.3,41.2,84.3,42.8
	c-0.7-3-1.1-6.1-1.1-9.3c0-22.6,18.3-40.9,40.9-40.9c11.8,0,22.4,5,29.9,12.9c9.4-1.8,18.2-5.2,26.1-9.9c-3.1,9.6-9.5,17.6-18,22.7
	c8.2-1,16.2-3.2,23.5-6.4c-5.5,8.2-12.4,15.4-20.4,21.2c0.1,1.8,0.1,3.5,0.1,5.3C179.3,119,138,181.4,62.8,181.4"/>
</svg>
