<?xml version="1.0" encoding="utf-8"?>
<!-- Generator: Adobe Illustrator 18.1.1, SVG Export Plug-In . SVG Version: 6.00 Build 0)  -->
<svg version="1.1" id="Layer_1" xmlns="http://www.w3.org/2000/svg" xmlns:xlink="http://www.w3.org/1999/xlink" x="0px" y="0px"
	 viewBox="0 425 792 187" width="792" height="187" enable-background="new 0 425 792 187" xml:space="preserve">
<linearGradient id="SVGID_1_" gradientUnits="userSpaceOnUse" x1="996.6491" y1="511.9754" x2="996.6491" y2="-9.2209" gradientTransform="matrix(0.3566 0 0 0.3566 -2.2506 428.3808)">
	<stop  offset="0" style="stop-color:#007CAC"/>
	<stop  offset="0.1357" style="stop-color:#88CDDF"/>
	<stop  offset="0.1855" style="stop-color:#00A0C3"/>
	<stop  offset="0.3578" style="stop-color:#009FC2"/>
	<stop  offset="0.5532" style="stop-color:#007CAC"/>
	<stop  offset="0.7786" style="stop-color:#007CAC"/>
	<stop  offset="1" style="stop-color:#008FB8"/>
</linearGradient>
<path fill="url(#SVGID_1_)" d="M342.4,425.1v89.1c0,1.9-1,4.8-2.3,6.3l-25.7,30.2c-1.3,1.5-2.3,4.4-2.3,6.3v50.4
	c0,1.9,1.6,3.5,3.5,3.5h72.2c1.9,0,3.5-1.6,3.5-3.5v-50.4c0-1.9,2.9-40.8,2.9-42.8v-89.2H342.4L342.4,425.1z"/>
<linearGradient id="SVGID_2_" gradientUnits="userSpaceOnUse" x1="810.9536" y1="480.506" x2="810.9536" y2="-9.4809" gradientTransform="matrix(0.3566 0 0 0.3566 -2.2506 428.3808)">
	<stop  offset="0" style="stop-color:#007CAC"/>
	<stop  offset="0.1357" style="stop-color:#88CDDF"/>
	<stop  offset="0.1855" style="stop-color:#00A0C3"/>
	<stop  offset="0.3578" style="stop-color:#009FC2"/>
	<stop  offset="0.5532" style="stop-color:#007CAC"/>
	<stop  offset="0.7786" style="stop-color:#007CAC"/>
	<stop  offset="1" style="stop-color:#008FB8"/>
</linearGradient>
<path fill="url(#SVGID_2_)" d="M286.8,425.1v89.1c0,1.9-1.3,4.5-3,5.6L238,551.4c-1.6,1.1-3,3.6-3,5.6v39.2c0,1.9,1.6,3.5,3.5,3.5
	h62.8c1.9,0,3.5-1.6,3.5-3.5V557c0-1.9,1.1-4.7,2.5-6.1l28.9-30.5c1.4-1.4,2.5-4.2,2.5-6.1V425L286.8,425.1L286.8,425.1z"/>
<linearGradient id="SVGID_3_" gradientUnits="userSpaceOnUse" x1="623.8274" y1="449.8167" x2="623.8274" y2="-9.2209" gradientTransform="matrix(0.3566 0 0 0.3566 -2.2506 428.3808)">
	<stop  offset="0" style="stop-color:#007CAC"/>
	<stop  offset="0.1357" style="stop-color:#88CDDF"/>
	<stop  offset="0.1855" style="stop-color:#00A0C3"/>
	<stop  offset="0.3578" style="stop-color:#009FC2"/>
	<stop  offset="0.5532" style="stop-color:#007CAC"/>
	<stop  offset="0.7786" style="stop-color:#007CAC"/>
	<stop  offset="1" style="stop-color:#008FB8"/>
</linearGradient>
<path fill="url(#SVGID_3_)" d="M230.6,425.1v89.1c0,1.9-1.4,4.3-3.2,5.1l-66.7,32.6c-1.8,0.8-3.2,3.2-3.2,5.1v28.3
	c0,1.9,1.6,3.5,3.5,3.5h63.3c1.9,0,3.5-1.6,3.5-3.5V557c0-1.9,1.4-4.5,3-5.5l49.2-31.8c1.7-1.1,3-3.5,3-5.5v-89.1H230.6z"/>
<linearGradient id="SVGID_4_" gradientUnits="userSpaceOnUse" x1="435.5309" y1="418.6075" x2="435.5309" y2="-9.4809" gradientTransform="matrix(0.3566 0 0 0.3566 -2.2506 428.3808)">
	<stop  offset="0" style="stop-color:#007CAC"/>
	<stop  offset="0.1357" style="stop-color:#88CDDF"/>
	<stop  offset="0.1855" style="stop-color:#00A0C3"/>
	<stop  offset="0.3578" style="stop-color:#009FC2"/>
	<stop  offset="0.5532" style="stop-color:#007CAC"/>
	<stop  offset="0.7786" style="stop-color:#007CAC"/>
	<stop  offset="1" style="stop-color:#008FB8"/>
</linearGradient>
<path fill="url(#SVGID_4_)" d="M173.6,425.1v89.1c0,1.9-1.5,4.2-3.3,4.8l-87.8,33.1c-1.9,0.6-3.3,2.9-3.3,4.8v17.2
	c0,1.9,1.6,3.5,3.5,3.5h64.1c1.9,0,3.5-1.6,3.5-3.5V557c0-1.9,1.5-4.3,3.2-5.1l70.2-32.6c1.8-0.8,3.2-3.1,3.2-5.1V425L173.6,425.1
	L173.6,425.1z"/>
<linearGradient id="SVGID_5_" gradientUnits="userSpaceOnUse" x1="248.5347" y1="392.3396" x2="248.5347" y2="-9.4809" gradientTransform="matrix(0.3566 0 0 0.3566 -2.2506 428.3808)">
	<stop  offset="0" style="stop-color:#007CAC"/>
	<stop  offset="0.1357" style="stop-color:#88CDDF"/>
	<stop  offset="0.1855" style="stop-color:#00A0C3"/>
	<stop  offset="0.3578" style="stop-color:#009FC2"/>
	<stop  offset="0.5532" style="stop-color:#007CAC"/>
	<stop  offset="0.7786" style="stop-color:#007CAC"/>
	<stop  offset="1" style="stop-color:#008FB8"/>
</linearGradient>
<path fill="url(#SVGID_5_)" d="M117.3,425.1v89.1c0,1.9-1.5,4.2-3.3,4.8L6.3,552.1C4.5,552.8,3,555,3,557v7.8c0,1.9,1.6,3.5,3.5,3.5
	h63.2c1.9,0,3.5-1.6,3.5-3.5V557c0-1.9,1.5-4.3,3.2-5.1l90-32.6c1.8-0.8,3.2-3.1,3.2-5.1V425L117.3,425.1L117.3,425.1z"/>
<linearGradient id="SVGID_6_" gradientUnits="userSpaceOnUse" x1="1609.9133" y1="449.8168" x2="1609.9133" y2="-9.2209" gradientTransform="matrix(0.3566 0 0 0.3566 -2.2506 428.3808)">
	<stop  offset="0" style="stop-color:#007CAC"/>
	<stop  offset="0.1357" style="stop-color:#88CDDF"/>
	<stop  offset="0.1855" style="stop-color:#00A0C3"/>
	<stop  offset="0.3578" style="stop-color:#009FC2"/>
	<stop  offset="0.5532" style="stop-color:#007CAC"/>
	<stop  offset="0.7786" style="stop-color:#007CAC"/>
	<stop  offset="1" style="stop-color:#008FB8"/>
</linearGradient>
<path fill="url(#SVGID_6_)" d="M562,425.1v89.1c0,1.9,1.4,4.3,3.2,5.1l66.7,32.6c1.8,0.8,3.2,3.2,3.2,5.1v28.3
	c0,1.9-1.6,3.5-3.5,3.5h-64.5c-1.9,0-3.5-1.6-3.5-3.5V557c0-1.9-1.4-4.5-3-5.5l-49.2-31.8c-1.7-1.1-3-3.5-3-5.5v-89.1L562,425.1
	L562,425.1z"/>
<linearGradient id="SVGID_7_" gradientUnits="userSpaceOnUse" x1="1799.38" y1="418.6075" x2="1799.38" y2="-9.481" gradientTransform="matrix(0.3566 0 0 0.3566 -2.2506 428.3808)">
	<stop  offset="0" style="stop-color:#007CAC"/>
	<stop  offset="0.1357" style="stop-color:#88CDDF"/>
	<stop  offset="0.1855" style="stop-color:#00A0C3"/>
	<stop  offset="0.3578" style="stop-color:#009FC2"/>
	<stop  offset="0.5532" style="stop-color:#007CAC"/>
	<stop  offset="0.7786" style="stop-color:#007CAC"/>
	<stop  offset="1" style="stop-color:#008FB8"/>
</linearGradient>
<path fill="url(#SVGID_7_)" d="M618.8,425.1v89.1c0,1.9,1.5,4.2,3.3,4.8l87.8,33.1c1.9,0.6,3.3,2.9,3.3,4.8v17.2
	c0,1.9-1.6,3.5-3.5,3.5h-64.1c-1.9,0-3.5-1.6-3.5-3.5V557c0-1.9-1.5-4.3-3.2-5.1l-70.2-32.6c-1.8-0.8-3.2-3.1-3.2-5.1V425
	L618.8,425.1L618.8,425.1z"/>
<linearGradient id="SVGID_8_" gradientUnits="userSpaceOnUse" x1="1986.376" y1="392.3396" x2="1986.376" y2="-9.4809" gradientTransform="matrix(0.3566 0 0 0.3566 -2.2506 428.3808)">
	<stop  offset="0" style="stop-color:#007CAC"/>
	<stop  offset="0.1357" style="stop-color:#88CDDF"/>
	<stop  offset="0.1855" style="stop-color:#00A0C3"/>
	<stop  offset="0.3578" style="stop-color:#009FC2"/>
	<stop  offset="0.5532" style="stop-color:#007CAC"/>
	<stop  offset="0.7786" style="stop-color:#007CAC"/>
	<stop  offset="1" style="stop-color:#008FB8"/>
</linearGradient>
<path fill="url(#SVGID_8_)" d="M675.2,425.1v89.1c0,1.9,1.5,4.2,3.3,4.8l107.6,33.1c1.9,0.6,3.3,2.9,3.3,4.8v7.8
	c0,1.9-1.6,3.5-3.5,3.5h-63.2c-1.9,0-3.5-1.6-3.5-3.5V557c0-1.9-1.5-4.3-3.2-5.1l-90-32.6c-1.8-0.8-3.2-3.1-3.2-5.1V425L675.2,425.1
	L675.2,425.1z"/>
<linearGradient id="SVGID_9_" gradientUnits="userSpaceOnUse" x1="1421.7468" y1="480.506" x2="1421.7468" y2="-9.4809" gradientTransform="matrix(0.3566 0 0 0.3566 -2.2506 428.3808)">
	<stop  offset="0" style="stop-color:#007CAC"/>
	<stop  offset="0.1357" style="stop-color:#88CDDF"/>
	<stop  offset="0.1855" style="stop-color:#00A0C3"/>
	<stop  offset="0.3578" style="stop-color:#009FC2"/>
	<stop  offset="0.5532" style="stop-color:#007CAC"/>
	<stop  offset="0.7786" style="stop-color:#007CAC"/>
	<stop  offset="1" style="stop-color:#008FB8"/>
</linearGradient>
<path fill="url(#SVGID_9_)" d="M504.7,425.1v89.1c0,1.9,1.3,4.5,3,5.6l45.8,31.6c1.6,1.1,3,3.6,3,5.6v39.2c0,1.9-1.6,3.5-3.5,3.5
	h-62.5c-1.9,0-3.5-1.6-3.5-3.5V557c0-1.9-1.1-4.7-2.5-6.1l-28.9-30.5c-1.4-1.4-2.5-4.2-2.5-6.1V425L504.7,425.1L504.7,425.1z"/>
<linearGradient id="SVGID_10_" gradientUnits="userSpaceOnUse" x1="1235.6609" y1="511.9754" x2="1235.6609" y2="-9.2209" gradientTransform="matrix(0.3566 0 0 0.3566 -2.2506 428.3808)">
	<stop  offset="3.290418e-02" style="stop-color:#FF9B00"/>
	<stop  offset="0.14" style="stop-color:#FFD783"/>
	<stop  offset="0.2603" style="stop-color:#FF9B00"/>
	<stop  offset="0.3438" style="stop-color:#FFAF00"/>
	<stop  offset="0.5532" style="stop-color:#FF9B00"/>
	<stop  offset="0.7786" style="stop-color:#FF9B00"/>
	<stop  offset="1" style="stop-color:#FFAA00"/>
</linearGradient>
<path fill="url(#SVGID_10_)" d="M449.1,425.1v89.1c0,1.9,1,4.8,2.3,6.3l25.7,30.2c1.3,1.5,2.3,4.4,2.3,6.3v50.4
	c0,1.9-1.6,3.5-3.5,3.5h-72.2c-1.9,0-3.5-1.6-3.5-3.5v-50.4c0-1.9-2.8-40.8-2.8-42.8v-89.2H449.1L449.1,425.1z"/>
</svg>
