<?xml version="1.0" encoding="utf-8"?>
<!-- Generator: Adobe Illustrator 18.1.1, SVG Export Plug-In . SVG Version: 6.00 Build 0)  -->
<svg version="1.1" id="background" xmlns="http://www.w3.org/2000/svg" xmlns:xlink="http://www.w3.org/1999/xlink" x="0px" y="0px"
	 viewBox="0 0 80 80" enable-background="new 0 0 80 80" xml:space="preserve">
<g>
	<g>
		<path fill="#004375" d="M40,1c21.5,0,39,17.5,39,39S61.5,79,40,79S1,61.5,1,40S18.5,1,40,1 M40,0C17.9,0,0,17.9,0,40
			s17.9,40,40,40s40-17.9,40-40S62.1,0,40,0L40,0z"/>
	</g>
	<g>
		<g>
			<path fill="#FFAA00" d="M35.3,49.6c-0.2-1.4-0.3-2.8-0.3-4.2c0-0.8,0-1.5,0.1-2.3c-5.3-0.2-10.4-1.7-14.8-4.2
				c-0.3,1.4-0.5,2.8-0.5,4.2c4.2,1.3,7.9,3.9,10.4,7.4C31.9,50.1,33.6,49.8,35.3,49.6z"/>
			<path fill="#FFAA00" d="M48.6,52.3c-3.2-1.3-6.7-2-10.4-2c-0.6,0-1.2,0-1.8,0.1c1.1,6.3,4,11.9,8.3,16.2c0.5-0.1,1-0.2,1.5-0.3
				c-0.2-1.2-0.4-2.5-0.4-3.8C45.8,58.8,46.9,55.3,48.6,52.3z"/>
			<path fill="#FFAA00" d="M30.8,51.3c2.1,3.2,3.4,7,3.4,11.2c0,1.3-0.1,2.6-0.4,3.8c2,0.5,4.1,0.7,6.2,0.7c1.2,0,2.4-0.1,3.6-0.2
				c-4.2-4.4-7.1-10-8.1-16.3C33.9,50.6,32.3,50.9,30.8,51.3z"/>
			<path fill="#FFAA00" d="M34.6,35c-4.3,0-8.4-1.4-11.7-3.7c-1,2.1-1.8,4.4-2.3,6.7c4.3,2.5,9.3,4,14.6,4.2c0.3-2.5,0.8-5,1.7-7.3
				C36.1,35,35.4,35,34.6,35z"/>
			<path fill="#FFAA00" d="M18.9,45.4c0-0.5,0-1.1,0-1.6c-1.6-0.4-3.3-0.7-5-0.7c-0.2,0-0.5,0-0.7,0c0.6,5.1,2.6,9.8,5.7,13.6
				c0.5-0.4,1-0.9,1.5-1.3C19.4,52.3,18.9,48.9,18.9,45.4z"/>
			<path fill="#FFAA00" d="M21.5,55.8c0.7,2.1,1.6,4.2,2.8,6.1c2.6,1.9,5.5,3.3,8.7,4.2c0.2-1.2,0.3-2.3,0.3-3.6
				c0-4-1.2-7.8-3.4-10.9C26.8,52.5,24,54,21.5,55.8z"/>
			<path fill="#FFAA00" d="M23.3,30.5c3.2,2.3,7.1,3.6,11.3,3.6c0.9,0,1.8-0.1,2.6-0.2c2.1-5.2,5.5-9.7,9.8-13
				c-0.2-1.1-0.3-2.2-0.3-3.4c0-1.2,0.1-2.4,0.3-3.6c-0.7-0.2-1.4-0.3-2.1-0.5C35.5,15.7,27.7,22.1,23.3,30.5z"/>
			<path fill="#FFAA00" d="M19,42.9c0.1-1.5,0.3-3,0.6-4.4c-2.1-1.3-4.1-2.8-5.9-4.5c-0.4,1.9-0.7,4-0.7,6c0,0.8,0,1.5,0.1,2.3
				c0.3,0,0.5,0,0.8,0C15.6,42.2,17.3,42.5,19,42.9z"/>
			<path fill="#FFAA00" d="M19.4,57.5c0.9,1.1,1.9,2.1,3,3c-0.7-1.3-1.2-2.7-1.7-4.1C20.3,56.8,19.8,57.1,19.4,57.5z"/>
			<path fill="#FFAA00" d="M58.3,34.8c2.6,1.3,5.5,2.1,8.5,2.1c-0.4-3.2-1.3-6.2-2.7-9C62.5,30.4,60.5,32.7,58.3,34.8z"/>
			<path fill="#FFAA00" d="M57.4,34.3c2.4-2.1,4.5-4.6,6.2-7.4c-2.1-3.8-5.2-7.1-8.8-9.5c-0.1,0-0.1,0-0.2,0.1
				c-0.5,3.7-2,7.1-4.2,9.9C52.1,30.3,54.6,32.7,57.4,34.3z"/>
			<path fill="#FFAA00" d="M19.8,44.1c0,0.4,0,0.9,0,1.3c0,3.3,0.5,6.5,1.4,9.5c2.5-1.8,5.2-3.2,8.1-4.1
				C26.9,47.7,23.6,45.3,19.8,44.1z"/>
			<path fill="#FFAA00" d="M38.3,33.8c4.4-0.8,8.2-3.2,11-6.5c-0.9-1.7-1.6-3.5-2.1-5.4C43.3,25,40.2,29.1,38.3,33.8z"/>
			<path fill="#FFAA00" d="M49.9,51.9c3.6,1.6,6.9,3.9,9.6,6.8c4-4.1,6.6-9.5,7.3-15.5c-0.2,0-0.5,0-0.7,0
				C59.3,43.2,53.4,46.6,49.9,51.9z"/>
			<path fill="#FFAA00" d="M22.2,30.8c-1.9-1.5-3.6-3.3-4.9-5.4c-1.5,2.3-2.7,4.9-3.4,7.6c1.8,1.7,3.7,3.3,5.8,4.6
				C20.3,35.2,21.1,32.9,22.2,30.8z"/>
			<path fill="#FFAA00" d="M66.9,37.7c-3.4,0-6.6-0.9-9.3-2.3c-5.7,4.8-13.1,7.7-21.2,7.7c-0.1,0-0.2,0-0.4,0
				C36,43.9,36,44.6,36,45.4c0,1.4,0.1,2.8,0.3,4.1c0.6,0,1.3-0.1,2-0.1c3.8,0,7.5,0.8,10.9,2.1c3.6-5.6,9.9-9.3,17-9.3
				c0.3,0,0.5,0,0.8,0C67,41.5,67,40.8,67,40C67,39.2,67,38.5,66.9,37.7z"/>
			<path fill="#FFAA00" d="M49.5,52.7c-1.7,2.9-2.7,6.2-2.7,9.8c0,1.2,0.1,2.4,0.3,3.6c4.5-1.2,8.5-3.6,11.8-6.7
				C56.2,56.5,53,54.2,49.5,52.7z"/>
			<path fill="#FFAA00" d="M48,21.3c0.4,1.9,1,3.7,1.9,5.3c1.9-2.5,3.2-5.4,3.8-8.6C51.7,18.9,49.8,20,48,21.3z"/>
			<path fill="#FFAA00" d="M53.8,16.9C53.8,16.9,53.8,16.8,53.8,16.9c-1.8-1.2-3.8-2-5.9-2.7c-0.2,1.1-0.3,2.2-0.3,3.3
				c0,0.9,0.1,1.9,0.2,2.8C49.7,18.9,51.7,17.8,53.8,16.9z"/>
			<path fill="#FFAA00" d="M56.7,34.9c-2.8-1.7-5.2-4-6.9-6.8c-3,3.4-7.2,5.8-11.9,6.6c-0.9,2.4-1.5,4.9-1.8,7.5c0.1,0,0.2,0,0.3,0
				C44.1,42.2,51.2,39.5,56.7,34.9z"/>
			<path fill="#FFAA00" d="M22.6,30c4.1-8,11.4-14.1,20.1-16.8C41.8,13,40.9,13,40,13c-9.1,0-17.2,4.6-22.1,11.5
				C19.1,26.6,20.7,28.5,22.6,30z"/>
		</g>
		<circle fill="#004375" cx="22.9" cy="30.1" r="2.7"/>
		<circle fill="#004375" cx="20.2" cy="38.2" r="2.7"/>
		<circle fill="#004375" cx="35.5" cy="42.7" r="3.6"/>
		<circle fill="#004375" cx="49.9" cy="52.6" r="2.7"/>
		<circle fill="#004375" cx="30.1" cy="50.8" r="2.7"/>
		<circle fill="#004375" cx="58" cy="34.6" r="2.7"/>
		<circle fill="#004375" cx="49.9" cy="27.4" r="2.7"/>
		<circle fill="#004375" cx="47.2" cy="21.1" r="1.8"/>
		<circle fill="#004375" cx="21.1" cy="55.3" r="1.8"/>
		<circle fill="#004375" cx="36.4" cy="49.9" r="1.8"/>
		<circle fill="#004375" cx="37.3" cy="34.6" r="1.8"/>
		<circle fill="#004375" cx="19.3" cy="43.6" r="1.8"/>
	</g>
</g>
</svg>
