<?xml version="1.0" encoding="utf-8"?>
<!-- Generator: Adobe Illustrator 18.1.1, SVG Export Plug-In . SVG Version: 6.00 Build 0)  -->
<svg version="1.1" id="Layer_1" xmlns="http://www.w3.org/2000/svg" xmlns:xlink="http://www.w3.org/1999/xlink" x="0px" y="0px"
	 viewBox="0 0 80 80" enable-background="new 0 0 80 80" xml:space="preserve">
<g>
	<path fill="#004375" d="M40,1c21.5,0,39,17.5,39,39S61.5,79,40,79S1,61.5,1,40S18.5,1,40,1 M40,0C17.9,0,0,17.9,0,40s17.9,40,40,40
		s40-17.9,40-40S62.1,0,40,0L40,0z"/>
</g>
<path fill="#FFAA00" d="M40,22.7c-8.9,0-17.2,2.6-24.1,7.2L22.7,57h8.7c0-4,3.9-8.5,8.7-8.5c0.3,0,0.5,0.1,0.8,0.1l10.8-21
	l-6.2,22.8c2,1.6,3.2,4.6,3.2,6.6h8.7l6.8-27.1C57.2,25.3,48.9,22.7,40,22.7z"/>
</svg>
