<?xml version="1.0" encoding="utf-8"?>
<!-- Generator: Adobe Illustrator 18.1.1, SVG Export Plug-In . SVG Version: 6.00 Build 0)  -->
<svg version="1.1" id="Layer_1" xmlns="http://www.w3.org/2000/svg" xmlns:xlink="http://www.w3.org/1999/xlink" x="0px" y="0px"
	 viewBox="0 0 80 80" enable-background="new 0 0 80 80" xml:space="preserve">
<g>
	<path fill="#004375" d="M40,1c21.5,0,39,17.5,39,39S61.5,79,40,79S1,61.5,1,40S18.5,1,40,1 M40,0C17.9,0,0,17.9,0,40s17.9,40,40,40
		s40-17.9,40-40S62.1,0,40,0L40,0z"/>
</g>
<g>
	<path fill="#FFAA00" d="M36.1,16.9c-10.6,0-19.1,8.6-19.1,19.1c0,10.6,8.6,19.1,19.1,19.1s19.1-8.6,19.1-19.1
		C55.2,25.5,46.6,16.9,36.1,16.9z M36.1,48.9c-7.1,0-12.9-5.8-12.9-12.9c0-7.1,5.8-12.9,12.9-12.9S48.9,29,48.9,36.1
		C48.9,43.2,43.2,48.9,36.1,48.9z"/>
	<path fill="#FFAA00" d="M53,49.5L49.5,53l9.3,9.3c0,0,1.8,1.7,3.6,0c1.7-1.7,0-3.6,0-3.6S52.9,49.5,53,49.5z"/>
</g>
</svg>
