<?xml version="1.0" encoding="utf-8"?>
<!-- Generator: Adobe Illustrator 18.1.1, SVG Export Plug-In . SVG Version: 6.00 Build 0)  -->
<svg version="1.1" id="Layer_1" xmlns="http://www.w3.org/2000/svg" xmlns:xlink="http://www.w3.org/1999/xlink" x="0px" y="0px"
	 viewBox="0 0 200 200" enable-background="new 0 0 200 200" xml:space="preserve">
<g>
	<path fill="#004375" d="M100,2.5c53.8,0,97.5,43.8,97.5,97.5s-43.8,97.5-97.5,97.5S2.5,153.8,2.5,100S46.2,2.5,100,2.5 M100,0
		C44.8,0,0,44.8,0,100s44.8,100,100,100s100-44.8,100-100S155.2,0,100,0L100,0z"/>
</g>
<path fill="#FFAA00" d="M100,32c-37.5,0-68,30.5-68,68s30.5,68,68,68s68-30.5,68-68S137.5,32,100,32z M100,150
	c-27.6,0-50-22.4-50-50s22.4-50,50-50s50,22.4,50,50S127.6,150,100,150z"/>
<path fill="#FFAA00" d="M122.8,106.2L110,97V77c0-5.5-4.5-10-10-10s-10,4.5-10,10v25c0,0.2,0,0.5,0,0.8c0,0.2,0,0.8,0,1
	s0.2,0.5,0.2,1c0,0.2,0.2,0.7,0.2,1c0,0.2,0.2,0.5,0.5,0.8c0.2,0.2,0.2,0.5,0.5,0.8c0.2,0.2,0.5,0.5,0.5,0.7
	c0.2,0.2,0.5,0.5,0.5,0.8c0.2,0.2,0.5,0.5,0.8,0.8c0.2,0.2,0.2,0.2,0.5,0.5l16.8,12.3c1.8,1.2,3.8,2,6,2c3,0,6-1.5,8-4
	C128,115.8,127,109.5,122.8,106.2z"/>
</svg>
