<?xml version="1.0" encoding="utf-8"?>
<!-- Generator: Adobe Illustrator 18.1.1, SVG Export Plug-In . SVG Version: 6.00 Build 0)  -->
<svg version="1.1" id="Layer_1" xmlns="http://www.w3.org/2000/svg" xmlns:xlink="http://www.w3.org/1999/xlink" x="0px" y="0px"
	 viewBox="0 0 200 200" enable-background="new 0 0 200 200" xml:space="preserve">
<g>
	<path fill="#004375" d="M100,2.5c53.8,0,97.5,43.8,97.5,97.5s-43.8,97.5-97.5,97.5S2.5,153.8,2.5,100S46.2,2.5,100,2.5 M100,0
		C44.8,0,0,44.8,0,100s44.8,100,100,100s100-44.8,100-100S155.2,0,100,0L100,0z"/>
</g>
<g>
	<path fill="#FFAA00" d="M163.7,81.3l-39.4,28.6l15.2,46.5L100,127.7l-39.6,28.7l15.2-46.5L36.3,81.3h48.6L100,35l15.1,46.3H163.7z"
		/>
</g>
</svg>
