<?xml version="1.0" encoding="utf-8"?>
<!-- Generator: Adobe Illustrator 18.1.1, SVG Export Plug-In . SVG Version: 6.00 Build 0)  -->
<svg version="1.1" id="Layer_1" xmlns="http://www.w3.org/2000/svg" xmlns:xlink="http://www.w3.org/1999/xlink" x="0px" y="0px"
	 viewBox="0 0 80 80" enable-background="new 0 0 80 80" xml:space="preserve">
<g>
	<path fill="#004375" d="M40,1c21.5,0,39,17.5,39,39S61.5,79,40,79S1,61.5,1,40S18.5,1,40,1 M40,0C17.9,0,0,17.9,0,40s17.9,40,40,40
		s40-17.9,40-40S62.1,0,40,0L40,0z"/>
</g>
<g>
	<path fill="#FFAA00" d="M64.7,51.1L44.1,16.8c-2.3-3.8-6-3.8-8.2,0L15.3,51.1C13,54.9,14.8,58,19.2,58h41.6
		C65.2,58,67,54.9,64.7,51.1z M20.8,52L40,19.2L59.2,52H20.8z"/>
	<polygon fill="#FFAA00" points="36.8,30 43.2,30 41.6,43 38.4,43 	"/>
	<circle fill="#FFAA00" cx="40" cy="47.6" r="2.4"/>
</g>
</svg>
