<?xml version="1.0" encoding="utf-8"?>
<!-- Generator: Adobe Illustrator 18.1.1, SVG Export Plug-In . SVG Version: 6.00 Build 0)  -->
<svg version="1.1" id="Layer_1" xmlns="http://www.w3.org/2000/svg" xmlns:xlink="http://www.w3.org/1999/xlink" x="0px" y="0px"
	 viewBox="0 0 130 130" enable-background="new 0 0 130 130" xml:space="preserve">
<path fill="#008FB8" d="M94.6,72.4V57.6h-8.7c-0.3-0.7-0.5-1.4-0.9-2.1l6.2-6.2L80.7,38.9L74.5,45c-0.7-0.3-1.4-0.5-2.1-0.7v-8.9
	H57.6v8.9c-0.7,0.3-1.4,0.4-2.1,0.7l-6.2-6.2L38.9,49.3l6.2,6.2c-0.3,0.7-0.6,1.4-0.9,2.1h-8.7v14.8h8.7c0.3,0.7,0.5,1.4,0.9,2.1
	l-6.2,6.2l10.5,10.5l6.2-6.2c0.7,0.3,1.4,0.5,2.1,0.7v8.9h14.8v-8.9c0.7-0.3,1.4-0.4,2.1-0.7l6.2,6.2l10.4-10.5l-6.2-6.2
	c0.3-0.7,0.6-1.4,0.9-2.1H94.6z M65,72.5c-4.1,0-7.4-3.3-7.4-7.4c0-4.1,3.3-7.4,7.4-7.4c4.1,0,7.4,3.3,7.4,7.4
	C72.4,69.2,69.1,72.5,65,72.5z"/>
<g>
	<path fill="#FFAA00" d="M34.4,34.4c12.4-12.4,30.6-15.7,46-9.9l3.7-11.2C64.5,6,41.7,10.3,26,26C10.3,41.7,6,64.5,13.3,84.1
		l11.2-3.7C18.6,64.9,21.9,46.8,34.4,34.4z"/>
	<path fill="#FFAA00" d="M116.7,45.9l-11.2,3.7c5.8,15.5,2.6,33.6-9.9,46s-30.6,15.7-46,9.9l-3.7,11.2c19.6,7.2,42.4,3,58.1-12.7
		C119.7,88.3,124,65.5,116.7,45.9z"/>
</g>
<g>
	<path fill="#004375" d="M30.9,9.7l2.9,2.9c23.4-14,54.3-10.9,74.4,9.3c20.2,20.2,23.3,51,9.3,74.4l2.9,2.9
		c15.5-25.1,12.4-58.4-9.4-80.1C89.2-2.7,55.9-5.8,30.9,9.7z"/>
	<path fill="#004375" d="M96.3,117.5c-23.4,14-54.3,10.9-74.4-9.3C1.6,88-1.5,57.2,12.5,33.7l-2.9-2.9C-5.8,55.9-2.7,89.2,19,111
		c21.7,21.7,55,24.8,80.1,9.4L96.3,117.5z"/>
</g>
</svg>
