<?xml version="1.0" encoding="utf-8"?>
<!-- Generator: Adobe Illustrator 18.1.1, SVG Export Plug-In . SVG Version: 6.00 Build 0)  -->
<svg version="1.1" id="Layer_1" xmlns="http://www.w3.org/2000/svg" xmlns:xlink="http://www.w3.org/1999/xlink" x="0px" y="0px"
	 viewBox="0 0 190 130" enable-background="new 0 0 190 130" xml:space="preserve">
<rect y="90" fill="#004375" width="4" height="40"/>
<rect x="6" y="110" fill="#004375" width="4" height="20"/>
<rect x="12" y="102" fill="#004375" width="4" height="28"/>
<rect x="18" y="70" fill="#004375" width="4" height="60"/>
<rect x="24" y="90" fill="#004375" width="4" height="40"/>
<rect x="30" y="110" fill="#004375" width="4" height="20"/>
<rect x="36" y="90" fill="#004375" width="4" height="40"/>
<rect x="42" y="80" fill="#004375" width="4" height="50"/>
<rect x="48" y="70" fill="#004375" width="4" height="60"/>
<rect x="54" y="80" fill="#004375" width="4" height="50"/>
<rect x="60" y="70" fill="#004375" width="4" height="60"/>
<rect x="66" y="102" fill="#004375" width="4" height="28"/>
<rect x="72" y="110" fill="#004375" width="4" height="20"/>
<rect x="78" y="90" fill="#004375" width="4" height="40"/>
<rect x="84" y="90" fill="#004375" width="4" height="40"/>
<rect x="90" y="70" fill="#004375" width="4" height="60"/>
<rect x="96" y="80" fill="#004375" width="4" height="50"/>
<rect x="102" y="110" fill="#004375" width="4" height="20"/>
<rect x="108" y="70" fill="#004375" width="4" height="60"/>
<rect x="114" y="104" fill="#004375" width="4" height="26"/>
<rect x="120" y="76" fill="#004375" width="4" height="54"/>
<rect x="126" y="110" fill="#004375" width="4" height="20"/>
<rect x="132" y="70" fill="#004375" width="4" height="60"/>
<rect x="138" y="84" fill="#004375" width="4" height="46"/>
<rect x="144" y="110" fill="#004375" width="4" height="20"/>
<rect x="150" y="110" fill="#004375" width="4" height="20"/>
<rect x="156" y="80" fill="#004375" width="4" height="50"/>
<rect x="162" y="70" fill="#004375" width="4" height="60"/>
<rect x="168" y="84" fill="#004375" width="4" height="46"/>
<rect x="174" y="110" fill="#004375" width="4" height="20"/>
<rect x="180" y="70" fill="#004375" width="4" height="60"/>
<rect x="186" y="112" fill="#004375" width="4" height="18"/>
<rect y="66" fill="#008FB8" width="4" height="24"/>
<rect y="52" fill="#FFAA00" width="4" height="14"/>
<rect x="6" y="90" fill="#008FB8" width="4" height="20"/>
<rect x="6" y="70" fill="#FFAA00" width="4" height="20"/>
<rect x="12" y="84" fill="#008FB8" width="4" height="18"/>
<rect x="12" y="30" fill="#FFAA00" width="4" height="54"/>
<rect x="18" y="46" fill="#008FB8" width="4" height="24"/>
<rect x="18" y="14" fill="#FFAA00" width="4" height="32"/>
<rect x="24" y="66" fill="#008FB8" width="4" height="24"/>
<rect x="24" y="30" fill="#FFAA00" width="4" height="36"/>
<rect x="30" y="86" fill="#008FB8" width="4" height="24"/>
<rect x="30" y="70" fill="#FFAA00" width="4" height="16"/>
<rect x="36" y="60" fill="#008FB8" width="4" height="30"/>
<rect x="36" y="50" fill="#FFAA00" width="4" height="10"/>
<rect x="42" y="60" fill="#008FB8" width="4" height="20"/>
<rect x="42" y="30" fill="#FFAA00" width="4" height="30"/>
<rect x="48" y="50" fill="#008FB8" width="4" height="20"/>
<rect x="48" y="20" fill="#FFAA00" width="4" height="30"/>
<rect x="54" y="60" fill="#008FB8" width="4" height="20"/>
<rect x="54" y="30" fill="#FFAA00" width="4" height="30"/>
<rect x="60" y="50" fill="#008FB8" width="4" height="20"/>
<rect x="60" y="14" fill="#FFAA00" width="4" height="36"/>
<rect x="66" y="70" fill="#008FB8" width="4" height="32"/>
<rect x="66" y="34" fill="#FFAA00" width="4" height="36"/>
<rect x="72" y="90" fill="#008FB8" width="4" height="20"/>
<rect x="72" y="70" fill="#FFAA00" width="4" height="20"/>
<rect x="78" y="70" fill="#008FB8" width="4" height="20"/>
<rect x="78" y="50" fill="#FFAA00" width="4" height="20"/>
<rect x="84" y="64" fill="#008FB8" width="4" height="26"/>
<rect x="84" y="34" fill="#FFAA00" width="4" height="30"/>
<rect x="90" y="50" fill="#008FB8" width="4" height="20"/>
<rect x="90" y="20" fill="#FFAA00" width="4" height="30"/>
<rect x="96" y="20" fill="#008FB8" width="4" height="60"/>
<rect x="96" fill="#FFAA00" width="4" height="20"/>
<rect x="102" y="90" fill="#008FB8" width="4" height="20"/>
<rect x="102" y="70" fill="#FFAA00" width="4" height="20"/>
<rect x="108" y="50" fill="#008FB8" width="4" height="20"/>
<rect x="108" y="20" fill="#FFAA00" width="4" height="30"/>
<rect x="114" y="84" fill="#008FB8" width="4" height="20"/>
<rect x="114" y="54" fill="#FFAA00" width="4" height="30"/>
<rect x="120" y="66" fill="#008FB8" width="4" height="10"/>
<rect x="120" y="30" fill="#FFAA00" width="4" height="36"/>
<rect x="126" y="90" fill="#008FB8" width="4" height="20"/>
<rect x="126" y="70" fill="#FFAA00" width="4" height="20"/>
<rect x="132" y="50" fill="#008FB8" width="4" height="20"/>
<rect x="132" y="20" fill="#FFAA00" width="4" height="30"/>
<rect x="138" y="26" fill="#008FB8" width="4" height="58"/>
<rect x="138" y="6" fill="#FFAA00" width="4" height="20"/>
<rect x="144" y="100" fill="#008FB8" width="4" height="10"/>
<rect x="144" y="62" fill="#FFAA00" width="4" height="38"/>
<rect x="150" y="90" fill="#008FB8" width="4" height="20"/>
<rect x="150" y="74" fill="#FFAA00" width="4" height="16"/>
<rect x="156" y="60" fill="#008FB8" width="4" height="20"/>
<rect x="156" y="34" fill="#FFAA00" width="4" height="26"/>
<rect x="162" y="50" fill="#008FB8" width="4" height="20"/>
<rect x="162" y="20" fill="#FFAA00" width="4" height="30"/>
<rect x="168" y="32" fill="#008FB8" width="4" height="52"/>
<rect x="168" y="12" fill="#FFAA00" width="4" height="20"/>
<rect x="174" y="90" fill="#008FB8" width="4" height="20"/>
<rect x="174" y="70" fill="#FFAA00" width="4" height="20"/>
<rect x="180" y="50" fill="#008FB8" width="4" height="20"/>
<rect x="180" y="20" fill="#FFAA00" width="4" height="30"/>
<rect x="186" y="56" fill="#008FB8" width="4" height="56"/>
<rect x="186" y="32" fill="#FFAA00" width="4" height="24"/>
</svg>
