<?xml version="1.0" encoding="utf-8"?>
<!-- Generator: Adobe Illustrator 18.1.1, SVG Export Plug-In . SVG Version: 6.00 Build 0)  -->
<svg version="1.1" id="Layer_1" xmlns="http://www.w3.org/2000/svg" xmlns:xlink="http://www.w3.org/1999/xlink" x="0px" y="0px"
	 viewBox="0 0 580 134" enable-background="new 0 0 580 134" xml:space="preserve">
<g>
	<g>
		<path fill="#C3E8F2" d="M156.7,23.4v88.4h-19.4V23.4H156.7z"/>
		<path fill="#C3E8F2" d="M179.5,47.8v8.9h0.4c2.2-3.7,5.1-6.4,8.7-8.1c3.5-1.7,7.2-2.5,10.9-2.5c4.7,0,8.6,0.6,11.6,1.9
			c3,1.3,5.4,3.1,7.1,5.3c1.7,2.3,2.9,5,3.6,8.3c0.7,3.3,1.1,6.9,1.1,10.8v39.4h-17.6V75.6c0-5.3-0.8-9.2-2.5-11.8
			c-1.6-2.6-4.6-3.9-8.8-3.9c-4.8,0-8.3,1.4-10.4,4.3c-2.2,2.8-3.2,7.5-3.2,14.1v33.6h-17.6v-64H179.5z"/>
		<path fill="#C3E8F2" d="M223.5,59.5V47.8H234v-5c0-5.7,1.8-10.4,5.3-14c3.5-3.6,8.9-5.4,16.1-5.4c1.6,0,3.1,0.1,4.7,0.2
			c1.6,0.1,3.1,0.2,4.6,0.3V37c-2.1-0.3-4.2-0.4-6.4-0.4c-2.4,0-4.1,0.6-5.1,1.7c-1,1.1-1.5,3-1.5,5.6v3.8h12.1v11.8h-12.1v52.2H234
			V59.5H223.5z M287,23.4v88.4h-17.6V23.4H287z"/>
		<path fill="#C3E8F2" d="M336.1,111.8v-8.9h-0.4c-2.2,3.7-5.1,6.4-8.7,8.1c-3.5,1.7-7.2,2.5-10.9,2.5c-4.7,0-8.6-0.6-11.6-1.9
			c-3-1.2-5.4-3-7.1-5.3c-1.7-2.3-2.9-5-3.6-8.3c-0.7-3.3-1.1-6.9-1.1-10.8V47.8h17.6v36.2c0,5.3,0.8,9.2,2.5,11.8
			c1.7,2.6,4.6,3.9,8.8,3.9c4.8,0,8.3-1.4,10.4-4.3c2.1-2.8,3.2-7.5,3.2-14.1V47.8h17.6v64H336.1z"/>
		<path fill="#C3E8F2" d="M356.4,47.8h20.1l11.3,16.7l11.1-16.7h19.4l-21,30l23.7,34.1h-20.1l-13.4-20.2l-13.4,20.2h-19.7l23-33.7
			L356.4,47.8z"/>
		<path fill="#0690BA" d="M461.4,23.4c5.7,0,11,0.9,15.9,2.7c4.9,1.8,9.2,4.5,12.7,8.2c3.6,3.6,6.4,8.2,8.4,13.6
			c2,5.4,3,11.8,3,19.2c0,6.4-0.8,12.4-2.5,17.8c-1.7,5.4-4.2,10.2-7.5,14.1c-3.4,4-7.5,7.1-12.5,9.3c-5,2.3-10.9,3.4-17.6,3.4
			h-38.1V23.4H461.4z M460.1,95.4c2.8,0,5.5-0.5,8.2-1.4c2.6-0.9,5-2.4,7.1-4.5c2.1-2.1,3.7-4.8,4.9-8.2c1.2-3.4,1.9-7.5,1.9-12.4
			c0-4.5-0.4-8.5-1.3-12.1c-0.9-3.6-2.3-6.7-4.3-9.2c-2-2.6-4.6-4.5-7.9-5.9c-3.3-1.4-7.3-2-12.1-2h-13.9v55.7H460.1z"/>
		<path fill="#0690BA" d="M547.6,23.4c4.2,0,8.1,0.4,11.5,1.1c3.5,0.7,6.4,2,8.9,3.7c2.5,1.7,4.4,3.9,5.8,6.7c1.4,2.8,2,6.3,2,10.4
			c0,4.5-1,8.2-3,11.1c-2,3-5,5.4-9,7.3c5.4,1.6,9.5,4.3,12.2,8.2c2.7,3.9,4,8.6,4,14.2c0,4.5-0.9,8.3-2.6,11.6
			c-1.7,3.3-4.1,5.9-7,8c-2.9,2.1-6.3,3.6-10,4.6c-3.7,1-7.6,1.5-11.6,1.5H506V23.4H547.6z M545.1,59.1c3.5,0,6.3-0.8,8.5-2.5
			c2.2-1.6,3.3-4.3,3.3-8c0-2.1-0.4-3.8-1.1-5.1c-0.7-1.3-1.7-2.4-3-3.1c-1.2-0.7-2.7-1.3-4.3-1.6c-1.6-0.3-3.3-0.4-5-0.4h-18.2
			v20.7H545.1z M546.2,96.7c1.9,0,3.7-0.2,5.4-0.5c1.7-0.4,3.3-1,4.6-1.9c1.3-0.9,2.4-2,3.2-3.5c0.8-1.5,1.2-3.4,1.2-5.7
			c0-4.5-1.3-7.8-3.8-9.7c-2.6-1.9-5.9-2.9-10.1-2.9h-21.2v24.3H546.2z"/>
	</g>
	<g>
		<g>
			<path fill="#FFFFFF" d="M50.1,115.6l-0.7,0c-1.2,0-2.4,0.5-3.5,1.2c-2.8,2-3.4,5.9-1.4,8.7c2,2.8,5.9,3.4,8.7,1.4
				c2.8-2,3.4-6,1.4-8.8c-0.9-1.1-2-2-3.4-2.4l-0.4-0.1l1.2,0.5c1,0.4,1.9,1.1,2.5,2c2,2.8,1.4,6.6-1.4,8.6c-2.8,2-6.6,1.4-8.6-1.4
				c-2-2.8-1.4-6.6,1.4-8.6c0.9-0.7,1.9-1,3.1-1.1L50.1,115.6L50.1,115.6z M34.2,90.1c-2-2.8-6-3.4-8.7-1.4c-2.8,2-3.4,6-1.4,8.7
				c2,2.8,6,3.4,8.7,1.4c1-0.7,1.8-1.7,2.2-2.9l0.2-0.7l-0.1,0l-0.4,1c-0.4,1-1.1,1.9-2,2.5c-2.8,2-6.6,1.4-8.6-1.4
				c-2-2.7-1.4-6.6,1.4-8.6C28.3,86.8,32.2,87.4,34.2,90.1c0.6,1,1,2,1.1,3.1l0.1,1.3l0-0.4C35.5,92.6,35.1,91.2,34.2,90.1z
				 M49.9,120.1l-0.7,0.1c-0.3,0-0.5,0.1-0.7,0.3c-0.7,0.5-0.9,1.6-0.4,2.3c0.5,0.7,1.6,0.9,2.3,0.4c0.9-0.6,1.1-2,0-2.7L49.9,120.1
				z M30.5,92.8C30,92,29,91.9,28.2,92.4c-0.7,0.5-0.9,1.6-0.4,2.3c0.5,0.7,1.6,0.9,2.3,0.4c0.2-0.1,0.3-0.3,0.5-0.6l0.3-0.6
				l-0.2-0.6C30.7,93.1,30.6,92.9,30.5,92.8z M46.9,98.3l-0.4,1c-0.9,2,0.9,4.6,3.2,4.4l1.1-0.1l0-0.1l0.5-0.4
				c1.1-0.8,1.5-2.3,1-3.6l-0.3-0.8l-0.6-0.5c-1.1-0.9-2.6-1-3.7-0.2L46.9,98.3z M71.4,84.6c-2-2.8-6-3.4-8.7-1.4
				c-2.5,1.8-3.3,5.2-1.9,7.9l0.4,0.9l0.7,0.7c2.2,2.2,5.6,2.5,8.1,0.7C72.8,91.3,73.4,87.4,71.4,84.6z M61.5,92.1l-0.1-0.3
				l-0.2-0.2l0.1-0.1l-0.4-1.2c-0.9-2.5-0.1-5.3,2-6.8c2.6-1.9,6.3-1.3,8.2,1.3c1.9,2.6,1.3,6.3-1.3,8.2c-2.1,1.6-5,1.5-7.1-0.2
				l-1-0.8L61.5,92.1z M67.4,87.5c-0.4-0.6-1.3-0.7-1.9-0.3c-0.4,0.3-0.6,0.9-0.5,1.4l0.1,0.6l0.5,0.3c0.5,0.3,1.1,0.2,1.5-0.1
				C67.7,88.9,67.9,88.1,67.4,87.5z"/>
			<path fill="#0690BA" d="M40.9,128.1c-3.5-4.8-2.4-11.4,2.4-14.9c1-0.7,2.1-1.2,3.2-1.6l0.2-4c-2.6-1.1-4.7-3.9-4.9-6.7l-3.9-1
				c-0.7,1-1.5,1.8-2.5,2.5c-4.8,3.5-11.5,2.4-14.9-2.4c-3.5-4.8-2.4-11.4,2.4-14.9c4.8-3.5,11.4-2.4,14.9,2.4
				c0.9,1.3,1.6,2.8,1.9,4.3l6.8,1.8c1.8-0.7,3.8-0.8,5.6-0.1l3.9-2.8c-1-4.1,0.6-8.6,4.1-11.1c4.8-3.5,11.5-2.4,14.9,2.4
				c3.5,4.7,2.4,11.4-2.4,14.9c-3.5,2.5-8.2,2.7-11.8,0.5l-3.9,2.8c0.1,1.9-0.6,3.8-1.8,5.3l-0.4,7c1.4,0.8,2.6,1.8,3.5,3.1
				c3.4,4.8,2.4,11.4-2.4,14.9C51.1,134,44.4,132.9,40.9,128.1z M55.8,117.3c2.5,3.5,1.7,8.3-1.7,10.8
				C57.5,125.6,58.3,120.8,55.8,117.3C55.8,117.3,55.8,117.3,55.8,117.3C55.8,117.3,55.8,117.3,55.8,117.3z M35.4,89.2
				c-2.5-3.4-7.4-4.2-10.8-1.7C28.1,85,32.9,85.8,35.4,89.2C35.4,89.2,35.4,89.2,35.4,89.2C35.4,89.2,35.4,89.2,35.4,89.2z
				 M50.2,104.2l-0.9,9.8l-1.1,0.2c-1.1,0.2-2.2,0.7-3.1,1.3c1.2-0.9,2.7-1.4,4.3-1.4l2.3-0.1l0,0.3l0,0c0.3,0.1,0.6,0.2,0.9,0.3
				l-0.9-0.3l0.5-9.6l-2.3-1.2c-1.6,0.2-3.2,1-4.2-0.4c-1-1.4-1.2-3-0.6-4.5l0.7-1.5l1.1-0.6c0.1,0,0.1-0.1,0.2-0.1l-0.4,0.2
				L37,94.1l-0.1-0.9c0,0.3,0,0.6,0,0.9l0,0l0.3,0.1l-0.7,2.2c-0.5,1.4-1.5,2.7-2.7,3.6c0.9-0.7,1.7-1.5,2.2-2.5l0.6-1l9.3,2.3
				l-1.1,1.3c-0.3,2.2,1.6,4.7,3.7,5.1L50.2,104.2z M48.1,99.4l-0.2,0.5c-0.5,1.1,0.5,2.4,1.7,2.3l0.5-0.1l0.4-0.3
				c0.6-0.4,0.8-1.2,0.5-1.9l-0.1-0.4l-0.3-0.3c-0.5-0.4-1.4-0.5-2-0.1L48.1,99.4z M53.8,101.4c-0.1,0.6-0.3,1.2-0.6,1.7
				C53.5,102.5,53.7,101.9,53.8,101.4z M59.2,92l-6.9,5l-0.7-0.4c0.2,0.1,0.5,0.3,0.7,0.5l0.9,0.8l0.4,1.1c0.1,0.3,0.2,0.5,0.2,0.8
				l-0.1-0.8l7-5.1l-0.2-0.5L60,92.9l-0.2-0.4L59.2,92z M72.6,83.7c2.5,3.4,1.7,8.3-1.7,10.8C74.3,92,75.1,87.2,72.6,83.7
				c-2.5-3.4-7.4-4.2-10.8-1.7C65.2,79.5,70.1,80.3,72.6,83.7z M47,123.7c-1-1.4-0.7-3.4,0.7-4.4c0.4-0.3,0.8-0.4,1.3-0.5l1.2-0.2
				l1.1,0.7c1.8,1.2,1.8,3.8,0.1,5.1C50,125.4,48,125.1,47,123.7z M26.6,95.6c-1-1.4-0.7-3.4,0.7-4.4c1.7-1.2,4.2-0.5,4.9,1.7
				l0.4,1.2l-0.6,1.1c-0.2,0.4-0.5,0.8-0.9,1.1C29.6,97.3,27.6,97,26.6,95.6z M63.8,90.1l-0.3-1.3c-0.2-1.1,0.2-2.2,1.1-2.9
				c1.3-0.9,3-0.6,4,0.6c0.9,1.3,0.6,3-0.6,4c-0.9,0.6-2.1,0.7-3.1,0.2L63.8,90.1z"/>
		</g>
		<path fill="#C3E8F2" d="M55.8,117.3c-1.1-1.5-2.6-2.5-4.2-2.9l0.6-10.2c1.6-1.3,2.2-3.4,1.5-5.3l7.2-5.2c2.6,2.7,6.9,3.1,10,0.8
			c3.5-2.5,4.2-7.3,1.7-10.8c-2.5-3.4-7.3-4.2-10.8-1.7c-3.1,2.3-4.1,6.5-2.3,9.8L52.2,97c-1.5-1.3-3.7-1.4-5.5-0.3l-9.9-2.6
			c0.1-1.7-0.4-3.5-1.4-4.9c-2.5-3.4-7.4-4.2-10.8-1.7c-3.5,2.5-4.2,7.3-1.7,10.8c2.5,3.5,7.3,4.2,10.8,1.7c1.3-1,2.2-2.2,2.7-3.6
			l8.7,2.3c-0.7,1.4-0.5,3.2,0.5,4.5c1,1.4,2.6,2,4.2,1.9l-0.5,9c-1.5,0-3,0.5-4.3,1.5c-3.4,2.5-4.2,7.3-1.7,10.8
			c2.5,3.5,7.3,4.2,10.8,1.7C57.6,125.6,58.3,120.8,55.8,117.3z M63.7,84.7c2-1.4,4.7-1,6.1,1c1.4,2,1,4.7-1,6.1
			c-1.6,1.2-3.8,1.1-5.3-0.1l1.3-1c0.9,0.5,2.2,0.5,3.1-0.2c1.3-0.9,1.6-2.7,0.6-4c-0.9-1.3-2.7-1.6-4-0.6c-0.9,0.7-1.3,1.8-1.1,2.9
			l-1.3,1C61.5,88,62.1,85.9,63.7,84.7z M31.9,97.5c-2.1,1.5-5,1-6.5-1.1c-1.5-2.1-1-5,1.1-6.5c2.1-1.5,5-1,6.5,1
			c0.5,0.7,0.8,1.5,0.9,2.3l-1.6-0.4c-0.1-0.3-0.2-0.7-0.5-1c-1-1.4-3-1.7-4.4-0.7c-1.4,1-1.7,3-0.7,4.4c1,1.4,3,1.7,4.4,0.7
			c0.4-0.3,0.7-0.7,0.9-1.1l1.5,0.4C33.1,96.3,32.6,97,31.9,97.5z M45.8,124.6c-1.5-2.1-1-5,1-6.5c0.7-0.5,1.5-0.8,2.3-0.9l-0.1,1.6
			c-0.5,0.1-0.9,0.2-1.3,0.5c-1.4,1-1.7,3-0.7,4.4c1,1.4,3,1.7,4.4,0.7c1.4-1,1.7-3,0.7-4.4c-0.2-0.3-0.5-0.5-0.8-0.7l0.1-1.7
			c0.7,0.3,1.4,0.8,1.9,1.5c1.5,2.1,1,5-1.1,6.5C50.2,127.2,47.3,126.7,45.8,124.6z"/>
	</g>
	<g>
		<g>
			<path fill="#FFFFFF" d="M110.4,99.3l-0.2,0.7c-0.3,1.2-0.3,2.5,0.1,3.7c1.1,3.3,4.6,5.1,7.9,4c3.3-1.1,5.1-4.6,4.1-7.9
				c-1.1-3.3-4.6-5.1-7.9-4c-1.4,0.5-2.5,1.3-3.3,2.5l-0.2,0.3l0.8-1c0.7-0.8,1.7-1.4,2.7-1.8c3.2-1.1,6.7,0.7,7.7,4
				c1,3.2-0.7,6.7-3.9,7.7c-3.2,1-6.7-0.7-7.7-4c-0.4-1.1-0.4-2.2-0.1-3.3L110.4,99.3L110.4,99.3z M81.2,106.5
				c-3.3,1.1-5.1,4.6-4,7.9c1.1,3.3,4.6,5.1,7.9,4c3.3-1.1,5.1-4.6,4-7.9c-0.4-1.2-1.1-2.2-2.1-3l-0.6-0.4l0,0l0.8,0.7
				c0.8,0.7,1.5,1.7,1.8,2.7c1,3.2-0.7,6.7-4,7.7c-3.2,1.1-6.7-0.7-7.7-4C76.3,111.1,78,107.6,81.2,106.5c1.1-0.2,2.2-0.3,3.3,0
				l1.2,0.3l-0.4-0.1C84,106.1,82.6,106,81.2,106.5z M114.7,100.9l-0.1,0.7c0,0.3,0,0.5,0,0.7c0.3,0.9,1.2,1.4,2.1,1.1
				c0.9-0.3,1.4-1.2,1.1-2.1c-0.3-1-1.5-1.6-2.6-0.8L114.7,100.9z M82.6,110.9c-0.9,0.3-1.4,1.2-1.1,2.1c0.3,0.9,1.2,1.3,2.1,1.1
				c0.9-0.3,1.3-1.2,1.1-2.1c-0.1-0.2-0.2-0.4-0.4-0.6l-0.5-0.5l-0.7,0C83,110.8,82.8,110.8,82.6,110.9z M93,97l0.8,0.7
				c1.6,1.5,4.6,0.5,5.1-1.7l0.2-1.1L99,94.9l-0.2-0.6c-0.5-1.3-1.7-2.1-3.1-2l-0.8,0l-0.7,0.4c-1.2,0.7-1.7,2.2-1.3,3.5L93,97z
				 M87.5,69.5c-3.3,1.1-5.1,4.6-4,7.9c0.9,2.9,3.9,4.7,6.9,4.2l0.9-0.1l0.9-0.4c2.7-1.4,4.1-4.6,3.1-7.5
				C94.3,70.2,90.8,68.4,87.5,69.5z M91.6,81.2l-0.3,0L91,81.4l0-0.1l-1.3,0.1c-2.6,0.1-5-1.6-5.8-4c-1-3.1,0.7-6.4,3.8-7.4
				c3.1-1,6.4,0.7,7.4,3.8c0.8,2.5-0.2,5.2-2.3,6.7L91.6,81L91.6,81.2z M89,74.1c-0.7,0.2-1.1,1-0.9,1.7c0.2,0.5,0.6,0.9,1.2,0.9
				l0.6,0.1l0.4-0.4c0.4-0.4,0.6-0.9,0.4-1.5C90.5,74.3,89.7,73.9,89,74.1z"/>
			<path fill="#0690BA" d="M119.5,111.9c-5.6,1.8-11.6-1.3-13.4-6.9c-0.4-1.2-0.5-2.3-0.5-3.5l-3.8-1.4c-1.8,2.2-5.2,3.2-7.9,2.5
				l-2.2,3.4c0.7,0.9,1.3,2,1.6,3.2c1.8,5.6-1.3,11.6-6.9,13.5c-5.6,1.8-11.6-1.3-13.4-6.9c-1.8-5.6,1.3-11.6,6.9-13.4
				c1.5-0.5,3.1-0.6,4.7-0.4l3.8-5.9c-0.1-1.9,0.4-3.8,1.7-5.3l-1.5-4.6c-4.2-0.3-7.9-3.3-9.3-7.3c-1.8-5.6,1.3-11.6,6.9-13.4
				c5.6-1.8,11.6,1.3,13.4,6.9c1.3,4.1,0,8.6-3.2,11.4l1.5,4.6c1.9,0.5,3.5,1.7,4.5,3.4l4.8,2.3c1.2-1.1,4.3-1.7,5.8-2.2
				c5.6-1.8,11.6,1.3,13.5,6.9C128.2,104.1,125.1,110.1,119.5,111.9z M113.8,94.4c4.1-1.3,8.4,0.9,9.7,5
				C122.2,95.3,117.9,93.1,113.8,94.4C113.8,94.4,113.8,94.4,113.8,94.4C113.8,94.4,113.8,94.4,113.8,94.4z M80.8,105.1
				c-4.1,1.3-6.3,5.7-5,9.7C74.5,110.8,76.7,106.4,80.8,105.1C80.8,105.1,80.8,105.1,80.8,105.1C80.8,105.1,80.8,105.1,80.8,105.1z
				 M99.6,95.7l9.1,3.9l-0.1,1.1c-0.2,1.1-0.1,2.3,0.3,3.4c-0.5-1.5-0.5-3,0-4.5l0.6-2.2l0.3,0.1l0,0c0.2-0.3,0.3-0.5,0.5-0.7
				l-0.6,0.7l-8.9-3.5l-1.8,1.8c-0.3,1.5,0,3.3-1.6,3.8c-1.6,0.5-3.3,0.2-4.4-0.8l-1.2-1.1l-0.2-1.3c0-0.1,0-0.1-0.1-0.2l0.1,0.4
				l-5.5,8.5l-0.9-0.2c0.3,0.1,0.6,0.2,0.9,0.3l0,0l0.2-0.2l1.9,1.4c1.2,0.9,2.1,2.2,2.6,3.7c-0.4-1.1-0.9-2.1-1.7-2.9l-0.8-0.8
				l5-8.2l0.9,1.4c2,0.9,5,0,6-1.9L99.6,95.7z M94.4,96.2l0.4,0.4c0.9,0.8,2.4,0.3,2.7-0.9l0.1-0.5l-0.2-0.4
				c-0.2-0.7-0.9-1.1-1.7-1.1l-0.4,0L95,94c-0.6,0.4-0.9,1.1-0.7,1.8L94.4,96.2z M98,91.3c0.5,0.3,1,0.7,1.4,1.1
				C99,92,98.5,91.6,98,91.3z M90.8,83.3l2.6,8.1L92.8,92c0.2-0.2,0.4-0.4,0.6-0.5l1-0.6l1.2-0.1c0.3,0,0.5,0,0.8,0l-0.8-0.1
				l-2.7-8.2l-0.5,0.1l-0.6,0.3l-0.5,0.1L90.8,83.3z M87,68.1c4.1-1.3,8.4,0.9,9.7,5C95.5,69,91.1,66.8,87,68.1
				c-4,1.3-6.3,5.7-5,9.7C80.8,73.8,83,69.4,87,68.1z M117.2,104.7c-1.6,0.5-3.4-0.4-4-2c-0.1-0.4-0.2-0.9-0.1-1.4l0.2-1.2l1-0.8
				c1.7-1.3,4.2-0.5,4.9,1.5C119.7,102.4,118.8,104.2,117.2,104.7z M84.1,115.4c-1.6,0.5-3.4-0.4-4-2c-0.6-2,0.8-4.2,3.1-4.1l1.3,0
				l0.9,0.9c0.3,0.4,0.6,0.8,0.8,1.2C86.7,113.1,85.8,114.9,84.1,115.4z M90.4,78.4l-1.3-0.1c-1.1-0.1-2.1-0.9-2.4-2
				c-0.5-1.5,0.3-3.1,1.8-3.6c1.5-0.5,3.1,0.3,3.6,1.8c0.3,1.1,0,2.2-0.8,3L90.4,78.4z"/>
		</g>
		<path fill="#C3E8F2" d="M113.8,94.4c-1.7,0.6-3.2,1.7-4.1,3.1l-9.6-3.7c-0.7-1.9-2.6-3.1-4.6-3l-2.7-8.4c3.4-1.7,5.1-5.6,3.9-9.3
			c-1.3-4.1-5.7-6.3-9.7-5c-4,1.3-6.3,5.7-5,9.7c1.2,3.7,4.9,5.9,8.6,5.2l2.7,8.5c-1.7,1.1-2.5,3.1-1.9,5.1l-5.6,8.6
			c-1.6-0.6-3.4-0.7-5.1-0.2c-4.1,1.3-6.3,5.7-5,9.7c1.3,4.1,5.7,6.3,9.7,5c4.1-1.3,6.3-5.7,5-9.7c-0.5-1.5-1.4-2.8-2.6-3.7l4.9-7.6
			c1.2,1.1,2.9,1.5,4.5,1c1.6-0.5,2.7-1.8,3.1-3.4l8.4,3.3c-0.4,1.4-0.4,3,0.1,4.5c1.3,4.1,5.7,6.3,9.7,5c4.1-1.3,6.3-5.7,5-9.7
			C122.2,95.3,117.9,93.1,113.8,94.4z M85.3,76.8c-0.7-2.3,0.5-4.8,2.8-5.5c2.3-0.8,4.8,0.5,5.5,2.8c0.6,1.9-0.2,4-1.8,5l-0.5-1.5
			c0.8-0.7,1.2-1.9,0.8-3c-0.5-1.5-2.1-2.3-3.6-1.8c-1.5,0.5-2.3,2.1-1.8,3.6c0.4,1.1,1.3,1.8,2.4,2l0.5,1.6
			C87.7,79.9,85.9,78.7,85.3,76.8z M87.6,111c0.8,2.5-0.6,5.1-3,5.9c-2.5,0.8-5.1-0.6-5.9-3c-0.8-2.4,0.6-5.1,3-5.9
			c0.8-0.3,1.7-0.3,2.5-0.1l-0.9,1.4c-0.3,0-0.7,0-1.1,0.1c-1.6,0.5-2.5,2.3-2,4c0.5,1.6,2.3,2.5,4,2c1.6-0.5,2.5-2.3,2-3.9
			c-0.2-0.5-0.4-0.9-0.8-1.2l0.9-1.3C86.8,109.5,87.3,110.2,87.6,111z M117.6,106.2c-2.5,0.8-5.1-0.6-5.9-3
			c-0.3-0.8-0.3-1.7-0.1-2.5l1.5,0.6c-0.1,0.5-0.1,1,0.1,1.4c0.5,1.7,2.3,2.5,4,2c1.7-0.5,2.6-2.3,2-4c-0.5-1.6-2.3-2.5-4-2
			c-0.3,0.1-0.7,0.3-0.9,0.5l-1.6-0.6c0.5-0.6,1.2-1.1,2.1-1.4c2.5-0.8,5.1,0.6,5.9,3C121.4,102.8,120.1,105.4,117.6,106.2z"/>
	</g>
	<g>
		<g>
			<path fill="#FFFFFF" d="M112.9,37.8l0.6,0.4c1,0.7,2.2,1.1,3.5,1.1c3.5,0,6.3-2.8,6.3-6.2c0-3.5-2.8-6.3-6.2-6.3
				c-3.5,0-6.3,2.8-6.3,6.3c0,1.4,0.5,2.8,1.4,3.9l0.3,0.3l-0.6-1.1c-0.6-0.9-0.9-2-0.9-3.1c0-3.4,2.8-6.2,6.2-6.1
				c3.4,0,6.1,2.8,6.1,6.1c0,3.4-2.8,6.1-6.2,6.1c-1.1,0-2.2-0.3-3.1-0.9L112.9,37.8L112.9,37.8z M110.7,67.7c0,3.4,2.8,6.3,6.3,6.3
				c3.4,0,6.3-2.8,6.3-6.3c0-3.5-2.8-6.3-6.3-6.3c-1.2,0-2.5,0.4-3.5,1.1l-0.6,0.4l0,0l0.9-0.5c1-0.6,2-0.9,3.1-0.9
				c3.4,0,6.1,2.8,6.1,6.2c0,3.4-2.7,6.2-6.1,6.2c-3.4,0-6.1-2.8-6.1-6.2c0-1.1,0.3-2.2,0.9-3.1l0.7-1.1l-0.3,0.3
				C111.1,64.9,110.7,66.3,110.7,67.7z M115.6,34.2l0.6,0.3c0.2,0.1,0.5,0.2,0.7,0.2c0.9,0,1.7-0.7,1.7-1.7c0-0.9-0.7-1.7-1.7-1.7
				c-1.1,0-2,1-1.6,2.2L115.6,34.2z M115.3,67.8c0,0.9,0.7,1.7,1.7,1.7c0.9,0,1.7-0.8,1.7-1.7c0-0.9-0.8-1.6-1.7-1.7
				c-0.2,0-0.5,0.1-0.7,0.2l-0.6,0.3l-0.2,0.6C115.3,67.4,115.3,67.6,115.3,67.8z M105.2,53.6l0.9-0.5c1.9-1.1,1.9-4.3,0-5.4
				l-0.9-0.6l-0.1,0.1l-0.7,0c-1.4,0.1-2.5,1-2.9,2.3l-0.2,0.8l0.2,0.8c0.3,1.3,1.5,2.3,2.9,2.3L105.2,53.6z M77.4,50.3
				c0,3.5,2.8,6.3,6.3,6.3c3.1,0,5.7-2.3,6.2-5.3l0.2-0.9l-0.1-1c-0.5-3-3.1-5.3-6.2-5.3C80.2,44.1,77.4,46.9,77.4,50.3z M89.8,50
				l-0.1,0.3l0.1,0.3l-0.1,0l-0.4,1.2c-0.7,2.5-3,4.3-5.7,4.3c-3.2,0-5.9-2.6-5.9-5.9c0-3.3,2.6-5.9,5.9-5.8c2.6,0,4.9,1.8,5.6,4.3
				l0.3,1.2L89.8,50z M82.3,50.4c0,0.8,0.6,1.4,1.4,1.4c0.5,0,1-0.3,1.3-0.8l0.3-0.6l-0.3-0.5c-0.2-0.5-0.7-0.8-1.3-0.8
				C82.9,49,82.3,49.6,82.3,50.4z"/>
			<path fill="#0690BA" d="M127.6,33c0,5.9-4.8,10.7-10.7,10.7c-1.2,0-2.4-0.2-5.3-0.8l-2.5,3.1c3.2,2.6,3.2,6.1,1.7,8.5l2.5,3.1
				c1.1-0.4,2.3-0.6,3.5-0.6c5.9,0,10.7,4.8,10.7,10.7c0,5.9-4.8,10.7-10.7,10.7c-5.9,0-10.7-4.8-10.7-10.7c0-1.6,0.4-3.2,1-4.6
				l-4.4-5.4c-1.9-0.5-3.5-1.6-4.6-3.2l-4.8,0C91.9,58.4,88,61,83.7,61C77.8,61,73,56.2,73,50.3c0-5.9,4.8-10.7,10.7-10.6
				c4.3,0,8.2,2.7,9.8,6.6l4.8,0c1.1-1.6,2.7-2.8,4.6-3.2l4.4-5.4c-0.7-1.4-1-3-1-4.6c0-5.9,4.8-10.7,10.7-10.7
				C122.9,22.4,127.6,27.2,127.6,33z M109.2,33c0-4.3,3.5-7.7,7.7-7.7C112.7,25.3,109.2,28.8,109.2,33C109.2,33,109.2,33,109.2,33
				C109.2,33,109.2,33,109.2,33z M109.2,67.7c0,4.3,3.5,7.7,7.7,7.7C112.6,75.5,109.2,72,109.2,67.7
				C109.2,67.7,109.2,67.7,109.2,67.7C109.2,67.7,109.2,67.7,109.2,67.7z M106.1,46.9l6.5-7.4l1,0.5c1,0.5,2.1,0.7,3.3,0.8
				c-1.5,0-3-0.5-4.3-1.3l-1.9-1.3l0.2-0.3l0,0c-0.2-0.3-0.4-0.5-0.5-0.7l0.5,0.8l-6,7.4l1.1,2.3c1.4,0.8,3.1,1.1,3.1,2.7
				c0,1.7-0.8,3.2-2.2,4l-1.4,0.8l-1.3-0.2c-0.1,0-0.1,0-0.2,0l0.4,0.1l6.4,7.9l-0.5,0.8c0.2-0.3,0.3-0.5,0.5-0.7l0,0l-0.2-0.2
				l1.9-1.4c1.3-0.8,2.8-1.3,4.3-1.3c-1.1,0-2.3,0.3-3.3,0.7l-1,0.5l-6.2-7.3l1.6-0.4c1.5-1.6,1.5-4.7,0-6.3L106.1,46.9z M105,52.1
				l0.5-0.3c1.1-0.6,1-2.2,0-2.9l-0.4-0.2l-0.5,0c-0.7,0-1.4,0.6-1.5,1.2l-0.1,0.4l0.1,0.4c0.2,0.7,0.8,1.2,1.5,1.2L105,52.1z
				 M101.4,47.1c0.4-0.4,0.9-0.8,1.5-1C102.4,46.3,101.9,46.7,101.4,47.1z M91.6,51.5l8.5,0l0.4,0.8c-0.1-0.3-0.2-0.5-0.3-0.8
				l-0.3-1.2l0.3-1.2c0.1-0.3,0.1-0.5,0.3-0.7l-0.4,0.7l-8.6,0l-0.1,0.5l0.1,0.7l-0.1,0.5L91.6,51.5z M75.9,50.3
				c0-4.3,3.5-7.7,7.7-7.7C79.4,42.6,75.9,46.1,75.9,50.3c0,4.2,3.5,7.7,7.7,7.7C79.4,58.1,75.9,54.6,75.9,50.3z M120.1,33
				c0,1.7-1.4,3.1-3.1,3.1c-0.5,0-0.9-0.1-1.4-0.4l-1.1-0.6l-0.4-1.2c-0.7-2,0.8-4.2,2.9-4.2C118.7,29.9,120.1,31.3,120.1,33z
				 M120.1,67.8c0,1.7-1.4,3.1-3.1,3.1c-2.1,0-3.7-2-3-4.2l0.4-1.2l1.1-0.6c0.4-0.2,0.9-0.3,1.4-0.3C118.7,64.6,120.1,66,120.1,67.8
				z M86.8,50.3l-0.5,1.2c-0.5,1-1.5,1.7-2.6,1.7c-1.6,0-2.8-1.3-2.8-2.9c0-1.6,1.3-2.8,2.8-2.8c1.1,0,2.1,0.7,2.6,1.7L86.8,50.3z"
				/>
		</g>
		<path fill="#C3E8F2" d="M109.2,33c0,1.8,0.6,3.5,1.7,4.8l-6.5,7.9c-2,0.1-3.8,1.5-4.3,3.4l-8.9,0c-0.6-3.7-3.8-6.6-7.6-6.6
			c-4.3,0-7.7,3.4-7.7,7.7c0,4.2,3.4,7.7,7.7,7.7c3.9,0,7.1-2.9,7.7-6.6l8.9,0c0.5,1.9,2.2,3.3,4.3,3.4l6.5,7.9
			c-1.1,1.3-1.7,3-1.7,4.8c0,4.3,3.5,7.7,7.7,7.7c4.3,0,7.7-3.5,7.7-7.7c0-4.3-3.4-7.7-7.7-7.7c-1.6,0-3.1,0.5-4.3,1.3l-5.7-7
			c1.4-0.8,2.3-2.3,2.3-3.9c0-1.7-0.9-3.2-2.3-4l5.7-7c1.2,0.8,2.7,1.3,4.3,1.3c4.3,0,7.7-3.5,7.7-7.7c0-4.3-3.5-7.7-7.7-7.7
			C112.7,25.3,109.2,28.8,109.2,33z M83.7,54.7c-2.4,0-4.4-2-4.4-4.4c0-2.4,2-4.4,4.4-4.4c2,0,3.7,1.4,4.2,3.2l-1.6,0
			c-0.4-1-1.4-1.7-2.6-1.7c-1.6,0-2.8,1.3-2.8,2.8c0,1.6,1.3,2.9,2.8,2.9c1.2,0,2.2-0.7,2.6-1.7l1.6,0
			C87.4,53.4,85.7,54.7,83.7,54.7z M116.9,63.1c2.6,0,4.7,2.1,4.7,4.7c0,2.6-2.1,4.7-4.7,4.7c-2.6,0-4.7-2.1-4.7-4.7
			c0-0.9,0.3-1.7,0.7-2.4l1.1,1.3c-0.1,0.3-0.2,0.7-0.2,1.1c0,1.7,1.4,3.1,3.1,3.1c1.7,0,3.1-1.4,3.1-3.1c0-1.7-1.4-3.1-3.1-3.1
			c-0.5,0-1,0.1-1.4,0.3l-1-1.2C115.2,63.3,116.1,63.1,116.9,63.1z M121.6,33c0,2.6-2.1,4.7-4.7,4.7c-0.9,0-1.7-0.2-2.4-0.7l1-1.2
			c0.4,0.2,0.9,0.3,1.4,0.4c1.7,0,3.1-1.4,3.1-3.1c0-1.7-1.4-3.1-3.1-3.1c-1.7,0-3.1,1.4-3.1,3.1c0,0.4,0.1,0.7,0.2,1l-1.1,1.3
			c-0.4-0.7-0.7-1.5-0.7-2.4c0-2.6,2.1-4.7,4.7-4.7C119.5,28.4,121.6,30.4,121.6,33z"/>
	</g>
	<g>
		<g>
			<path fill="#FFFFFF" d="M55.1,16.1l0.6-0.4c1-0.8,1.7-1.8,2.1-3c1.1-3.3-0.7-6.8-4-7.9c-3.3-1.1-6.8,0.7-7.9,4
				c-1.1,3.3,0.7,6.8,4,7.9c1.4,0.4,2.8,0.4,4.1-0.1l0.4-0.2l-1.2,0.3c-1.1,0.2-2.2,0.2-3.2-0.1c-3.2-1.1-5-4.6-3.9-7.8
				c1.1-3.2,4.5-5,7.7-3.9c3.2,1.1,5,4.5,3.9,7.7c-0.3,1.1-1,2-1.8,2.7L55.1,16.1L55.1,16.1z M82.9,27.4c3.3,1.1,6.8-0.7,7.9-4
				c1.1-3.3-0.7-6.8-4-7.9c-3.3-1.1-6.8,0.7-7.9,4c-0.4,1.2-0.4,2.5-0.1,3.7l0.2,0.7l0,0l-0.2-1c-0.3-1.1-0.2-2.2,0.1-3.2
				c1.1-3.2,4.5-5,7.7-3.9c3.2,1,5,4.5,3.9,7.7c-1.1,3.2-4.5,5-7.8,3.9c-1-0.3-2-0.9-2.7-1.8l-0.8-1l0.2,0.3
				C80.3,26.1,81.5,27,82.9,27.4z M52.5,12.3l0.5-0.5c0.2-0.2,0.3-0.4,0.4-0.6c0.3-0.9-0.2-1.8-1.1-2.1c-0.9-0.3-1.8,0.2-2.1,1.1
				c-0.4,1,0.3,2.2,1.6,2.2L52.5,12.3z M84.3,23c0.9,0.3,1.8-0.2,2.1-1.1c0.3-0.9-0.2-1.8-1.1-2.1c-0.9-0.3-1.8,0.2-2.1,1.1
				c-0.1,0.2-0.1,0.5-0.1,0.7l0.1,0.7l0.5,0.4C84,22.9,84.1,23,84.3,23z M67.7,28.2l-0.2-1.1c-0.5-2.2-3.5-3.1-5.1-1.7l-0.8,0.7
				l0.1,0.1l-0.2,0.6c-0.4,1.3,0.2,2.7,1.3,3.5l0.7,0.4l0.8,0c1.4,0.1,2.7-0.8,3.1-2L67.7,28.2z M56,53.7c3.3,1.1,6.8-0.7,7.9-4
				c1-2.9-0.4-6.2-3.1-7.5l-0.8-0.4L59,41.5c-3-0.5-6,1.3-7,4.3C50.9,49,52.7,52.6,56,53.7z M59.6,41.7l0.3,0.2l0.3,0l-0.1,0.1
				l1.1,0.7c2.2,1.5,3.2,4.2,2.3,6.7c-1,3.1-4.3,4.7-7.4,3.8c-3.1-1-4.8-4.3-3.7-7.4c0.8-2.5,3.2-4.2,5.8-4l1.3,0.1L59.6,41.7z
				 M57.6,49c0.7,0.2,1.5-0.2,1.7-0.9c0.2-0.5,0-1.1-0.4-1.4l-0.4-0.4l-0.6,0.1c-0.5,0-1,0.4-1.2,0.9C56.4,48,56.8,48.8,57.6,49z"/>
			<path fill="#0690BA" d="M55.1,0.5c5.6,1.8,8.7,7.9,6.8,13.5c-0.4,1.2-0.9,2.2-1.7,3.2l2.2,3.4c2.8-0.7,6.1,0.4,7.9,2.6l3.8-1.4
				c0-1.2,0.2-2.4,0.5-3.5c1.8-5.6,7.9-8.7,13.5-6.8c5.6,1.8,8.7,7.8,6.8,13.5c-1.8,5.6-7.9,8.7-13.5,6.8c-1.5-0.5-2.9-1.3-4-2.4
				l-6.5,2.5c-1,1.6-2.6,2.9-4.5,3.4l-1.5,4.6c3.2,2.8,4.5,7.3,3.2,11.4c-1.8,5.6-7.9,8.7-13.5,6.8C49.1,56,46,50,47.8,44.4
				c1.3-4.1,5.1-7,9.3-7.3l1.5-4.6c-1.2-1.5-1.8-3.4-1.6-5.4l-3.8-5.9c-1.6,0.2-3.2,0.1-4.7-0.4C42.9,19,39.8,13,41.6,7.4
				C43.5,1.8,49.5-1.3,55.1,0.5z M49.4,18c-4-1.3-6.3-5.7-4.9-9.8C43.1,12.3,45.3,16.7,49.4,18C49.4,18,49.4,18,49.4,18
				C49.4,18,49.4,18,49.4,18z M82.4,28.8c4.1,1.3,8.4-0.9,9.8-5C90.8,27.9,86.5,30.1,82.4,28.8C82.4,28.8,82.4,28.8,82.4,28.8
				C82.4,28.8,82.4,28.8,82.4,28.8z M61.7,25.3l-5.1-8.5l0.8-0.8c0.8-0.8,1.4-1.8,1.8-2.9c-0.5,1.5-1.4,2.7-2.6,3.7l-1.8,1.4
				l-0.2-0.3l0,0c-0.3,0.1-0.6,0.2-0.9,0.3l0.9-0.2l5.2,8l2.5-0.4c1.2-1,2-2.7,3.6-2.1c1.6,0.5,2.8,1.8,3.1,3.3l0.3,1.6l-0.6,1.1
				c0,0.1-0.1,0.1-0.1,0.2l0.2-0.4l9.5-3.6l0.6,0.7c-0.2-0.2-0.4-0.5-0.5-0.8l0,0l-0.3,0.1l-0.7-2.2c-0.4-1.5-0.4-3,0.1-4.5
				c-0.3,1.1-0.5,2.2-0.3,3.4l0.1,1.1l-8.9,3.7l0.1-1.7c-1-1.9-4.1-2.9-6-2L61.7,25.3z M66.2,28l-0.1-0.5c-0.2-1.2-1.8-1.7-2.7-0.9
				L63,26.9l-0.1,0.4c-0.2,0.7,0.1,1.5,0.7,1.8l0.4,0.2l0.4,0c0.7,0,1.4-0.4,1.6-1.1L66.2,28z M60.4,29.8c-0.3-0.5-0.4-1.1-0.5-1.7
				C59.9,28.7,60.1,29.3,60.4,29.8z M61.5,40.5l2.6-8.1l0.8-0.1c-0.3,0-0.5,0-0.8,0L63,32.3l-1-0.7c-0.2-0.1-0.4-0.3-0.6-0.5
				l0.6,0.6l-2.7,8.2l0.5,0.2l0.6,0.1l0.4,0.2L61.5,40.5z M55.6,55c-4.1-1.3-6.3-5.7-4.9-9.8C49.3,49.3,51.5,53.7,55.6,55
				c4,1.3,8.4-0.9,9.8-4.9C64,54.1,59.6,56.4,55.6,55z M52.8,7.7c1.6,0.5,2.6,2.3,2,4c-0.1,0.4-0.4,0.9-0.8,1.2l-0.9,0.9l-1.3,0
				c-2.2,0.1-3.7-2-3.1-4.1C49.3,8.1,51.1,7.2,52.8,7.7z M85.8,18.5c1.6,0.5,2.6,2.3,2,3.9c-0.6,2-3.1,2.9-4.9,1.5l-1-0.8l-0.2-1.3
				c-0.1-0.5,0-1,0.1-1.4C82.4,18.8,84.1,17.9,85.8,18.5z M58.9,44.7l1,0.9c0.8,0.8,1.1,1.9,0.8,3c-0.5,1.5-2.1,2.3-3.6,1.8
				c-1.5-0.5-2.3-2.1-1.8-3.6c0.4-1.1,1.3-1.8,2.4-1.9L58.9,44.7z"/>
		</g>
		<path fill="#C3E8F2" d="M49.4,18c1.7,0.6,3.5,0.5,5.1-0.1l5.5,8.6c-0.6,2,0.3,4,1.9,5.1l-2.8,8.4c-3.7-0.6-7.4,1.5-8.6,5.2
			c-1.3,4.1,0.9,8.4,4.9,9.8c4,1.3,8.4-0.9,9.8-4.9c1.2-3.7-0.5-7.6-3.9-9.3l2.8-8.4c2,0.1,3.9-1.1,4.6-3l9.6-3.7
			c0.9,1.4,2.3,2.6,4.1,3.1c4.1,1.3,8.4-0.9,9.8-5c1.3-4.1-0.9-8.4-5-9.8c-4.1-1.3-8.4,0.9-9.8,4.9c-0.5,1.5-0.5,3.1-0.1,4.5
			l-8.4,3.3c-0.3-1.5-1.4-2.9-3-3.4c-1.6-0.5-3.3-0.1-4.5,0.9l-4.9-7.6c1.2-0.9,2.1-2.2,2.6-3.7c1.3-4.1-0.9-8.4-5-9.7
			c-4.1-1.3-8.4,0.9-9.7,5C43.1,12.3,45.3,16.7,49.4,18z M62.1,49.1c-0.8,2.3-3.2,3.6-5.5,2.8c-2.3-0.8-3.6-3.2-2.8-5.5
			c0.6-1.9,2.5-3.1,4.4-3l-0.5,1.5c-1.1,0.1-2,0.9-2.4,1.9c-0.5,1.5,0.3,3.1,1.8,3.6c1.5,0.5,3.1-0.3,3.6-1.8c0.4-1.1,0-2.3-0.8-3
			l0.5-1.6C62,45.1,62.8,47.1,62.1,49.1z M80.3,20c0.8-2.5,3.4-3.8,5.9-3c2.4,0.8,3.8,3.5,3,5.9c-0.8,2.4-3.4,3.8-5.9,3
			c-0.8-0.3-1.5-0.8-2-1.4l1.6-0.6c0.3,0.2,0.6,0.4,1,0.5c1.6,0.5,3.4-0.4,3.9-2c0.5-1.6-0.4-3.4-2-3.9c-1.6-0.5-3.4,0.4-4,2
			c-0.1,0.5-0.2,1-0.1,1.4l-1.5,0.6C80.1,21.7,80.1,20.8,80.3,20z M53.2,6.2c2.5,0.8,3.8,3.4,3,5.9c-0.3,0.8-0.7,1.5-1.4,2.1
			L54,12.9c0.3-0.3,0.6-0.7,0.8-1.2c0.5-1.7-0.4-3.4-2-4c-1.6-0.5-3.4,0.4-4,2c-0.5,1.6,0.4,3.4,2,3.9c0.3,0.1,0.7,0.2,1,0.1
			l0.9,1.4c-0.8,0.2-1.6,0.2-2.5-0.1c-2.5-0.8-3.8-3.4-3-5.9C48.1,6.8,50.8,5.4,53.2,6.2z"/>
	</g>
	<g>
		<g>
			<path fill="#FFFFFF" d="M16.8,63.9l-0.3-0.7c-0.4-1.2-1.2-2.2-2.2-2.9c-2.8-2-6.7-1.4-8.7,1.4c-2,2.8-1.4,6.7,1.4,8.8
				c2.8,2,6.7,1.4,8.8-1.4c0.8-1.2,1.3-2.5,1.2-4l0-0.4L16.8,66c-0.1,1.1-0.5,2.1-1.1,3c-2,2.8-5.9,3.4-8.6,1.3
				c-2.8-2-3.3-5.8-1.4-8.6c2-2.7,5.8-3.3,8.6-1.4c0.9,0.6,1.6,1.5,2,2.6L16.8,63.9L16.8,63.9z M36.2,41c2-2.8,1.4-6.7-1.4-8.8
				c-2.8-2-6.7-1.4-8.8,1.4c-2,2.8-1.4,6.7,1.4,8.7c1,0.7,2.2,1.2,3.5,1.2l0.7,0l0-0.1l-1.1-0.1c-1.1-0.1-2.1-0.5-3-1.1
				c-2.7-2-3.3-5.8-1.3-8.6c2-2.8,5.8-3.4,8.6-1.4C37.5,34.4,38.1,38.2,36.2,41c-0.7,0.8-1.6,1.5-2.6,2l-1.2,0.5l0.4-0.1
				C34.1,43,35.3,42.2,36.2,41z M12.4,65.2l-0.3-0.6c-0.1-0.2-0.3-0.4-0.5-0.6c-0.7-0.5-1.8-0.4-2.3,0.4c-0.5,0.7-0.4,1.8,0.4,2.3
				c0.9,0.7,2.2,0.4,2.6-0.9L12.4,65.2z M32.5,38.3c0.5-0.7,0.4-1.8-0.4-2.3c-0.7-0.5-1.8-0.4-2.3,0.4c-0.5,0.7-0.3,1.8,0.4,2.3
				c0.2,0.1,0.4,0.2,0.7,0.3l0.7,0.1l0.5-0.4C32.2,38.6,32.4,38.4,32.5,38.3z M32.3,55.6l-1.1-0.1c-2.2-0.2-4,2.3-3.2,4.4l0.4,1
				l0.1,0l0.5,0.4c1.1,0.8,2.6,0.7,3.7-0.2l0.6-0.5l0.3-0.8c0.5-1.3,0.1-2.8-1-3.6L32.3,55.6z M52.9,74.6c2-2.8,1.4-6.7-1.4-8.7
				c-2.5-1.8-6-1.5-8.1,0.7l-0.7,0.7l-0.5,0.8c-1.4,2.7-0.6,6.1,1.9,7.9C46.9,78.1,50.8,77.4,52.9,74.6z M42.6,67.6l0.3-0.2l0.1-0.3
				l0.1,0.1l1-0.8c2.1-1.6,5-1.7,7.1-0.2c2.6,1.9,3.2,5.6,1.3,8.2c-1.9,2.6-5.6,3.2-8.2,1.3c-2.1-1.5-3-4.3-2-6.8l0.5-1.2L42.6,67.6
				z M48.9,71.8c0.4-0.6,0.3-1.5-0.3-1.9c-0.4-0.3-1-0.3-1.5-0.1l-0.5,0.3l-0.1,0.6c-0.1,0.5,0.1,1.1,0.5,1.4
				C47.6,72.5,48.5,72.4,48.9,71.8z"/>
			<path fill="#0690BA" d="M2,59.1c3.5-4.8,10.1-5.8,14.9-2.3c1,0.7,1.8,1.6,2.5,2.6l3.9-1c0.2-2.8,2.3-5.7,4.9-6.7l-0.2-4
				c-1.1-0.3-2.2-0.9-3.2-1.6C20.1,42.5,19,35.8,22.5,31c3.5-4.8,10.1-5.8,14.9-2.3c4.7,3.5,5.8,10.1,2.3,14.9
				c-0.9,1.3-2.1,2.3-3.5,3.1l0.4,7c1.2,1.5,1.9,3.4,1.8,5.3l3.9,2.8c3.6-2.2,8.3-2,11.8,0.5c4.8,3.5,5.8,10.2,2.3,14.9
				C53,82,46.3,83,41.5,79.6c-3.5-2.5-5.1-7-4.1-11.1l-3.9-2.8c-1.8,0.7-3.8,0.7-5.6-0.1l-6.8,1.8c-0.3,1.6-0.9,3.1-1.9,4.3
				C15.8,76.4,9.2,77.5,4.4,74C-0.4,70.6-1.4,63.9,2,59.1z M16.9,70c-2.5,3.4-7.4,4.2-10.8,1.7C9.6,74.1,14.4,73.4,16.9,70
				C16.9,70,16.9,70,16.9,70C16.9,70,16.9,70,16.9,70z M37.4,41.9c2.5-3.5,1.7-8.3-1.7-10.8C39.1,33.6,39.9,38.4,37.4,41.9
				C37.4,41.9,37.4,41.9,37.4,41.9C37.4,41.9,37.4,41.9,37.4,41.9z M27.6,60.5L18,62.7l-0.6-1c-0.5-1-1.3-1.9-2.2-2.6
				c1.2,0.9,2.1,2.2,2.7,3.6l0.8,2.2L18.4,65l0,0c0,0.3,0,0.6,0,0.9l0.1-0.9l9.3-2.5l0.4-2.5c-0.6-1.4-1.9-2.7-0.9-4.1
				c1-1.4,2.5-2.1,4.1-1.9l1.6,0.2l0.9,0.9c0,0.1,0.1,0.1,0.2,0.1L33.7,55l-0.5-10.1l0.9-0.4c-0.3,0.1-0.6,0.2-0.9,0.3l0,0l0,0.3
				l-2.3,0c-1.5-0.1-3-0.6-4.2-1.5c0.9,0.7,2,1.1,3.1,1.3l1.1,0.2l0.7,9.6L30,54.1c-2.1,0.4-4,3-3.7,5.1L27.6,60.5z M31.6,57.1
				L31,57c-1.2-0.1-2.2,1.2-1.7,2.3l0.2,0.4l0.4,0.3c0.6,0.4,1.4,0.3,2-0.1l0.3-0.3l0.1-0.4c0.3-0.6,0-1.4-0.5-1.9L31.6,57.1z
				 M31.5,63.1c-0.6,0.1-1.2,0.1-1.8-0.1C30.3,63.2,30.9,63.2,31.5,63.1z M42.1,65.3l-6.9-5l0.1-0.8c-0.1,0.3-0.1,0.5-0.2,0.8
				l-0.4,1.1l-0.9,0.8c-0.2,0.2-0.4,0.3-0.6,0.4l0.7-0.4l7,5.1l0.4-0.4l0.3-0.6l0.4-0.4L42.1,65.3z M54,75.5
				c-2.5,3.4-7.4,4.2-10.8,1.7C46.7,79.7,51.5,79,54,75.5c2.5-3.4,1.7-8.3-1.7-10.8C55.8,67.2,56.5,72.1,54,75.5z M8.1,63.6
				c1-1.4,3-1.7,4.4-0.7c0.4,0.3,0.7,0.7,0.9,1.1l0.6,1.1l-0.4,1.2c-0.6,2.1-3.1,2.9-4.8,1.7C7.4,66.9,7.1,65,8.1,63.6z M28.6,35.5
				c1-1.4,3-1.7,4.4-0.7c1.7,1.2,1.8,3.8-0.1,5.1l-1,0.7l-1.3-0.2c-0.5-0.1-0.9-0.3-1.3-0.5C27.9,38.8,27.6,36.9,28.6,35.5z
				 M45.3,69.1l1.1-0.6c1-0.6,2.2-0.5,3.1,0.2c1.3,0.9,1.5,2.7,0.6,4c-0.9,1.3-2.7,1.5-4,0.6c-0.9-0.7-1.3-1.8-1.1-2.9L45.3,69.1z"
				/>
		</g>
		<path fill="#C3E8F2" d="M16.9,70c1.1-1.5,1.6-3.2,1.5-4.9l9.9-2.6c1.7,1.1,3.9,1,5.5-0.3l7.2,5.2c-1.7,3.3-0.8,7.5,2.3,9.8
			c3.5,2.5,8.3,1.8,10.8-1.7c2.5-3.4,1.8-8.3-1.7-10.8c-3.1-2.3-7.4-1.9-10.1,0.8l-7.2-5.2c0.7-1.8,0.2-4-1.4-5.3l-0.6-10.2
			c1.7-0.4,3.2-1.4,4.2-2.9c2.5-3.5,1.7-8.3-1.7-10.8c-3.4-2.5-8.3-1.8-10.8,1.7c-2.5,3.4-1.8,8.3,1.7,10.8c1.3,0.9,2.8,1.4,4.3,1.5
			l0.5,9c-1.6-0.2-3.2,0.5-4.2,1.9c-1,1.4-1.1,3.1-0.5,4.5l-8.7,2.3c-0.5-1.4-1.4-2.7-2.7-3.6c-3.5-2.5-8.3-1.7-10.8,1.7
			c-2.5,3.4-1.8,8.3,1.7,10.8C9.6,74.2,14.4,73.4,16.9,70z M50.4,67.4c2,1.4,2.4,4.2,1,6.1c-1.4,2-4.2,2.4-6.1,1
			c-1.6-1.2-2.2-3.3-1.5-5.1l1.3,1c-0.2,1.1,0.2,2.2,1.1,2.9c1.3,0.9,3.1,0.6,4-0.6c0.9-1.3,0.7-3.1-0.6-4c-0.9-0.7-2.2-0.7-3.1-0.2
			L45,67.5C46.6,66.3,48.7,66.2,50.4,67.4z M28.3,41.1c-2.1-1.5-2.5-4.5-1-6.5c1.5-2.1,4.5-2.5,6.5-1c2.1,1.5,2.6,4.5,1,6.5
			c-0.5,0.7-1.2,1.2-1.9,1.5l-0.1-1.7c0.3-0.2,0.6-0.4,0.8-0.7c1-1.4,0.7-3.4-0.7-4.4c-1.4-1-3.4-0.7-4.4,0.7
			c-1,1.4-0.7,3.4,0.7,4.4c0.4,0.3,0.9,0.5,1.3,0.5l0.1,1.6C29.9,41.9,29.1,41.6,28.3,41.1z M6.9,62.7c1.5-2.1,4.5-2.6,6.5-1
			c0.7,0.5,1.2,1.2,1.6,1.9L13.4,64c-0.2-0.4-0.5-0.8-0.9-1.1c-1.4-1-3.4-0.7-4.4,0.7c-1,1.4-0.7,3.4,0.7,4.4c1.4,1,3.4,0.7,4.4-0.7
			c0.2-0.3,0.4-0.6,0.5-1l1.7-0.4c-0.1,0.8-0.3,1.6-0.9,2.3c-1.5,2.1-4.4,2.5-6.5,1C5.8,67.7,5.4,64.7,6.9,62.7z"/>
	</g>
</g>
</svg>
