<?xml version="1.0" encoding="utf-8"?>
<!-- Generator: Adobe Illustrator 18.1.1, SVG Export Plug-In . SVG Version: 6.00 Build 0)  -->
<svg version="1.1" id="Layer_1" xmlns="http://www.w3.org/2000/svg" xmlns:xlink="http://www.w3.org/1999/xlink" x="0px" y="0px"
	 viewBox="0 0 500 168" enable-background="new 0 0 500 168" xml:space="preserve">
<path fill="#619F42" d="M313.1,40.7c0,2.2-2.1,4.8-4.6,4.8c-4.7,0-10.4-5.2-10.4-9c0-2.5,3.7-4.7,6.9-4.7
	C309.6,31.8,313.3,37.4,313.1,40.7z M499,85c-5.2,7.7-15.1,9.4-18.2,9.4c-7.1,0-12.7-3.7-15.1-8.2c-7.6,4-15.1,7.7-24.2,7.7
	c-5.9,0-10.2-2.5-12.2-6.6c-5.5,3.6-12.8,6.8-19.1,7.1c-9.4,0.4-15-4.1-17.9-11.6c-7.9,5.2-19.7,9.8-31.5,10.4
	c-8,0.4-18.6-0.6-24.2-6.9c-0.2,0.2-0.4,0.4-0.6,0.5c-5.1,4.2-12.4,7.5-20.5,7.5c-17,0-18-15.3-17.3-26c0-2.1,0-5.1,0.6-8
	c-1.5,0.2-3.1,0.4-4.6,0.5c-3,0.3-6,0.6-8.8,0.9c-1,0.2-2,0.3-3,0.4c-1,0.1-2,0.2-2.9,0.2c-0.4,2.8-0.6,5.7-0.7,8.6
	c-0.1,2.9-0.1,5.7-0.1,8.4c0,3.6,0.1,7,0.3,10.4c0.2,3.4,0.4,6.5,0.8,9.4c0.4,2.9,0.7,5.4,1.1,7.6c0.4,2.2,0.9,3.9,1.4,5.1
	c0.3,0.7,0.8,1.4,1.6,1.9c0.2,0.2,0.4,0.5,0.7,0.9c0.3,0.4,0.6,0.7,0.9,1.2c0.6,1.1,0.9,2.1,0.9,3c0,1.3-0.6,2.5-1.9,3.6
	c-1.5,1.2-3,1.8-4.4,1.8c-1.4,0-2.6-0.3-3.6-0.9c-1.5-0.8-2.8-1.8-3.7-3c-1-1.2-1.8-2.7-2.5-4.6c-0.7-2.3-1.3-4.8-1.9-7.7
	c-0.5-2.8-1-5.8-1.3-8.9c0,0,0,0,0,0c-1.3,0.5-3.4,0.9-6.5,1.4l-0.5,0.1c-2.7,0.5-4.7,0.9-6.9,1.6c0,0,0.2,15.8,0.2,22.9
	c0,15.7-4,27.9-10.1,34.8c-5.5,6.2-11.9,7.5-14.4,7.6c-10.7,0.3-24.6-9.5-24.6-24.4c0-17.3,13-36.8,34.8-45.7
	c-0.5-6-1.1-12.7-2.3-16.4c-10.5,7.5-20.3,13-24.8,13c-5.1,0-8.8-3.6-11.3-8.6c-10,5.3-17.8,5.2-23.1,5.2c-7.7,0-10.9-4.7-15.1-12.4
	c-16.8,8.8-27.7,14.3-31,14.3c-2.5,0-4.4-1-5.8-2.9c-3.7,1.3-7,1.9-9.7,1.9c-7.9,0-14.8-2.1-20.6-9.6c-5.7-7.4-9.2-14.4-11.8-25.5
	c-2.3-9.8-2.8-18.7-3-30L66.9,83.7c-0.6,7.1-1.1,6.5-1.7,7l-0.1,0.1c-4.7,3.3-6.2,3.7-7,3.7c-1,0-2.3-0.6-2.4-3.6
	c-0.2-8.2-1-17.6-2.4-27.9c-1.3-10.3-2.7-18.7-4.1-25c-1.4-6.3-3.2-11.7-5.4-16.2c-2.1-4.2-4.3-6.4-6.4-6.4c-2.3,0-4.3,1-6.2,3
	c-1.9,2.1-3.4,5-4.5,8.7c1.2,6.2,2.7,15.8,4.3,28.7c1.7,13.1,2.5,23.8,2.5,31.9c0,2.5-0.8,4.5-2.3,6c-1.5,1.4-3.1,2.2-4.6,2.2
	c-1.7,0-3.2-1.6-4.7-4.9c-1.3-3-2.5-7.4-3.3-13.2c-0.9-5.7-1.3-10.8-1.3-15.2c0-4.3,0.2-9.2,0.5-14.5c-1.5-11.1-3.9-21-7-29.5
	c-1-3.1-2.4-5.8-4.1-8.2C5.3,8.2,3.8,7,2.3,6.9C0.2,6.6,0,5.3,0,4.8c0-1.5,1.7-2.5,5.5-3.4c3.4-0.8,5.9-1.1,7.8-1.1
	c2.1,0,4,1.7,5.5,5c1.5,3.3,3,7.1,4.6,11.6c0.8,2.2,1.3,3.6,1.6,4.6c2.4-4.6,5.1-8.4,8.2-11.3c3.6-3.3,7.5-5,11.7-5
	c3,0,5.7,1.5,8.1,4.3c2.2,2.7,4.1,6.2,5.5,10.3c2.6,7.8,3,17.5,4.6,32.4l1.2,15.2c0.5-2.1,1.2-5.1,2.2-9.5c2.2-9.4,4-17.1,5.5-22.9
	c4.7-18.8,7.5-26.4,12.8-28.2c6.9-2.4,6.3,4.8,6.3,7.3c0,2.5,0.1,5.2,0.2,8.1c0.1,2.9,0.5,6.8,1.1,11.6c0.6,4.8,1.3,9.4,2.3,13.7
	c0.9,4.3,2.3,8.8,4.1,13.3c1.8,4.5,3.9,7.7,6.2,10.9c2.3,3.2,5.3,6,8.9,8.1c3,1.8,6.3,2.8,9.9,3.1c-0.1-0.7-0.1-1.4-0.1-2.1
	c0-5.7,8.1-16.9,20.5-24.6c2.7-1.6,12.5-6.7,18.7-6.7c7.3,0,11.5,2.8,11.5,8.1c0,2-1.8,5.2-6.9,4.6c-4.2-0.5-5.3-1.4-12.9-1.4
	c-8.4,0-16.3,11.4-16.3,14.8c0,3,1.5,4.3,4.5,4.3c3.5,0,7.1-4.7,19.7-11.1c1.9-1.1,3.4-1.8,4.7-1.8c6.4,0,6.3,16,17.8,16
	c4.6,0,9.6-2.3,13.4-4.4c-1.2-4.4-1.7-9.1-1.7-13.2c0-3.7,4-6.6,9.9-6.6c0.7,0,1.5,0,2.2,0.1c1,0.3,2.7,5.4,4.3,15.9
	c0.8,5.1,3.8,6.9,7.2,6.9c7.7,0,14.2-12.3,18.2-17.9c3.7-5.2,8.1-8.5,10.5-8.5c2.6,0,3.1,15.9,3.8,38c3.5-0.8,10.9-1.9,13.4-1.9
	c0.2,0,0.3,0,0.5,0c0-0.6-0.1-1.1-0.1-1.7c-0.1-3.2-0.2-6.4-0.2-9.6c0-3.1,0-6,0.1-8.9c0.1-2.8,0.3-5.5,0.5-8
	c-1.9,0.2-3.8,0.4-5.9,0.4h-0.3c-2,0-3.4-0.5-4.3-1.6c-0.9-1.1-1.4-2.3-1.4-3.6v-0.2c0-1.2,0.5-2.4,1.4-3.5c0.9-1.1,2.4-0.8,4.3-1
	h-0.1c2-0.2,3.5-0.3,4.3-0.4c0.4,0,1,0,1.5-0.1c0.6,0,1.1-0.1,1.7-0.2c0.7-4.6,2.7-12.2,4-16.7c1.3-4.5,3-8.6,5-12.4
	c1.2-2.1,2.5-4.1,3.8-5.8c1.3-1.8,2.7-3.4,4.2-4.9c0.9-0.8,2-1.7,3.4-2.7c1.4-1,2.9-2,4.7-2.9c1.7-0.9,3.6-1.6,5.5-2.2
	c1.9-0.6,2.9-0.9,4.9-0.9c2.1,0,4,0.3,5.7,1c1.6,0.7,3.1,1.5,4.2,2.6c1.2,1.1,2.1,2.2,2.7,3.6c0.7,1.3,1,2.7,1.1,3.9v-0.1
	c0.1,0.4,0.1,0.8,0.1,1.2c0,0.3,0,0.6,0,1c0,1.1,0,1.8-0.1,2.2v0.1c-0.4,1.4-1.2,2.5-2.4,3.2c-1.2,0.8-2.4,1.2-3.6,1.2
	c-0.2,0-0.3,0-0.4,0.1c-0.1,0-0.2,0.1-0.4,0.1c-1.3,0-2.4-0.3-3.3-1c-1-0.7-1.6-2.4-1.9-3.8l0.1,0.1c-0.3-0.5-0.4-1-0.4-1.5
	c0-0.3,0-0.6-0.1-0.8c-0.1-0.1-0.1-0.2-0.1-0.2v0.1c-0.4-1.2-1.2-1.8-2.1-1.8h-0.3c-1.2,0.1-2.6,0.7-4.4,1.5
	c-12.7,5.7-16.3,30.9-17,34.7c3.1-0.3,17-2.7,20.6-3.1c0.2,0,0.4,0,0.5-0.1c0.2,0,0.4-0.1,0.5-0.1c1.8,0,3.2,0.5,4.1,1.6
	c1,1.1,1.5,2.3,1.5,3.6c0,0.2,0,0.3,0,0.5c0,0.1,0.1,0.2,0.1,0.3c0,3.3,0.7,9.7,1.1,14.2c0.5,7.2,3.7,16.7,14.1,16.7
	c3.9,0,7.9-1.3,11-2.2c-1.1-2.1-1.7-4.7-1.7-7.8c0.1-11.5,18.1-27.3,30-27.9c7-0.4,12,3,11.2,9.5c-1.4,9.9-17.3,16.1-26.1,19.7
	c2.2,6,8.5,8.9,20.4,8.1c8-0.6,16.1-4,22.5-6.8c-0.8-3.5-1.1-7.3-1.1-11.6c0.1-9.3-0.4-18.8-0.1-28.5c0.1-8.3,0.7-16.9,2.4-25.2
	c0.5-2.7,5.1-7.2,8.2-7.2c1.1,0,2.4,1.2,2.7,1.8c0.4,1,0.5,2.1,0.5,4.6c0,1.3,0,2.9-0.1,5.2c-0.4,12.8-2.4,32.4-2.3,44.6
	c0.1,11.8,2.3,23.7,18,22.8c3.7-0.2,6.3-1,9-2.2c0-0.2,0-0.5,0-0.7c0-14.6,16.1-29.3,33.8-32.4c0-11.2,0.7-23.2,2.4-34.5
	c1.1-6.8,8.3-10.4,10.3-10.6c3.9-0.6,4.8,1.7,4.3,3.3c-3.6,16.2-5.2,63.1-0.2,74.4c3.1,6.8,13.3,2.5,20-0.7
	C500.8,80,500,83.7,499,85z M240,110.3c0-0.9-0.1-1.8-0.1-2.5c-23.8,12.5-23,30.8-22.9,31c0,20,10.1,21,12.1,21
	c1.4,0,2.7-0.5,3.9-1.5C241.8,150.9,240.5,121.9,240,110.3z M347.3,70c6.8-0.8,15-4,15-10.9c0-1.8-0.8-3.4-2.9-3.1
	c-4.2,0.4-10.9,6.9-11.7,10.6C347.4,67.8,347.3,68.9,347.3,70z M463.9,80.8c-1.7-7.5-1.7-18.1-2.1-25.4
	c-12.6,0.2-18.7,10.9-18.8,20.3c0.1,5.3,1.3,9.3,8.6,9.3C454.9,85,460,82.9,463.9,80.8z"/>
</svg>
