<?xml version="1.0" encoding="utf-8"?>
<!-- Generator: Adobe Illustrator 18.1.1, SVG Export Plug-In . SVG Version: 6.00 Build 0)  -->
<svg version="1.1" id="Layer_1" xmlns="http://www.w3.org/2000/svg" xmlns:xlink="http://www.w3.org/1999/xlink" x="0px" y="0px"
	 viewBox="0 0 792 612" enable-background="new 0 0 792 612" xml:space="preserve">
<g>
	<path fill="#008FB8" d="M702,304.1c0,168.3-137.7,306-306,306S90,472.4,90,304.1s137.7-306,306-306C564.3-1.9,702,135.8,702,304.1z
		 M472.5,552.7c105.2-34.4,181.7-132,181.7-248.6c0-143.4-114.8-258.2-258.2-258.2c-141.5,0-258.2,114.8-258.2,258.2
		c0,116.7,76.5,214.2,181.7,248.6v-47.8c-74.6,17.2-91.8-34.4-91.8-34.4c-11.5-30.6-28.7-38.2-28.7-38.2
		c-24.9-17.2,1.9-15.3,1.9-15.3c26.8,1.9,40.2,26.8,40.2,26.8c24.9,42.1,66.9,26.8,80.3,21c3.8-19.1,19.1-23,23-24.9
		c-66.9-9.6-139.6-32.5-139.6-151.1c0-32.5,11.5-59.3,30.6-80.3c-3.8-7.6-13.4-38.2,3.8-80.3c0,0,24.9-7.7,82.2,30.6
		c23-5.7,49.7-9.6,74.6-9.6c24.9,0,51.6,3.8,74.6,9.6c57.4-38.2,82.2-30.6,82.2-30.6c17.2,42.1,5.7,72.7,3.8,80.3
		c19.1,21,30.6,47.8,30.6,80.3c0,116.7-72.7,141.5-139.6,149.2c11.5,7.6,24.9,24.9,24.9,53.5V552.7z"/>
</g>
</svg>
