<?xml version="1.0" encoding="utf-8"?>
<!-- Generator: Adobe Illustrator 18.1.1, SVG Export Plug-In . SVG Version: 6.00 Build 0)  -->
<svg version="1.1" id="Layer_1" xmlns="http://www.w3.org/2000/svg" xmlns:xlink="http://www.w3.org/1999/xlink" x="0px" y="0px"
	 viewBox="0 0 200 200" enable-background="new 0 0 200 200" xml:space="preserve">
<g>
	<path fill="#004375" d="M100,2.5c53.8,0,97.5,43.8,97.5,97.5s-43.8,97.5-97.5,97.5S2.5,153.8,2.5,100S46.2,2.5,100,2.5 M100,0
		C44.8,0,0,44.8,0,100s44.8,100,100,100s100-44.8,100-100S155.2,0,100,0L100,0z"/>
</g>
<path fill="#FFAA00" d="M135.3,64.7c9.1,9.1,14.7,21.6,14.7,35.3c0,27.6-22.4,50-50,50s-50-22.4-50-50s22.4-50,50-50V32
	c-37.5,0-68,30.5-68,68s30.5,68,68,68s68-30.5,68-68c0-18.7-7.6-35.7-20-48L135.3,64.7z"/>
<polygon fill="#FFAA00" points="100,26 100,56 115,41 "/>
<rect x="40" y="65" fill="none" width="120" height="80"/>
<text transform="matrix(1 0 0 1 78.9062 92.3599)"><tspan x="0" y="0" fill="#FFAA00" font-family="'OpenSans-Extrabold'" font-size="36">24</tspan><tspan x="10.5" y="43.2" fill="#FFAA00" font-family="'OpenSans-Extrabold'" font-size="36">7</tspan></text>
<line fill="none" stroke="#FFAA00" stroke-width="2" stroke-miterlimit="10" x1="60" y1="100" x2="140" y2="100"/>
</svg>
