<?xml version="1.0" encoding="utf-8"?>
<!-- Generator: Adobe Illustrator 18.1.1, SVG Export Plug-In . SVG Version: 6.00 Build 0)  -->
<svg version="1.1" id="Layer_1" xmlns="http://www.w3.org/2000/svg" xmlns:xlink="http://www.w3.org/1999/xlink" x="0px" y="0px"
	 viewBox="0 0 200 200" enable-background="new 0 0 200 200" xml:space="preserve">
<g>
	<path fill="#004375" d="M100,2.5c53.8,0,97.5,43.8,97.5,97.5s-43.8,97.5-97.5,97.5S2.5,153.8,2.5,100S46.2,2.5,100,2.5 M100,0
		C44.8,0,0,44.8,0,100s44.8,100,100,100s100-44.8,100-100S155.2,0,100,0L100,0z"/>
</g>
<path fill="#FFAA00" d="M38.8,151.5c-0.1-1.8,48-48.8,58.1-58S136,54.9,136,54.9l-0.5-0.6c0,0,3.4-3.5,5.6-5.9
	c2.2-2.5,0.3-7.6-9.1-7.6c-9.4,0-16.1,0.7-16.1,0.7l1.1-1.7c0,0,14.5-5.9,25.2-4.9c10.6,1,21.6,11.8,21.6,11.8l2.4,3.2
	c0,0,0.1,4.7,3,7s7.2,2.7,7.2,2.7l4.2,4.5c0,0,0.5,2.3-3.2,5.8c-3.6,3.5-7.2,4.2-7.2,4.2l-4.3-4.3c0,0-0.6-4.3-3.4-7
	c-2.8-2.7-7.3-4.7-10.4-2.4s-5.1,4.9-5.1,4.9l-1.7-0.8c0,0-31.2,33.1-40.4,42.9s-50.1,57.9-53.8,56.8S39,154.7,38.8,151.5z"/>
<path fill="#FFAA00" d="M156.8,161.3c4.9-4.6,3.1-11.8,0.8-14.3S89,82,83,76s-6.4-19.7-6.4-19.7l0.5-0.5l1,1.2l1.5-0.8l-0.2-1.4
	l0.6-0.3l1,1.1l1.6-0.7l-0.2-1.5l2.3-1.3c0,0-0.7-1.9-1.6-2.2c-1-0.3-2.4,0-3.9-1c-1.6-1-8.8-7.7-12.1-10.3c-3.3-2.6-12.2-5-12.8-4
	l7.5,16.4L60.3,54l-12.1,4.8l-6-0.5l-6.7-15.8c0,0-3.5,4.1-4.9,9.9c-1.4,5.9,1.1,14,2.1,15.5c1.1,1.5,6.2,7.6,13.1,8.8
	c5.8,1,13.5-1.6,22,5.8c9.5,8.2,74,75.7,75.7,77.6C145.4,161.8,152,165.9,156.8,161.3z M150.5,160c-3.5,0-6.2-2.8-6.2-6.2
	s2.8-6.2,6.2-6.2s6.2,2.8,6.2,6.2S154,160,150.5,160z"/>
</svg>
