<?xml version="1.0" encoding="utf-8"?>
<!-- Generator: Adobe Illustrator 18.1.1, SVG Export Plug-In . SVG Version: 6.00 Build 0)  -->
<svg version="1.1" id="Layer_1" xmlns="http://www.w3.org/2000/svg" xmlns:xlink="http://www.w3.org/1999/xlink" x="0px" y="0px"
	 viewBox="38 45 324 85" enable-background="new 38 45 324 85" xml:space="preserve">
<g id="work" display="none">
	<g id="logotype" display="inline">
		<g id="logotype_original">
		</g>
		<g id="k_development">
		</g>
		<g id="r_development">
		</g>
		<g id="e_development">
		</g>
	</g>
	<g id="logo_v1" display="inline">
		<g>
			<path fill="#430098" d="M117.4,142.8v-30.7c0-2.1-1.6-3.1-3.5-3.1c-3.7,0-8.5,1-12.7,2.9v31h-8.7V85.8h8.7v18.8
				c4.1-1.5,9-2.9,13.9-2.9c7.8,0,10.8,4.9,10.8,11.4v29.5h-8.5V142.8z M142,124.2c0.3,10.3,2.3,12.3,8.7,12.3
				c5,0,10.6-1.7,14.9-3.3l1.5,6.5c-4.7,2.1-10.3,4.1-16.9,4.1c-14.4,0-16.6-7.9-16.6-20.5c0-6.9,0.5-13.2,2.1-18.9
				c4.3-1.7,10.1-2.5,17.4-2.5c11.9,0,15.4,6.6,15.4,18v4.4L142,124.2L142,124.2z M153,109c-2.5,0-6.7,0.1-10.1,0.7
				c-0.3,1.7-0.7,4.1-1,8.5h18C160,112.3,158.8,109,153,109L153,109z M184.7,111.8v31H176v-34.9c7.3-3.9,15-5.2,20-5.5v7.2
				C192.5,109.8,188,110.3,184.7,111.8L184.7,111.8z M218.8,143.8c-12.9,0-18.7-6.3-18.7-20.8c0-15.3,7.7-21.2,18.7-21.2
				c12.9,0,18.7,6.3,18.7,20.8C237.6,138,229.8,143.8,218.8,143.8L218.8,143.8z M218.8,109c-6.7,0-10.3,3.8-10.3,14
				c0,11.1,3.1,13.5,10.3,13.5c6.7,0,10.3-3.7,10.3-13.9C229.2,111.5,226,109,218.8,109L218.8,109z M279.4,142.8h-10.2
				c-2.3-6.3-5.7-12.8-10.8-18.4h-4.6v18.4h-8.7v-57h8.7v32.7h4c4.4-4.6,7.8-10.2,10.2-15.7h9.7c-3.3,6.7-7.6,12.6-12.3,17.5
				C271.1,127.4,275.6,135.1,279.4,142.8L279.4,142.8z M295.6,143.8c-7.8,0-10.8-4.9-10.8-11.4v-29.5h8.6v30.6
				c0,2.1,1.6,3.1,3.5,3.1c3.7,0,8.9-1,13.1-2.9v-30.8h8.7v34.7C308.3,143.2,300.4,143.8,295.6,143.8L295.6,143.8z"/>
			<path fill="#430098" d="M64.2,163.9H4c-5.2,0-9.3-4.1-9.3-9.3V75.4c0-5.2,4.1-9.3,9.3-9.3h60.2c5.2,0,9.3,4.1,9.3,9.3v79.2
				C73.5,159.8,69.4,163.9,64.2,163.9L64.2,163.9z M70.4,76c0-3.7-3-6.7-6.7-6.7H4.6c-3.7,0-6.7,3-6.7,6.7v78.1c0,3.7,3,6.7,6.7,6.7
				h59.2c3.7,0,6.7-3,6.7-6.7V76L70.4,76z"/>
			<path fill="#430098" d="M44.1,150.5v-38.8c0,0,2.5-9.3-31.1,3.8c-0.1,0.2-0.1-35.9-0.1-35.9l11-0.1v23.1c0,0,30.8-12.2,30.8,9.2
				c0,21.3,0,38.7,0,38.7H44.1L44.1,150.5z M50.4,93.4c0,0-11.5,0-11.6,0c4.2-5.1,8-14,8-14h12.1C58.8,79.6,56.7,85.3,50.4,93.4
				L50.4,93.4z M13.1,150.4v-22.1l11.1,11.1L13.1,150.4L13.1,150.4z"/>
		</g>
	</g>
	<g id="logo_v2" display="inline">
	</g>
	<g id="logo_v3__x28_stroke_x29_" display="inline">
		<g id="logo-8pt-stroke">
		</g>
		<g id="logo-9pt-stroke">
		</g>
		<g id="logo-9pt-expanded">
		</g>
	</g>
</g>
<g id="purple">
</g>
<g id="white">
</g>
<g id="black">
	<g id="logotype_horizontal_1_">
		<g>
			<path fill="#FFFFFF" d="M106.7,45.2h-61c-4.2,0-7.6,3.4-7.6,7.6v69.4c0,4.2,3.4,7.6,7.6,7.6h61c4.2,0,7.6-3.4,7.6-7.6V52.8
				C114.3,48.6,110.9,45.2,106.7,45.2z M110.1,122.2c0,1.9-1.5,3.4-3.4,3.4h-61c-1.9,0-3.4-1.5-3.4-3.4V52.8c0-1.9,1.5-3.4,3.4-3.4
				h61c1.9,0,3.4,1.5,3.4,3.4V122.2z"/>
			<polygon fill="#FFFFFF" points="57.1,117.1 66.7,108.7 57.1,100.2 			"/>
			<path fill="#FFFFFF" d="M91.5,82.8C89.8,81,86.7,79,81.5,79c-5.7,0-11.6,1.5-15.9,2.9v-24h-8.5v36.7l6-2.8
				c0.1,0,9.7-4.3,18.3-4.3c4.3,0,5.3,2.3,5.3,4.3v25.3h8.5V91.7C95.2,91.2,95.2,86.5,91.5,82.8z"/>
			<path fill="#FFFFFF" d="M80.4,71.6h8.5c3.8-4.3,5.8-9,6.3-13.8h-8.5C85.8,62.6,83.7,67.3,80.4,71.6z"/>
		</g>
		<g>
			<path fill="#FFFFFF" d="M156.6,74.9c-4.8,0-10.8,1.3-14.8,2.9V57.9h-8.5v59.3h8.5V85c4.1-1.9,9.9-2.9,13.7-2.9
				c1.8,0,3.4,1,3.4,3.2v31.9h8.4V86.4C167.2,79.8,164.3,74.9,156.6,74.9z"/>
			<path fill="#FFFFFF" d="M192.7,74.8c-7.1,0-12.8,0.8-17,2.5c-1.6,5.8-2.1,11.7-2.1,18.7c0,12.8,2.2,21.1,16.3,21.1
				c6.6,0,12.1-2,16.6-4.1l-1.4-6.6c-4.2,1.7-9.7,3.4-14.6,3.4c-6.2,0-8.1-1.3-8.5-11.6h25.4v-4.4C207.4,82,203.6,74.8,192.7,74.8z
				 M182,91.7c0.1-4.4,0.7-8.8,0.7-8.8s4.2-0.8,9.9-0.8s7.3,3.6,7.3,9.6C200,91.7,182,91.7,182,91.7z"/>
			<path fill="#FFFFFF" d="M353.4,74.8v31.7c0,0-5.9,3.2-13.8,3.2c-1.8,0-3.2-0.7-3.2-3v-32H328v30.9c0,6.7,3.5,11.4,10.6,11.4
				c12.3,0,23.3-6.3,23.3-6.3v-36H353.4z"/>
			<path fill="#FFFFFF" d="M260.3,74.8c-11.2,0-19,5.9-19,21.4c0,14.6,5.9,21,19,21c11.2,0,19-5.9,19-21.4
				C279.4,81.2,273.4,74.8,260.3,74.8z M260.3,110.8c-7.1,0-10.5-4.7-10.5-14.9c0-10.8,4.4-14.7,10.5-14.7c7.1,0,10.5,4.7,10.5,14.9
				C270.8,106.9,266.3,110.8,260.3,110.8z"/>
			<path fill="#FFFFFF" d="M213.8,117.1h8.5V85.4c3.1-1.7,8.1-3.1,14.8-3.2v-7.3c-13.4,0-23.3,6.2-23.3,6.2V117.1z"/>
			<path fill="#FFFFFF" d="M307.4,94.6c5.5-7.2,10.1-13.9,12.6-19.8h-8.8c-3,6.2-6.6,12-10.7,16.9h-6.3V57.9h-8.5v59.3h8.5v-19h6.3
				c4.1,5.1,8.1,11.2,12.3,19h8.9C317.7,109.1,313.1,101.5,307.4,94.6z"/>
		</g>
	</g>
</g>
<g id="guides" display="none">
	
		<text transform="matrix(1 0 0 1 371.543 30.377)" display="inline" fill="#8DC63F" font-family="'BentonModDisp-Regular'" font-size="8.4656">50%</text>
	<g display="inline">
		<g>
			<line fill="none" stroke="#C3C3C4" stroke-miterlimit="10" x1="114.8" y1="83.3" x2="132.8" y2="83.3"/>
			<g>
				<rect x="114.3" y="79.9" fill="#C3C3C4" width="1.1" height="6.9"/>
			</g>
			<g>
				<rect x="132.3" y="79.9" fill="#C3C3C4" width="1.1" height="6.9"/>
			</g>
		</g>
	</g>
	
		<line display="inline" fill="none" stroke="#C3C3C4" stroke-width="0.25" stroke-miterlimit="10" x1="361.9" y1="45.2" x2="361.9" y2="167.9"/>
	
		<text transform="matrix(1 0 0 1 114.9414 96.5147)" display="inline" fill="#C3C3C4" font-family="'BentonModDisp-Regular'" font-size="8.4656">25%</text>
	
		<text transform="matrix(1 0 0 1 235.7373 143.2461)" display="inline" fill="#C3C3C4" font-family="'BentonModDisp-Regular'" font-size="8.4656">300%</text>
	
		<line display="inline" fill="none" stroke="#C3C3C4" stroke-width="0.25" stroke-miterlimit="10" x1="0" y1="129.8" x2="400" y2="129.8"/>
	
		<line display="inline" fill="none" stroke="#C3C3C4" stroke-width="0.25" stroke-miterlimit="10" x1="38.1" y1="7.1" x2="38.1" y2="167.9"/>
	
		<line display="inline" fill="none" stroke="#C3C3C4" stroke-width="0.25" stroke-miterlimit="10" x1="114.3" y1="7.1" x2="114.3" y2="167.9"/>
	
		<line display="inline" fill="none" stroke="#C3C3C4" stroke-width="0.25" stroke-miterlimit="10" x1="133.3" y1="7.1" x2="133.3" y2="167.9"/>
	
		<line display="inline" fill="none" stroke="#C3C3C4" stroke-width="0.25" stroke-miterlimit="10" x1="0" y1="45.2" x2="361.9" y2="45.2"/>
	<g display="inline">
		<g>
			<polyline fill="none" stroke="#8DC63F" stroke-miterlimit="10" points="361.9,8.2 361.9,45.2 398.8,45.2 			"/>
			<g>
				<polygon fill="#8DC63F" points="357.6,11.7 358.3,12.5 361.9,8.7 365.5,12.5 366.2,11.7 361.9,7.1 				"/>
			</g>
			<g>
				<polygon fill="#8DC63F" points="395.3,49.5 394.6,48.8 398.4,45.2 394.6,41.6 395.3,40.8 400,45.2 				"/>
			</g>
		</g>
	</g>
	<g display="inline">
		<g>
			<line fill="none" stroke="#C3C3C4" stroke-miterlimit="10" x1="133.9" y1="129.8" x2="361.4" y2="129.8"/>
			<g>
				<rect x="133.3" y="126.4" fill="#C3C3C4" width="1.1" height="6.9"/>
			</g>
			<g>
				<rect x="360.8" y="126.4" fill="#C3C3C4" width="1.1" height="6.9"/>
			</g>
		</g>
	</g>
</g>
</svg>
