<?xml version="1.0" encoding="utf-8"?>
<!-- Generator: Adobe Illustrator 18.1.1, SVG Export Plug-In . SVG Version: 6.00 Build 0)  -->
<svg version="1.1" id="Layer_1" xmlns="http://www.w3.org/2000/svg" xmlns:xlink="http://www.w3.org/1999/xlink" x="0px" y="0px"
	 viewBox="0 0 400 175" enable-background="new 0 0 400 175" xml:space="preserve">
<path fill="#FFFFFF" d="M100.4,45.1H98c0,0-2.8,6-10.4,6s-17-6.4-34.4-6.4S0,55.5,0,87.9s30.6,42.2,53.4,42.2s30.8-7.6,37.4-7.6
	s10.6,0,10.6,0V96.7c0,0,0.2-5,4.8-5c4.6,0,5.8,0,5.8,0v-2.8H65.2v2.8H74c0,0,4.8,0.4,4.8,4.6s0,21.6,0,21.6s-3.4,8.8-25.4,8.8
	S24,111.7,24,100.1s0-19.8,0-19.8s1.4-32.6,29-32.6s36.8,17.8,39.4,21.8s5.6,8.8,5.6,8.8h2.4V45.1z"/>
<path fill="#FFFFFF" d="M132.5,47.1h51.1V50h-8.8c0,0-5.4,0.5-5.4,5.3c0,3.2,0,59.8,0,64c0,5.6,6,5.6,6,5.6h8v3.2h-50.9v-3h8.9
	c0,0,5-0.6,5-5.6c0-3.4,0.2-59,0.2-63.8s-6.4-5.7-6.4-5.7h-7.7V47.1z"/>
<path fill="#FFFFFF" d="M303.6,46.9H400v29.6h-2.4l-18.2-26.6h-16.2c0,0,0,64.4,0,68.6c0,4.6,7.6,6.2,7.6,6.2h8v3.2h-53.6v-3h8.8
	c0,0,6.2-2,6.2-7c0-3.4,0.2-68,0.2-68h-16l-18,26.6h-2.8V46.9z"/>
<path fill="#FFFFFF" d="M206,47.1h55.6V50H251c0,0-5.4,0.5-5.4,5.3c0,3.2,0,59.8,0,64c0,5.6,6,5.6,6,5.6h20.8l18.8-27.6h2.2v30.6
	h-87.2v-3h11.4c0,0,5-0.6,5-5.6c0-3.4,0.2-59,0.2-63.8c0-5.3-6.4-5.5-6.4-5.5H206V47.1z"/>
</svg>
