<?xml version="1.0" encoding="utf-8"?>
<!-- Generator: Adobe Illustrator 18.1.1, SVG Export Plug-In . SVG Version: 6.00 Build 0)  -->
<svg version="1.1" id="Layer_1" xmlns="http://www.w3.org/2000/svg" xmlns:xlink="http://www.w3.org/1999/xlink" x="0px" y="0px"
	 viewBox="0 0 596 74" enable-background="new 0 0 596 74" xml:space="preserve">
<g>
	<path fill="#FFFFFF" d="M171.3,5.8c0,0-13.3,0-14.2,0c-1,0-1.8,0.7-1.8,1.7c0,0.9,0,36.4,0,36.4c0,5.9-2.4,9-7.9,9
		c-5.5,0-7.9-3.1-7.9-9V7.5c0-1-0.6-1.7-1.8-1.7c0,0-13.3,0-14.2,0c-1,0-1.8,0.7-1.8,1.7c0,1,0,40,0,40c0,12.4,9,22.3,25.5,22.3
		c16.7,0,25.9-9.9,25.9-22.3v-40C173.1,6.6,172.3,5.8,171.3,5.8z"/>
	<path fill="#FFFFFF" d="M274.4,31.3l-10.3-3.6c-3-1.1-3.4-2.8-3.4-3.8c0-1.6,1.5-3.2,4.6-3.2c3.3,0,8.1,0.9,12.7,4.5
		c0.7,0.5,1.6,0.4,2.1-0.2l8-10.1c0.5-0.7,0.4-1.6-0.2-2.2C281.1,7,272.8,5,265,5c-14.9,0-23.7,9.2-23.7,19.2
		c0,7.9,4.6,15.1,14.3,18.4l9.1,3.1c4.5,1.5,5.2,2.7,5.2,4.6c0,1.7-1.8,3.7-5.4,3.7c-5.1,0-11-3-15-6.3c-0.6-0.5-1.5-0.5-2,0.2
		l-8.2,10.8c-0.5,0.7-0.4,1.7,0.2,2.2c5.9,5.1,14.7,8.9,25.8,8.9c14,0,24.1-8.1,24.1-20.2C289.5,41.2,284.3,34.7,274.4,31.3z"/>
	<path fill="#FFFFFF" d="M223.3,45.1c7.6-3.8,11.5-9.7,11.5-18.4c0-11.1-8.9-20.9-24-20.9h-27.3c-0.9,0-1.6,0.9-1.6,1.8v59.3
		c0,0.9,0.7,1.6,1.6,1.6h14.7c0.9,0,1.6-0.7,1.6-1.6V47.7h5.8l10.4,19.4c0.4,0.8,1.5,1.4,2.4,1.4h16.9c0.9,0,1.3-0.6,0.8-1.4
		L223.3,45.1z M209.2,32.5h-9.3V21.6h9.3c5.2,0,7.2,2.3,7.2,5.5C216.4,30.2,214.4,32.5,209.2,32.5z"/>
	<path fill="#FFFFFF" d="M45.4,5.8c0,0-41.5,0-42.8,0c-1.3,0-2,1-2,1.9c0,0.9,0,59.1,0,59.1c0,1,0.7,1.8,1.8,1.8
		c1.1,0,14.4,0,14.4,0c0.9,0,1.6-1,1.6-1.8V47.7h18.3c0.9,0,1.8-0.7,1.9-1.6L41.4,33c0.2-0.8-0.2-1.6-1.3-1.6H18.4v-9.5h24
		c0.9,0,1.8-0.7,1.9-1.6L47,7.9C47.3,6.8,46.7,5.8,45.4,5.8z"/>
	<path fill="#FFFFFF" d="M590.9,21.8c0.9,0,1.8-0.7,1.9-1.6l2.6-12.4c0.2-1.1-0.1-2.1-1.5-2.1c0,0-41.8,0-43,0c-1.2,0-1.9,1-1.9,1.9
		c0,0.9,0,59.1,0,59.1c0,1,0.7,1.8,1.8,1.8c0.3,0,39.1,0,39.1,0c0.9,0,1.8-0.7,1.9-1.6l2.6-12.4c0.2-1.1-0.1-2.1-1.5-2.1
		c0,0-15.2,0-26,0v-7.2h18.1c0.9,0,1.8-0.7,1.9-1.6l2.8-13.1c0.2-0.8-0.2-1.6-1.3-1.6h-21.5v-7.2H590.9z"/>
	<path fill="#FFFFFF" d="M462.9,7.2c-0.2-0.8-1.1-1.4-1.9-1.4h-19.6c-0.8,0-1.7,0.6-1.9,1.4l-18,59.8c-0.2,0.8,0.2,1.5,1.1,1.5h16.1
		c0.8,0,1.7-0.7,1.9-1.5l2.5-9h16.1l2.8,9c0.2,0.8,1.1,1.5,1.9,1.5h16c0.8,0,1.3-0.7,1.1-1.5L462.9,7.2z M451.1,41.4h-5.8l5.8-19.2
		l5.8,19.2H451.1z"/>
	<path fill="#FFFFFF" d="M416.4,5.8c0,0-13.3,0-14.2,0c-1,0-1.8,0.7-1.8,1.7c0,0.9,0,36.4,0,36.4c0,5.9-2.4,9-7.9,9
		c-5.5,0-7.9-3.1-7.9-9V7.5c0-1-0.6-1.7-1.8-1.7c0,0-13.3,0-14.3,0c-1,0-1.8,0.7-1.8,1.7c0,1,0,40,0,40c0,12.4,9,22.3,25.5,22.3
		c16.7,0,25.9-9.9,25.9-22.3v-40C418.2,6.6,417.4,5.8,416.4,5.8z"/>
	<path fill="#FFFFFF" d="M528.7,45.1c7.6-3.8,11.5-9.7,11.5-18.4c0-11.1-8.9-20.9-24-20.9h-27.3c-0.9,0-1.6,0.9-1.6,1.8v59.3
		c0,0.9,0.7,1.6,1.6,1.6h14.7c0.9,0,1.6-0.7,1.6-1.6V47.7h5.8l10.4,19.4c0.4,0.8,1.5,1.4,2.4,1.4h16.9c0.9,0,1.3-0.6,0.8-1.4
		L528.7,45.1z M514.6,32.5h-9.3V21.6h9.3c5.2,0,7.2,2.3,7.2,5.5C521.8,30.2,519.8,32.5,514.6,32.5z"/>
	<path fill="#FFFFFF" d="M359.4,60.8c-2,0.8-5.7,1.7-10.1,0.8c0,0,0,0,0,0c0.6-0.6,1.3-1.1,1.8-1.7c8.4-9,10.8-22.4,6.7-33.8
		C353.5,14.1,342.2,6.1,329.5,5c-12.7-1-25.6,5.2-31.8,16.3c-6.4,11.6-5.2,27,3.5,37.1c7.6,8.8,19.4,12.5,30.6,10.9
		c0.2,0.1,0.3,0.3,0.5,0.5c6.2,5.8,16.2,9,24.7,9l3.5-17.2C360.6,61.1,360.2,60.5,359.4,60.8z M326.7,53.2
		c-8.2,0-13.8-7.1-13.8-15.9c0-8.8,5.6-15.9,13.8-15.9c8.2,0,13.7,7.1,13.7,15.9C340.5,46.1,334.9,53.2,326.7,53.2z"/>
	<path fill="#FFFFFF" d="M84.4,5c-12.7-1-25.6,5.2-31.8,16.3c-6.4,11.6-5.2,27,3.5,37.1C68.6,73,92.8,73.6,106,59.8
		c8.5-9,10.8-22.4,6.7-33.8C108.4,14.1,97.1,6.1,84.4,5z M81.6,53.2c-8.2,0-13.7-7.1-13.7-15.9c0-8.8,5.6-15.9,13.7-15.9
		c8.2,0,13.7,7.1,13.7,15.9C95.4,46.1,89.8,53.2,81.6,53.2z"/>
</g>
</svg>
