<?xml version="1.0" encoding="utf-8"?>
<!-- Generator: Adobe Illustrator 18.1.1, SVG Export Plug-In . SVG Version: 6.00 Build 0)  -->
<svg version="1.1" id="Layer_1" xmlns="http://www.w3.org/2000/svg" xmlns:xlink="http://www.w3.org/1999/xlink" x="0px" y="0px"
	 viewBox="0 0 224 60" enable-background="new 0 0 224 60" xml:space="preserve">
<g>
	<g>
		<path fill="#FFFFFF" d="M66.8,47.4c-5.1,0-8.4-2-9.9-3.1l-0.2-0.1l0.1-0.2l2.1-3.4l0.1-0.2l0.2,0.1c1.2,0.9,3.9,2.5,7.4,2.5
			c3.1,0,4.8-1.3,4.8-3.6c0-2.5-2.1-3.3-5.8-4.6l-0.4-0.2c-3.8-1.3-7.2-3.2-7.2-8.3c0-4.6,3.5-7.5,9-7.5c3.2,0,5.8,0.6,7.9,1.9
			l0.2,0.1L75,20.9l-1.7,3.5l-0.1,0.2L73,24.6c-1.8-0.9-3.8-1.4-5.9-1.4c-1.9,0-4.3,0.5-4.3,3.1c0,2.5,1.8,3.1,5.5,4.3
			c4,1.3,8.2,3.1,8.2,8.8C76.5,44.4,72.8,47.4,66.8,47.4L66.8,47.4z"/>
	</g>
	<g>
		<path fill="#FFFFFF" d="M80.3,54.3c-0.9,0-1.8-0.1-2.9-0.4l-0.2,0l0-0.2l0.5-3.3l0-0.2l0.2,0l0.3,0c0.5,0.1,0.9,0.1,1.5,0.1
			c1.9,0,3.1-0.7,3.9-2.3l-7.1-21l-0.1-0.3h0.3h4.8h0.2l0,0.2L86,41.7l3.7-14.8l0-0.2h0.2h4.6h0.3L94.7,27l-6.4,20.8
			C87,52.2,84.5,54.3,80.3,54.3L80.3,54.3z"/>
	</g>
	<g>
		<path fill="#FFFFFF" d="M123.9,47h-0.2H119h-0.2v-0.2V33.4c0-1.7-0.3-2.8-2-2.8c-1.2,0-2.5,0.7-4,2v14.2V47h-0.2h-4.7h-0.2v-0.2
			V33.4c0-1.7-0.3-2.8-2-2.8c-1.2,0-2.7,0.8-4,2.1v14.1V47h-0.2h-4.7h-0.2v-0.2V26.9v-0.2h0.2h2.8h0.2l0,0.1l0.9,2.8
			c2.1-2.3,4.3-3.3,6.5-3.3c2.9,0,4.1,1.6,4.8,3.1c1.4-1.5,3.6-3.1,6.4-3.1c4.6,0,5.5,3.9,5.5,7.2v13.3V47L123.9,47z"/>
	</g>
	<g>
		<path fill="#FFFFFF" d="M132.7,47.4c-3.8,0-6.4-2.4-6.4-5.9c0-2.2,0.8-3.8,2.4-4.9c1.7-1.2,4.5-2,8.8-2.6v-0.5
			c0-2.2-0.8-3.1-3-3.1c-1.9,0-3.7,0.8-5.5,1.6l-0.2,0.1l-0.1-0.2l-1.6-3.1l-0.1-0.2l0.2-0.1c2.6-1.6,5-2.3,7.8-2.3
			c5,0,7.7,2.6,7.7,7.5v13V47h-0.2h-2.8h-0.1l-0.1-0.1l-0.9-2C137.3,46.1,135.3,47.4,132.7,47.4L132.7,47.4z M137.6,37.4
			c-3.3,0.7-5,1.3-5.7,2.1c-0.4,0.5-0.5,0.9-0.5,1.7c0,1.5,0.8,2.3,2.4,2.3c1.3,0,2.7-0.5,3.8-1.4V37.4L137.6,37.4z"/>
	</g>
	<g>
		<path fill="#FFFFFF" d="M163.8,47h-0.2h-4.7h-0.2v-0.2V33.4c0-2-0.7-2.8-2.3-2.8c-1.4,0-3,0.8-4.2,2.1v14.1V47H152h-4.7h-0.2v-0.2
			V26.9v-0.2h0.2h2.8h0.2l0,0.1l0.9,2.8c2.1-2.3,4.3-3.4,6.8-3.4c3.8,0,5.8,2.4,5.8,7.2v13.3V47L163.8,47z"/>
	</g>
	<g>
		<path fill="#FFFFFF" d="M174.5,47.4c-4,0-5.9-2-5.9-6.1V30.4h-2.8h-0.2v-0.2v-3.2v-0.2h0.2h2.9l0.9-5.5l0-0.2h0.2h3.7h0.2v0.2v5.5
			h4.1h0.2v0.2v3.2v0.2h-0.2h-4.1v10.7c0,1.7,0.3,2.4,2,2.4c0.5,0,1.3-0.1,2.1-0.4l0.2-0.1l0,0.2l0.6,3.2l0,0.2l-0.2,0.1
			C177.9,46.9,176.4,47.4,174.5,47.4L174.5,47.4z"/>
	</g>
	<g>
		<path fill="#FFFFFF" d="M188.6,47.4c-5.7,0-9.2-4-9.2-10.4c0-6.5,3.5-10.7,8.9-10.7c5.5,0,8.6,3.9,8.6,10.7v1.2v0.2h-0.2h-12
			c0.3,3.3,1.6,4.8,4.3,4.8c2.2,0,3.6-0.8,5.2-1.8l0.2-0.1l0.1,0.2l1.9,2.9l0.1,0.2l-0.2,0.1C194.3,46.2,192.4,47.4,188.6,47.4
			L188.6,47.4z M184.7,35.1h6.9c-0.1-3.4-1.2-5-3.4-5C186.1,30.1,185,31.8,184.7,35.1L184.7,35.1z"/>
	</g>
	<g>
		<path fill="#FFFFFF" d="M208.2,47.4c-6.8,0-9.2-5.4-9.2-10.4c0-4.9,2.4-10.7,9.2-10.7c2.8,0,4.8,0.7,6.5,2.2l0.1,0.1l-0.1,0.2
			l-2.1,3.1l-0.1,0.2l-0.2-0.1c-1.1-0.8-2.2-1.4-4.1-1.4c-2.6,0-4,2.2-4,6.4c0,4.2,1.3,6.2,4.1,6.2c1.8,0,3-0.7,4.2-1.7l0.2-0.1
			l0.1,0.2l2.2,2.8l0.1,0.1l-0.1,0.1C213.2,46.5,211,47.4,208.2,47.4L208.2,47.4z"/>
	</g>
</g>
<g opacity="0.5">
	<g>
		<path fill="#FFFFFF" d="M27,58.3C13,58.3,1.6,47,1.6,33C1.6,19,13,7.6,27,7.6c14,0,25.4,11.4,25.4,25.4C52.3,47,40.9,58.3,27,58.3
			L27,58.3z M27,15.6c-4.6,0-9,1.8-12.3,5.1C11.4,24,9.6,28.3,9.6,33c0,4.6,1.8,9,5.1,12.3c3.3,3.3,7.6,5.1,12.3,5.1
			c4.6,0,9-1.8,12.3-5.1c3.3-3.3,5.1-7.6,5.1-12.3c0-4.6-1.8-9-5.1-12.3C35.9,17.4,31.6,15.6,27,15.6L27,15.6z"/>
	</g>
</g>
<g>
	<path fill="#FFFFFF" d="M218.8,44.2H218v-0.5h2.2v0.5h-0.8v2.6h-0.6V44.2z M220.8,43.7h0.9l0.6,2.2l0.6-2.2h0.9v3.1h-0.6v-2.3
		l-0.7,2.3h-0.6l-0.6-2.3v2.3h-0.6V43.7z"/>
</g>
<g>
	<rect x="54.6" y="3.7" opacity="0.5" fill="#FFFFFF" width="2" height="2"/>
	<rect x="54.6" y="-0.3" opacity="0.5" fill="#FFFFFF" width="2" height="2"/>
	<rect x="49" y="5.6" opacity="0.5" fill="#FFFFFF" width="1.8" height="1.9"/>
	<rect x="45.4" y="9.4" fill="#FFFFFF" width="1.9" height="1.8"/>
	<rect x="50.9" y="7.6" fill="#FFFFFF" width="2.1" height="1.9"/>
	<rect x="43.5" y="7.7" fill="#FFFFFF" width="1.9" height="1.8"/>
	<rect x="49" y="9.4" fill="#FFFFFF" width="1.8" height="1.8"/>
	<rect x="52.6" y="1.7" fill="#FFFFFF" width="2" height="2"/>
	<rect x="49" y="3.7" fill="#FFFFFF" width="3.6" height="2"/>
	<rect x="47.2" y="5.6" fill="#FFFFFF" width="1.8" height="3.8"/>
	<path fill="#FFFFFF" d="M47.2,11.3v1.9h-1.9v-1.9h-3.1v1.3h-1.7v1.7h1.9v1.8h-1.9v-1.8h-2v2.9h-1.9V19h-1.2v1.9h-1.4
		c-1.5,2.3-5.3,9.3-6.5,12.2c-4.2-5.8-7.4-8.1-9.9-8.9c-1.4-0.4-3,1.1-0.7,3.4c5.2,5.8,6.9,10.5,8.5,14.3c0.8,2,4.6,2.3,5.4,0.3
		c1.6-4.3,3.9-9.2,6.7-13.2V27h1.5v-1.9h1.6V23h1.9v-2.1h-1.9V19h1.9v1.9h1.8l0-1.9h1.5v-2.3h1.7v-1.6H49v-3.9H47.2z"/>
</g>
</svg>
