<?xml version="1.0" encoding="utf-8"?>
<!-- Generator: Adobe Illustrator 18.1.1, SVG Export Plug-In . SVG Version: 6.00 Build 0)  -->
<svg version="1.1" id="Layer_1" xmlns="http://www.w3.org/2000/svg" xmlns:xlink="http://www.w3.org/1999/xlink" x="0px" y="0px"
	 viewBox="0 0 176 38" enable-background="new 0 0 176 38" xml:space="preserve">
<g>
	<path fill-rule="evenodd" clip-rule="evenodd" fill="#FFFFFF" d="M18.2,0.4c-0.2,0.5-0.5,2-0.6,2.4c-0.5,0-13.1,0-13.1,0L3.9,5.6
		c0,0,12.4,0,13.1,0c-0.2,0.5-0.5,2.2-0.6,2.6c-0.5,0-13.1,0-13.1,0s-1,4.8-1.1,5.3c-0.4,0-2.2,0-2.8,0c0.2-0.7,2.7-12.6,2.8-13
		C2.7,0.4,17.5,0.4,18.2,0.4L18.2,0.4z"/>
	<path fill-rule="evenodd" clip-rule="evenodd" fill="#FFFFFF" d="M22.6,0.4c-0.2,0.6-2.2,10.4-2.2,10.4s10.3,0,11,0
		c-0.2,0.5-0.5,2.2-0.6,2.6c-0.5,0-13.1,0-13.8,0c0.2-0.7,2.7-12.6,2.8-13C20.2,0.4,22,0.4,22.6,0.4L22.6,0.4z"/>
	<path fill-rule="evenodd" clip-rule="evenodd" fill="#FFFFFF" d="M68,13.4c-1.3,0-4.6,0-4.8,0c-0.2-0.2-7.3-5.5-7.3-5.5
		s-1.1,5-1.2,5.5c-0.3,0-2.2,0-2.7,0c0.1-0.7,2.6-12.6,2.8-13c0.3,0,2.2,0,2.7,0c-0.1,0.6-1.1,5.4-1.1,5.4s9.8-5.3,9.8-5.4
		c0.2,0,3,0,4.4,0C68.9,1.4,59,6.8,59,6.8S66.7,12.5,68,13.4L68,13.4z"/>
	<path fill-rule="evenodd" clip-rule="evenodd" fill="#FFFFFF" d="M73.8,2.9l-0.6,2.8c0,0,13.2,0,13.9,0c-0.1,0.5-0.5,2-0.5,2.4
		c-0.5,0-13.9,0-13.9,0L72,11c0,0,13.2,0,13.9,0c-0.1,0.5-0.5,2-0.6,2.4c-0.5,0-15.7,0-16.5,0c0.2-0.7,2.7-12.6,2.8-13
		c0.5,0,15.8,0,16.5,0c-0.1,0.5-0.4,2-0.5,2.4C87.2,2.9,73.8,2.9,73.8,2.9L73.8,2.9z"/>
	<path fill-rule="evenodd" clip-rule="evenodd" fill="#FFFFFF" d="M53,0.4c-0.2,0.6-2.2,10-2.2,10c0,0.2-0.5,2.6-3,3
		c-0.1,0-13.5,0-13.5,0c-0.7-0.1-1.2-0.4-1.5-0.9c-0.2-0.3-0.3-0.8-0.3-1.2c0-0.4,0.1-0.8,0.1-0.8l0,0c0,0,2.1-9.8,2.2-10.2
		c0.4,0,2.2,0,2.8,0C37.4,1.1,35.3,11,35.3,11H48c0,0,2.2-10.2,2.3-10.6C50.6,0.4,52.5,0.4,53,0.4L53,0.4z"/>
	<path fill-rule="evenodd" clip-rule="evenodd" fill="#FFFFFF" d="M60.4,31.5h2.4l1.3-6.7c0.4-1.7,1.8-4.9,4.9-4.9
		c1.5,0,2.4,1,2.4,2.4c0,0.3-0.1,0.9-0.1,1.3l-1.7,8h2.4l1.4-7c0.2-0.7,0.3-1.7,0.3-2.4c0-2.8-1.8-4.2-4.4-4.2
		c-2.3,0-3.7,1.2-4.5,2.4h-0.1l0.5-2h-2.3c-0.2,0.8-0.3,1.5-0.4,2L60.4,31.5L60.4,31.5z"/>
	<path fill-rule="evenodd" clip-rule="evenodd" fill="#FFFFFF" d="M77.8,23.6c0.6-2,2-3.7,4-3.7c1.9,0,2.8,1.1,2.8,2.7
		c0,0.3-0.1,0.6-0.1,1H77.8L77.8,23.6L77.8,23.6z M85.3,28.9c-1.2,0.6-2.5,0.9-3.8,0.9c-2.4,0-4-0.9-4-3.6c0-0.2,0-0.6,0.1-0.8h9.3
		c0.1-0.8,0.2-1.6,0.2-2.4c0-3.1-1.8-5-5-5c-4.7,0-7.2,4.2-7.2,7.9c0,4.6,2.8,6,6.1,6c1.3,0,2.7-0.2,3.9-0.6L85.3,28.9L85.3,28.9z"
		/>
	<path fill-rule="evenodd" clip-rule="evenodd" fill="#FFFFFF" d="M87.5,20.2h2.9l-1.1,5.5c-0.2,0.7-0.5,2.3-0.5,3.1
		c0,1.4,0.9,3,3.1,3c0.7,0,1.8-0.1,2.4-0.3l0.4-2c-0.5,0.2-1.2,0.4-1.7,0.4c-1.3,0-1.7-0.6-1.7-1.5c0-0.4,0.2-1.9,0.4-2.4l1.2-5.7
		h3.6l0.4-2h-3.6l0.6-3.1l-2.4,0.1l-0.7,3.1h-2.9L87.5,20.2L87.5,20.2z"/>
	<polygon fill-rule="evenodd" clip-rule="evenodd" fill="#FFFFFF" points="99.7,31.5 102.6,31.5 108.2,20.8 108.3,20.8 109.3,31.5 
		112.2,31.5 119.3,18.2 116.7,18.2 111.2,28.9 111.2,28.9 110.2,18.2 107.3,18.2 101.6,28.9 101.6,28.9 100.7,18.2 98.2,18.2 
		99.7,31.5 	"/>
	<path fill-rule="evenodd" clip-rule="evenodd" fill="#FFFFFF" d="M118.1,25.9c0,3.9,2.4,5.9,6,5.9c4.7,0,7.4-3.6,7.4-8.1
		c0-3.6-2.4-5.7-5.9-5.7C120.8,17.9,118.1,21.5,118.1,25.9L118.1,25.9L118.1,25.9z M120.6,26c0-2.8,1.7-6.1,4.9-6.1
		c2.2,0,3.4,1.8,3.4,3.8c0,3-2.1,6.1-4.8,6.1C121.7,29.8,120.6,28.2,120.6,26L120.6,26z"/>
	<path fill-rule="evenodd" clip-rule="evenodd" fill="#FFFFFF" d="M131.6,31.5h2.4l1.3-6.5c0.3-1.7,1.8-4.9,4.8-4.9
		c0.2,0,0.6,0.1,1,0.2l0.6-2.1c-0.5-0.2-0.9-0.2-1.1-0.2c-2.3,0-3.7,1.2-4.5,2.4H136l0.4-2h-2.2c-0.2,0.8-0.3,1.5-0.4,2L131.6,31.5
		L131.6,31.5z"/>
	<polygon fill-rule="evenodd" clip-rule="evenodd" fill="#FFFFFF" points="140.5,31.5 142.9,31.5 144.4,24.6 149.1,31.5 152.3,31.5 
		146.8,24.1 154.4,18.2 150.8,18.2 144.6,23.4 144.6,23.4 146.3,15.1 143.9,15.1 140.5,31.5 	"/>
	<path fill-rule="evenodd" clip-rule="evenodd" fill="#FFFFFF" d="M163.8,18.6c-1.1-0.4-2.3-0.7-3.5-0.7c-2.1,0-5,1.1-5,3.9
		c0,3.4,4.5,3.7,4.5,6c0,1.5-1.4,2-2.8,2c-1,0-2-0.4-3-0.8l-0.5,2.1c0.9,0.3,1.7,0.6,3.9,0.6c2,0,5-1.1,5-4.3c0-3.7-4.5-3.8-4.5-6.1
		c0-1.3,1.4-1.6,2.4-1.6c0.9,0,2,0.3,2.7,0.6L163.8,18.6L163.8,18.6z"/>
	<path fill-rule="evenodd" clip-rule="evenodd" fill="#FFFFFF" d="M94.9,36.7c0,0.9-0.8,1.7-1.7,1.7c-0.9,0-1.7-0.7-1.7-1.7
		c0-0.9,0.7-1.7,1.7-1.7C94.1,35,94.9,35.7,94.9,36.7L94.9,36.7z"/>
	<path fill-rule="evenodd" clip-rule="evenodd" fill="#FFFFFF" d="M86,36.7c0,0.9-0.7,1.7-1.7,1.7c-0.9,0-1.7-0.7-1.7-1.7
		c0-0.9,0.8-1.7,1.7-1.7C85.3,35,86,35.7,86,36.7L86,36.7z"/>
	<path fill-rule="evenodd" clip-rule="evenodd" fill="#FFFFFF" d="M75.3,36.7c0,0.9-0.7,1.7-1.7,1.7c-0.9,0-1.7-0.7-1.7-1.7
		c0-0.9,0.8-1.7,1.7-1.7C74.5,35,75.3,35.7,75.3,36.7L75.3,36.7z"/>
	<path fill-rule="evenodd" clip-rule="evenodd" fill="#FFFFFF" d="M62.1,36.7c-0.1,0.9-0.9,1.7-1.8,1.6c-0.9-0.1-1.6-0.9-1.5-1.8
		c0.1-0.9,0.9-1.6,1.7-1.5C61.5,35.1,62.1,35.9,62.1,36.7L62.1,36.7z"/>
	<path fill-rule="evenodd" clip-rule="evenodd" fill="#FFFFFF" d="M45.2,36.7c0,0.9-0.7,1.7-1.7,1.7c-0.9,0-1.7-0.7-1.7-1.7
		c0-0.9,0.8-1.7,1.7-1.7C44.5,35,45.2,35.7,45.2,36.7L45.2,36.7z"/>
	<polygon fill-rule="evenodd" clip-rule="evenodd" fill="#FFFFFF" points="168.9,27.6 167.5,27.6 166.5,31.8 165.9,31.8 166.7,27.6 
		165.3,27.6 165.4,27.1 169,27.1 168.9,27.6 	"/>
	<polygon fill-rule="evenodd" clip-rule="evenodd" fill="#FFFFFF" points="170.2,27.1 171.2,27.1 171.9,30.9 174.1,27.1 175.3,27.1 
		174.3,31.8 173.6,31.8 174.5,27.7 174.5,27.7 172,31.8 171.4,31.8 170.7,27.7 170.7,27.7 169.7,31.8 169.1,31.8 170.2,27.1 	"/>
</g>
</svg>
