<?xml version="1.0" encoding="utf-8"?>
<!-- Generator: Adobe Illustrator 18.1.1, SVG Export Plug-In . SVG Version: 6.00 Build 0)  -->
<svg version="1.1" id="Layer_1" xmlns="http://www.w3.org/2000/svg" xmlns:xlink="http://www.w3.org/1999/xlink" x="0px" y="0px"
	 viewBox="0 0 400 68" enable-background="new 0 0 400 68" xml:space="preserve">
<g id="zt02wn.tif">
	<g>
		<path fill="#FFFFFF" d="M28.2,33.9C28.2,33.9,28.2,33.9,28.2,33.9c-0.1-7.6-0.1-15.3,0-22.9c0-2.3-0.3-4.4-1.7-6.3
			C24.9,2.5,22.8,1,20,0.9c-2.5-0.2-5.1,0-7.6,0c-0.7,0-1,0.2-1,1c0,2.4,0,4.8,0,7.1c0,0.8,0.3,1,1,0.9c1.3,0,2.6,0,4,0
			c2.2,0,2.7,0.5,2.7,2.7c0,0.3,0,0.5,0,0.8c0,11.8,0,23.7,0,35.5c0,2,0,3.9,0,5.9c0,2.4-0.8,3.2-3.2,3.2c-1.1,0-2.3,0-3.4,0
			c-0.8,0-1.1,0.2-1,1c0,2.4,0,4.8,0,7.1c0,0.8,0.2,1.1,1,1.1c1.7,0,3.3-0.1,5,0c3.5,0.2,6.3-1,8.7-3.6c1.4-1.6,2.2-3.3,2.2-5.4
			C28.2,50.1,28.2,42,28.2,33.9z M295.1,5.3C295.1,5.3,295.1,5.3,295.1,5.3c0-1.2,0-2.4,0-3.6c0-0.3-0.4-0.8-0.6-0.8
			c-2.6,0.1-5.4-0.6-7.9,0.8c-3.3,1.9-5.5,4.5-5.5,8.6c0,5.1,0,10.2,0,15.3c0,0.6-0.1,1.1-0.1,1.7c-0.1,0.9-0.5,1.5-1.3,1.6
			c-1,0.2-2.1,0.2-3.1,0.3c-1.2,0.1-1.8,0.6-1.8,1.7c0,2,0,4,0,6c0,1,0.6,1.5,1.6,1.6c0.9,0,1.9,0,2.8,0c2.6,0,3.3,0.7,3.3,3.3
			c0,5.4,0,10.8,0,16.2c0,3.6,2.1,6,4.9,7.9c2.3,1.5,5,1.2,7.6,1.2c0.8,0,0.8-0.5,0.8-1.1c0-2.3,0-4.7,0-7c0-0.9-0.3-1.1-1.1-1.1
			c-2.2-0.1-2.9-0.8-3-3.1c0-4.4,0-8.8,0-13.2c0-2.8-0.8-5.2-2.9-7.1c-1.1-1-1.1-1.4-0.2-2.5c1.1-1.5,1.7-3.1,1.7-5
			c-0.1-3.1,0-6.3,0-9.4c0-1.6-0.1-3.2,0-4.8c0.1-2,1-3.2,3.1-3c0.2,0,0.4,0,0.6,0c1.1,0.2,1.4-0.4,1.3-1.4
			C295.1,7.5,295.1,6.4,295.1,5.3z M346.5,34c0,0-0.1,0-0.1,0c0-8.1,0.1-16.3,0-24.4c0-3.4-2.2-5.7-4.9-7.6
			c-2.3-1.6-4.9-1.2-7.4-1.2c-0.2,0-0.7,0.6-0.7,0.9c-0.1,2.4,0,4.8,0,7.1c0,0.7,0.2,1,1,1c2.4,0.1,3.1,0.8,3,3.2
			c0,5.9,0,11.7,0,17.6c0,8.1,0,16.2,0,24.3c0,2.1-0.7,2.9-2.8,3c-0.8,0-1.2,0.3-1.1,1.1c0,2.4,0,4.8,0,7.1c0,0.7,0.2,1,0.9,0.9
			c1,0,2,0,3.1,0c2.3-0.1,4.3-0.9,6-2.5c2.3-2.1,3.2-4.7,3.2-7.8C346.5,49.3,346.5,41.6,346.5,34z M327.4,33.8
			C327.4,33.8,327.3,33.8,327.4,33.8c0-7,0-13.9,0-20.9c0-2.1,0.7-2.9,2.8-3.1c0.6-0.1,0.9-0.2,0.9-0.9c0-2.5,0-4.9,0-7.4
			c0-0.3-0.4-0.8-0.5-0.8c-1.7,0-3.5,0-5.2,0.2c-2.3,0.3-3.5,2.1-5,3.5c-1.4,1.3-2,2.9-2,4.8c0,6.5,0,13.1,0,19.6
			c0,9.7,0,19.4-0.1,29c0,3.7,2.1,5.9,4.8,7.8c2.2,1.5,4.8,1.4,7.3,1.2c0.3,0,0.7-0.5,0.7-0.8c0.1-2.5,0.1-5.1,0-7.6
			c0-0.3-0.4-0.7-0.7-0.8c-2.5-0.5-3-1-3-3.6C327.4,47.5,327.4,40.7,327.4,33.8z M0.1,34.1C0.1,34.1,0,34.1,0.1,34.1
			C0,44.7,0,55.2,0,65.8c0,1,0.3,1.4,1.3,1.4c2.1-0.1,4.2,0,6.4,0c1.5,0,1.5,0,1.5-1.5c0-9,0-18.1,0-27.1c0-12.1,0-24.2,0-36.3
			c0-1.1-0.3-1.5-1.4-1.4c-2,0.1-4.1,0-6.1,0c-1.5,0-1.5,0-1.5,1.5C0.1,12.9,0.1,23.5,0.1,34.1z M200.8,56.3
			C200.8,56.3,200.8,56.3,200.8,56.3c0-3.1,0-6.1,0-9.2c0-0.6-0.1-1.2-0.3-1.8c-1.7-5.7-3.4-11.3-5.1-17c-1.3-4.5-2.6-9-3.9-13.6
			c-1.3-4.4-2.6-8.8-3.9-13.2c-0.2-0.6-0.4-0.8-1-0.8c-2.4,0-4.8,0-7.1,0c-0.7,0-1,0.2-0.8,1c1.4,4.7,2.8,9.4,4.2,14.1
			c2.5,8.5,4.9,17,7.4,25.4c0.9,3,1.4,6,1.3,9.1c-0.1,5.1,0,10.3-0.1,15.4c0,1,0.3,1.4,1.3,1.3c2.2-0.1,4.5-0.1,6.7,0
			c1,0,1.3-0.3,1.3-1.3C200.7,62.7,200.8,59.5,200.8,56.3z M116.3,34C116.2,34,116.2,34,116.3,34c-0.1-10.6-0.1-21.1-0.1-31.7
			c0-1.5,0-1.5-1.6-1.5c-2,0-3.9,0-5.9,0c-1.5,0-1.5,0-1.5,1.6c0,10.8,0,21.5,0,32.3c0,10.3,0,20.6-0.1,31c0,1.1,0.3,1.5,1.5,1.5
			c2.1-0.1,4.2,0,6.2,0c1.5,0,1.5,0,1.5-1.5C116.3,55.1,116.3,44.6,116.3,34z M272.4,34C272.4,34,272.4,34,272.4,34
			c-0.1-10.6-0.1-21.3,0-31.9c0-1-0.2-1.3-1.3-1.3c-2,0.1-3.9,0-5.9,0c-1.9,0-1.9,0-1.9,1.8c0,9.8,0,19.6,0,29.4
			c0,11.2,0,22.5-0.1,33.7c0,1.1,0.3,1.5,1.5,1.5c2-0.1,3.9,0,5.9,0c1.8,0,1.8,0,1.8-1.8C272.4,54.9,272.4,44.5,272.4,34z M150.7,34
			C150.7,34,150.7,34,150.7,34c0-10.7,0-21.3,0-32c0-0.9-0.3-1.3-1.2-1.2c-2.1,0.1-4.2,0-6.2,0c-1.5,0-1.5,0-1.5,1.6
			c0,9.7,0,19.4,0,29.2c0,11.3,0,22.7,0,34c0,1.5,0,1.6,1.6,1.6c2,0,4,0,6,0c1.5,0,1.5,0,1.5-1.5C150.7,55.2,150.7,44.6,150.7,34z
			 M79.6,67.2c1.1,0,2.3,0,3.4,0c1,0,1.2-0.4,1-1.3c-0.1-0.5-0.3-1-0.3-1.5c-0.7-3.8-1.3-7.6-2-11.5c-0.7-3.8-1.4-7.6-2.1-11.3
			c-0.5-2.9-1-5.7-1.5-8.6c-0.5-2.8-1.1-5.7-1.7-8.5c-0.7-3.8-1.3-7.6-2-11.3c-0.7-3.8-1.5-7.5-2.1-11.3c-0.1-0.8-0.4-1-1.1-1
			c-2.1,0-4.2,0-6.4,0c-1.1,0-1.3,0.3-1.1,1.4c0.5,2,0.9,4.1,1.2,6.2c0.3,2,0.5,4,0.8,5.9c0.7,4,1.5,8.1,2.2,12.1
			c0.7,3.8,1.3,7.6,2,11.4c0.5,2.7,1,5.3,1.5,8c0.6,3.4,1.3,6.9,1.9,10.3c0.6,3.4,1.2,6.8,1.8,10.2c0.1,0.7,0.5,0.9,1.1,0.8
			C77.4,67.2,78.5,67.2,79.6,67.2z M62.2,8.4c-0.1,0-0.2,0-0.3,0c-0.1,0.7-0.1,1.5-0.3,2.2c-0.7,3.3-1.4,6.6-2,9.9
			c-0.7,4-1.3,8-2,12c-1,5.4-2,10.8-3.1,16.2c-1.1,5.7-2.1,11.4-3.1,17c-0.2,0.9,0,1.3,1,1.3c2.2,0,4.3,0,6.5,0c0.8,0,1.2-0.2,1.3-1
			c0.4-2.4,0.9-4.8,1.2-7.2c0.2-0.9,0.4-1.5,1.6-1.4c1.5,0.1,3,0,4.5,0c1.2,0,2.5,0,3.7,0c0-0.3,0.1-0.4,0.1-0.5
			c-0.4-2.5-0.9-5-1.3-7.4c-0.1-0.7-0.7-1.1-1.4-1c-1.4,0-2.7,0-4.1,0c-0.7,0-1-0.3-0.8-1c0.2-1,0.3-2.1,0.5-3.1
			c0.5-2.8,1-5.6,1.6-8.4c0.6-2.9,0.7-5.7,0-8.6c-0.6-2.8-1.1-5.5-1.6-8.3C63.4,15.5,62.9,12,62.2,8.4z M400,48.8
			C400,48.8,400,48.8,400,48.8c0-2.6-0.1-5.3,0-7.9c0.1-3.3-1-5.9-3.4-8.3c-2.5-2.5-5.3-3.4-8.7-3.2c-0.7,0-1.1,0.3-1.1,1
			c0,2.4,0,4.8,0,7.1c0,0.7,0.3,0.9,1,1c2.3,0.3,3,1,3.1,3.4c0,4.2,0,8.5,0,12.7c0,2.4-0.8,3.1-3.1,3.3c-0.6,0-0.9,0.2-0.9,0.9
			c0,2.5,0,5,0,7.5c0,0.6,0.2,0.9,0.9,0.9c0.9,0,1.9,0,2.8,0c5.1,0,9.4-4.3,9.5-9.4C400,54.7,400,51.8,400,48.8z M371.9,19
			C371.9,19,371.9,19,371.9,19c0,3.3-0.1,6.7,0,10c0,1,0.2,2,0.6,2.9c1.8,4.3,6.5,7.2,11.4,6.7c0.3,0,0.8-0.5,0.8-0.8
			c0.1-2.5,0-5,0-7.5c0-0.3-0.4-0.7-0.7-0.8c-2.5-0.5-3-1-3-3.6c0-4.3,0-8.6,0-12.8c0-0.6,0.1-1.1,0.2-1.7c0.1-0.8,0.6-1.3,1.4-1.4
			c0.4-0.1,0.9,0,1.2-0.1c0.3-0.1,0.8-0.5,0.8-0.8c0.1-2.5,0.1-5,0-7.5c0-0.3-0.4-0.7-0.7-0.7c-2.9-0.2-5.8-0.2-8.2,1.7
			c-2.1,1.7-3.7,3.7-3.7,6.6C371.9,12.5,371.9,15.7,371.9,19z M201.9,41.7c0.2-0.3,0.3-0.5,0.3-0.6c0.9-3.3,1.8-6.6,2.8-9.9
			c1.3-4.5,2.7-8.9,4-13.4c1.6-5.3,3.1-10.6,4.7-15.9c0.2-0.8,0.1-1.1-0.8-1.1c-2.4,0-4.8,0-7.1,0c-0.7,0-0.9,0.3-1,0.9
			c-0.3,1.2-0.6,2.4-1,3.6c-0.9,3-1.8,6-2.7,9c-0.9,3.1-1.8,6.1-2.7,9.2c-0.5,1.6-1.1,3.1-0.5,4.9c1.3,4,2.3,8,3.5,12
			C201.4,40.8,201.6,41.2,201.9,41.7z M400,15C400,15,400,15,400,15c0-1.7,0.1-3.5,0-5.2c-0.3-3.4-2-5.9-4.9-7.7
			c-2.3-1.5-4.9-1.3-7.5-1.2c-0.2,0-0.7,0.5-0.7,0.8c-0.1,2.5,0,4.9-0.1,7.4c0,0.6,0.2,0.8,0.9,0.9c2.2,0.1,3.2,1.2,3.2,3.4
			c0,2.3,0,4.6,0,6.9c0,0.8,0.2,1.1,1,1.1c2.3,0,4.7,0,7,0c0.8,0,1-0.3,1-1.1C399.9,18.4,400,16.7,400,15z M371.8,53.4
			C371.8,53.4,371.8,53.4,371.8,53.4c0,1.6,0.1,3.2,0,4.8c-0.2,3.7,2.2,5.8,4.8,7.8c2.2,1.6,4.7,1.3,7.2,1.3c0.8,0,0.8-0.5,0.8-1.1
			c0-2.4,0-4.8,0-7.1c0-0.7-0.2-1-1-1c-2.3-0.2-2.8-0.8-2.8-3.1c0-2.4,0-4.8,0-7.1c0-0.8-0.2-1.2-1.1-1.1c-2.3,0-4.6,0-6.9,0
			c-0.8,0-1.1,0.3-1.1,1.1C371.8,49.6,371.8,51.5,371.8,53.4z M158.9,67.2c1.6,0,3.2,0,4.9,0c0.8,0,1.1-0.3,1.1-1.1c0-2.3,0-4.7,0-7
			c0-0.8-0.2-1.1-1-1.1c-3.3,0-6.6,0-9.9,0c-0.8,0-1.1,0.3-1.1,1.1c0,2.3,0,4.7,0,7c0,0.9,0.4,1.2,1.2,1.1
			C155.8,67.1,157.3,67.2,158.9,67.2z"/>
		<path fill="#FFFFFF" d="M28.2,33.9c0,8.1,0,16.2,0,24.3c0,2.1-0.7,3.8-2.2,5.4c-2.4,2.6-5.2,3.8-8.7,3.6c-1.7-0.1-3.3,0-5,0
			c-0.8,0-1-0.3-1-1.1c0-2.4,0-4.8,0-7.1c0-0.8,0.3-1.1,1-1c1.1,0,2.3,0,3.4,0c2.4,0,3.2-0.8,3.2-3.2c0-2,0-3.9,0-5.9
			c0-11.8,0-23.7,0-35.5c0-0.3,0-0.5,0-0.8c0-2.2-0.5-2.6-2.7-2.7c-1.3,0-2.6,0-4,0c-0.7,0-1-0.2-1-0.9c0-2.4,0-4.8,0-7.1
			c0-0.8,0.3-1,1-1c2.5,0,5.1-0.1,7.6,0c2.8,0.2,4.8,1.7,6.5,3.9c1.4,1.9,1.7,4,1.7,6.3C28.1,18.7,28.2,26.3,28.2,33.9
			C28.2,33.9,28.2,33.9,28.2,33.9z"/>
		<path fill="#FFFFFF" d="M295.1,5.3c0,1.1-0.1,2.1,0,3.2c0.1,1-0.2,1.5-1.3,1.4c-0.2,0-0.4,0-0.6,0c-2.1-0.2-3,1-3.1,3
			c-0.1,1.6,0,3.2,0,4.8c0,3.1-0.1,6.3,0,9.4c0.1,1.9-0.5,3.5-1.7,5c-0.9,1.1-0.9,1.5,0.2,2.5c2.1,1.9,2.9,4.3,2.9,7.1
			c0,4.4,0,8.8,0,13.2c0,2.3,0.7,3,3,3.1c0.8,0,1.2,0.2,1.1,1.1c0,2.3,0,4.7,0,7c0,0.6,0,1.1-0.8,1.1c-2.6,0-5.3,0.3-7.6-1.2
			c-2.8-1.9-4.9-4.2-4.9-7.9c0-5.4,0-10.8,0-16.2c0-2.6-0.7-3.3-3.3-3.3c-0.9,0-1.9,0-2.8,0c-1,0-1.6-0.5-1.6-1.6c0-2,0-4,0-6
			c0-1.1,0.7-1.6,1.8-1.7c1-0.1,2.1-0.1,3.1-0.3c0.8-0.2,1.3-0.8,1.3-1.6c0-0.6,0.1-1.1,0.1-1.7c0-5.1,0-10.2,0-15.3
			c0-4.1,2.2-6.6,5.5-8.6c2.5-1.5,5.2-0.7,7.9-0.8c0.2,0,0.6,0.5,0.6,0.8C295.2,2.9,295.1,4.1,295.1,5.3
			C295.1,5.3,295.1,5.3,295.1,5.3z"/>
		<path fill="#FFFFFF" d="M346.5,34c0,7.6,0,15.3,0,22.9c0,3.1-0.9,5.7-3.2,7.8c-1.7,1.6-3.7,2.4-6,2.5c-1,0-2,0-3.1,0
			c-0.7,0-0.9-0.3-0.9-0.9c0-2.4,0-4.8,0-7.1c0-0.8,0.3-1.1,1.1-1.1c2.1-0.1,2.8-0.9,2.8-3c0-8.1,0-16.2,0-24.3c0-5.9,0-11.7,0-17.6
			c0-2.4-0.6-3.1-3-3.2c-0.7,0-1-0.3-1-1c0-2.4,0-4.8,0-7.1c0-0.3,0.4-0.9,0.7-0.9c2.5,0,6.2-0.4,8.5,1.2c2.7,1.9,3.8,4,3.8,7.5
			c0.1,8.1,0,16.3,0,24.4C346.4,34,346.5,34,346.5,34z"/>
		<path fill="#FFFFFF" d="M327.4,33.8c0,6.8,0,13.7,0,20.5c0,2.6,0.4,3.1,3,3.6c0.3,0.1,0.7,0.5,0.7,0.8c0.1,2.5,0.1,5.1,0,7.6
			c0,0.3-0.4,0.7-0.7,0.8c-2.5,0.1-5.1,0.3-7.3-1.2c-2.7-1.9-4.8-4.1-4.8-7.8c0.1-9.7,0.1-19.4,0.1-29c0-6.5,0-13.1,0-19.6
			c0-1.8,0.5-4.6,1.9-5.9c1.5-1.4,2.8-2.1,5-2.4c1.7-0.2,3.4-0.2,5.2-0.2c0.2,0,0.5,0.5,0.5,0.8c0,2.5,0,4.9,0,7.4
			c0,0.7-0.3,0.8-0.9,0.9c-2.1,0.2-2.8,1-2.8,3.1C327.3,19.9,327.3,26.9,327.4,33.8C327.3,33.8,327.4,33.8,327.4,33.8z"/>
		<path fill="#FFFFFF" d="M0.1,34.1c0-10.6,0-21.2,0-31.8c0-1.5,0-1.5,1.5-1.5c2,0,4.1,0.1,6.1,0c1.1,0,1.4,0.4,1.4,1.4
			c0,12.1,0,24.2,0,36.3c0,9,0,18.1,0,27.1c0,1.5,0,1.5-1.5,1.5c-2.1,0-4.2,0-6.4,0c-1,0-1.3-0.3-1.3-1.4C0,55.2,0,44.7,0.1,34.1
			C0,34.1,0.1,34.1,0.1,34.1z"/>
		<path fill="#FFFFFF" d="M200.8,56.3c0,3.2,0,6.4,0,9.5c0,1-0.3,1.3-1.3,1.3c-2.2-0.1-4.5-0.1-6.7,0c-1,0-1.3-0.4-1.3-1.3
			c0-5.1-0.1-10.3,0.1-15.4c0.1-3.1-0.4-6.1-1.3-9.1c-2.5-8.4-4.9-16.9-7.4-25.4c-1.4-4.7-2.8-9.4-4.2-14.1c-0.3-0.8,0-1,0.8-1
			c2.4,0,4.8,0,7.1,0c0.6,0,0.8,0.2,1,0.8c1.3,4.4,2.6,8.8,3.9,13.2c1.3,4.5,2.6,9,3.9,13.6c1.7,5.7,3.4,11.3,5.1,17
			c0.2,0.6,0.3,1.2,0.3,1.8C200.8,50.2,200.8,53.3,200.8,56.3C200.8,56.3,200.8,56.3,200.8,56.3z"/>
		<path fill="#FFFFFF" d="M116.3,34c0,10.6,0,21.1,0,31.7c0,1.5,0,1.5-1.5,1.5c-2.1,0-4.2-0.1-6.2,0c-1.2,0-1.5-0.4-1.5-1.5
			c0-10.3,0-20.6,0.1-31c0-10.8,0-21.5,0-32.3c0-1.6,0-1.6,1.5-1.6c2,0,3.9,0,5.9,0c1.6,0,1.6,0,1.6,1.5
			C116.2,12.9,116.2,23.5,116.3,34C116.2,34,116.2,34,116.3,34z"/>
		<path fill="#FFFFFF" d="M272.4,34c0,10.5,0,20.9,0,31.4c0,1.8,0,1.8-1.8,1.8c-2,0-3.9-0.1-5.9,0c-1.1,0-1.5-0.3-1.5-1.5
			c0.1-11.2,0-22.5,0.1-33.7c0-9.8,0-19.6,0-29.4c0-1.8,0-1.8,1.9-1.8c2,0,3.9,0.1,5.9,0c1,0,1.3,0.3,1.3,1.3
			C272.4,12.7,272.4,23.4,272.4,34C272.4,34,272.4,34,272.4,34z"/>
		<path fill="#FFFFFF" d="M150.7,34c0,10.6,0,21.1,0,31.7c0,1.5,0,1.5-1.5,1.5c-2,0-4,0-6,0c-1.6,0-1.6,0-1.6-1.6
			c0-11.3,0-22.7,0-34c0-9.7,0-19.4,0-29.2c0-1.6,0-1.6,1.5-1.6c2.1,0,4.2,0,6.2,0c0.9,0,1.2,0.3,1.2,1.2
			C150.7,12.7,150.7,23.4,150.7,34C150.7,34,150.7,34,150.7,34z"/>
		<path fill="#FFFFFF" d="M79.6,67.2c-1.1,0-2.2,0-3.3,0c-0.6,0-1-0.2-1.1-0.8c-0.6-3.4-1.2-6.8-1.8-10.2c-0.6-3.4-1.3-6.9-1.9-10.3
			c-0.5-2.7-1-5.3-1.5-8c-0.7-3.8-1.3-7.6-2-11.4c-0.7-4-1.5-8.1-2.2-12.1c-0.3-2-0.5-4-0.8-5.9c-0.3-2.1-0.8-4.1-1.2-6.2
			c-0.2-1.1-0.1-1.4,1.1-1.4c2.1,0,4.2,0,6.4,0c0.7,0,1,0.2,1.1,1c0.7,3.8,1.4,7.5,2.1,11.3c0.7,3.8,1.3,7.6,2,11.3
			c0.5,2.9,1.1,5.7,1.7,8.5c0.5,2.9,1,5.7,1.5,8.6c0.7,3.8,1.4,7.6,2.1,11.3c0.7,3.8,1.3,7.6,2,11.5c0.1,0.5,0.2,1,0.3,1.5
			c0.2,0.8,0,1.3-1,1.3C81.9,67.1,80.8,67.2,79.6,67.2z"/>
		<path fill="#FFFFFF" d="M62.2,8.4c0.6,3.6,1.2,7.1,1.9,10.7c0.5,2.8,1,5.6,1.6,8.3c0.7,2.9,0.6,5.7,0,8.6
			c-0.6,2.8-1.1,5.6-1.6,8.4c-0.2,1-0.3,2.1-0.5,3.1c-0.1,0.7,0.1,1,0.8,1c1.4,0,2.7,0,4.1,0c0.8,0,1.3,0.3,1.4,1
			c0.5,2.5,0.9,5,1.3,7.4c0,0.1,0,0.2-0.1,0.5c-1.2,0-2.4,0-3.7,0c-1.5,0-3,0.1-4.5,0c-1.1-0.1-1.4,0.5-1.6,1.4
			c-0.4,2.4-0.9,4.8-1.2,7.2c-0.1,0.8-0.5,1-1.3,1c-2.2,0-4.3,0-6.5,0c-1,0-1.2-0.4-1-1.3c1.1-5.7,2.1-11.4,3.1-17
			c1-5.4,2.1-10.8,3.1-16.2c0.7-4,1.3-8,2-12c0.6-3.3,1.4-6.6,2-9.9c0.1-0.7,0.2-1.5,0.3-2.2C62,8.4,62.1,8.4,62.2,8.4z"/>
		<path fill="#FFFFFF" d="M400,48.8c0,3,0,6,0,9c0,5.1-4.3,9.4-9.5,9.4c-0.9,0-1.9,0-2.8,0c-0.6,0-0.9-0.3-0.9-0.9c0-2.5,0-5,0-7.5
			c0-0.6,0.3-0.8,0.9-0.9c2.4-0.2,3.1-1,3.1-3.3c0-4.2,0-8.5,0-12.7c0-2.4-0.7-3.1-3.1-3.4c-0.6-0.1-1-0.3-1-1c0-2.4,0-4.8,0-7.1
			c0-0.7,0.4-1,1.1-1c3.4-0.2,6.2,0.7,8.7,3.2c2.4,2.4,3.4,5,3.4,8.3C399.9,43.5,400,46.1,400,48.8C400,48.8,400,48.8,400,48.8z"/>
		<path fill="#FFFFFF" d="M371.9,19c0-3.3,0-6.5,0-9.8c0-2.9,1.6-4.9,3.7-6.6c2.4-1.9,5.3-1.9,8.2-1.7c0.3,0,0.7,0.5,0.7,0.7
			c0.1,2.5,0.1,5,0,7.5c0,0.3-0.5,0.6-0.8,0.8c-0.4,0.1-0.8,0.1-1.2,0.1c-0.8,0.1-1.3,0.5-1.4,1.4c-0.1,0.6-0.2,1.1-0.2,1.7
			c0,4.3,0,8.6,0,12.8c0,2.6,0.5,3.1,3,3.6c0.3,0.1,0.7,0.5,0.7,0.8c0.1,2.5,0.1,5,0,7.5c0,0.3-0.5,0.8-0.8,0.8
			c-4.9,0.6-9.6-2.3-11.4-6.7c-0.4-0.9-0.5-1.9-0.6-2.9C371.8,25.6,371.8,22.3,371.9,19C371.9,19,371.9,19,371.9,19z"/>
		<path fill="#FFFFFF" d="M201.9,41.7c-0.3-0.5-0.5-0.9-0.6-1.3c-1.2-4-2.2-8.1-3.5-12c-0.6-1.8,0.1-3.3,0.5-4.9
			c0.9-3.1,1.8-6.1,2.7-9.2c0.9-3,1.8-6,2.7-9c0.4-1.2,0.7-2.4,1-3.6c0.1-0.6,0.4-0.9,1-0.9c2.4,0,4.8,0,7.1,0c0.8,0,1,0.3,0.8,1.1
			c-1.6,5.3-3.1,10.6-4.7,15.9c-1.3,4.5-2.7,8.9-4,13.4c-1,3.3-1.9,6.6-2.8,9.9C202.2,41.3,202.1,41.4,201.9,41.7z"/>
		<path fill="#FFFFFF" d="M400,15c0,1.7,0,3.5,0,5.2c0,0.7-0.2,1.1-1,1.1c-2.3,0-4.7,0-7,0c-0.8,0-1-0.3-1-1.1c0-2.3,0-4.6,0-6.9
			c0-2.2-1-3.2-3.2-3.4c-0.6,0-0.9-0.3-0.9-0.9c0-2.5,0-4.9,0.1-7.4c0-0.3,0.4-0.8,0.7-0.8c2.6-0.1,5.1-0.3,7.5,1.2
			c2.8,1.8,4.5,4.4,4.9,7.7C400.1,11.5,399.9,13.2,400,15C400,15,400,15,400,15z"/>
		<path fill="#FFFFFF" d="M371.8,53.4c0-1.9,0-3.8,0-5.7c0-0.8,0.3-1.1,1.1-1.1c2.3,0,4.6,0,6.9,0c0.9,0,1.1,0.3,1.1,1.1
			c0,2.4,0,4.8,0,7.1c0,2.3,0.5,2.9,2.8,3.1c0.7,0.1,1,0.3,1,1c0,2.4,0,4.8,0,7.1c0,0.6-0.1,1.1-0.8,1.1c-2.5,0-5,0.3-7.2-1.3
			c-2.6-1.9-5-4.1-4.8-7.8C371.9,56.6,371.8,55,371.8,53.4C371.8,53.4,371.8,53.4,371.8,53.4z"/>
		<path fill="#FFFFFF" d="M158.9,67.2c-1.6,0-3.2,0-4.8,0c-0.8,0-1.2-0.2-1.2-1.1c0-2.3,0-4.7,0-7c0-0.8,0.3-1.1,1.1-1.1
			c3.3,0,6.6,0,9.9,0c0.8,0,1,0.3,1,1.1c0,2.3,0,4.7,0,7c0,0.8-0.3,1.1-1.1,1.1C162.2,67.1,160.5,67.2,158.9,67.2z"/>
	</g>
</g>
</svg>
