<?xml version="1.0" encoding="utf-8"?>
<!-- Generator: Adobe Illustrator 18.1.1, SVG Export Plug-In . SVG Version: 6.00 Build 0)  -->
<svg version="1.1" id="Layer_1" xmlns="http://www.w3.org/2000/svg" xmlns:xlink="http://www.w3.org/1999/xlink" x="0px" y="0px"
	 viewBox="-262 64.3 433.7 433.7" enable-background="new -262 64.3 433.7 433.7" xml:space="preserve">
<path fill="#FFFFFF" d="M-45.1,497.2c-2.1,0-4.3,0-6.4-0.1l44.1-121.3h60.8c10.7,0,22.4-8.2,26-18.2L127.2,226
	c7.8-21.5-4.5-39.2-27.4-39.2H15.5l-70.7,194.3h0l-40.1,110.2c-95.1-22.6-165.9-108.1-165.9-210.1c0-99.1,66.7-182.6,157.7-208
	l-41.4,113.7h0l-68.8,188.9l45.8,0l58.5-160.5h34.4l-58.5,160.5l45.8,0L-33.2,226c7.8-21.5-4.5-39.2-27.4-39.2H-99l44.2-121.4
	c3.2-0.1,6.5-0.2,9.7-0.2c119.3,0,216,96.7,216,216C170.9,400.4,74.1,497.2-45.1,497.2z M85.5,215.1H51.1L3,347.2h34.4L85.5,215.1z"
	/>
</svg>
